<svg width="512" height="340" viewBox="0 0 512 340" fill="none" xmlns="http://www.w3.org/2000/svg">
<g clip-path="url(#clip0_384_96)">
<rect opacity="0.25" x="82" width="420" height="100" rx="20" fill="#F3B29F"/>
<rect x="82" y="120" width="420" height="50" rx="20" fill="#71E8FC"/>
<rect x="82" y="240" width="420" height="100" rx="20" fill="#EAD16B"/>
<rect x="63" y="-10" width="451" height="120" stroke="#21252D" stroke-width="3"/>
<rect x="63" y="110" width="451" height="120" stroke="#21252D" stroke-width="3"/>
<rect x="63" y="230" width="451" height="120" stroke="#21252D" stroke-width="3"/>
<path opacity="0.25" d="M111.119 24.7031V39H109.312V26.959L105.67 28.2871V26.6562L110.836 24.7031H111.119ZM125.357 30.7578V32.9258C125.357 34.0911 125.253 35.0742 125.045 35.875C124.837 36.6758 124.537 37.3203 124.146 37.8086C123.756 38.2969 123.284 38.6517 122.73 38.873C122.184 39.0879 121.565 39.1953 120.875 39.1953C120.328 39.1953 119.824 39.127 119.361 38.9902C118.899 38.8535 118.482 38.6354 118.111 38.3359C117.747 38.0299 117.434 37.6328 117.174 37.1445C116.913 36.6562 116.715 36.0638 116.578 35.3672C116.441 34.6706 116.373 33.8568 116.373 32.9258V30.7578C116.373 29.5924 116.477 28.6159 116.686 27.8281C116.9 27.0404 117.203 26.4089 117.594 25.9336C117.984 25.4518 118.453 25.1068 119 24.8984C119.553 24.6901 120.172 24.5859 120.855 24.5859C121.409 24.5859 121.917 24.6543 122.379 24.791C122.848 24.9212 123.264 25.1328 123.629 25.4258C123.993 25.7122 124.303 26.0964 124.557 26.5781C124.817 27.0534 125.016 27.6361 125.152 28.3262C125.289 29.0163 125.357 29.8268 125.357 30.7578ZM123.541 33.2188V30.4551C123.541 29.8171 123.502 29.2572 123.424 28.7754C123.352 28.2871 123.245 27.8704 123.102 27.5254C122.958 27.1803 122.776 26.9004 122.555 26.6855C122.34 26.4707 122.089 26.3145 121.803 26.2168C121.523 26.1126 121.207 26.0605 120.855 26.0605C120.426 26.0605 120.045 26.1419 119.713 26.3047C119.381 26.4609 119.101 26.7116 118.873 27.0566C118.652 27.4017 118.482 27.8542 118.365 28.4141C118.248 28.974 118.189 29.6543 118.189 30.4551V33.2188C118.189 33.8568 118.225 34.4199 118.297 34.9082C118.375 35.3965 118.489 35.8197 118.639 36.1777C118.788 36.5293 118.971 36.819 119.186 37.0469C119.4 37.2747 119.648 37.444 119.928 37.5547C120.214 37.6589 120.53 37.7109 120.875 37.7109C121.318 37.7109 121.705 37.6263 122.037 37.457C122.369 37.2878 122.646 37.0241 122.867 36.666C123.095 36.3014 123.264 35.8359 123.375 35.2695C123.486 34.6966 123.541 34.013 123.541 33.2188ZM127.799 38.043C127.799 37.737 127.893 37.4798 128.082 37.2715C128.277 37.0566 128.557 36.9492 128.922 36.9492C129.286 36.9492 129.563 37.0566 129.752 37.2715C129.947 37.4798 130.045 37.737 130.045 38.043C130.045 38.3424 129.947 38.5964 129.752 38.8047C129.563 39.013 129.286 39.1172 128.922 39.1172C128.557 39.1172 128.277 39.013 128.082 38.8047C127.893 38.5964 127.799 38.3424 127.799 38.043ZM127.809 29.4199C127.809 29.1139 127.903 28.8568 128.092 28.6484C128.287 28.4336 128.567 28.3262 128.932 28.3262C129.296 28.3262 129.573 28.4336 129.762 28.6484C129.957 28.8568 130.055 29.1139 130.055 29.4199C130.055 29.7194 129.957 29.9733 129.762 30.1816C129.573 30.39 129.296 30.4941 128.932 30.4941C128.567 30.4941 128.287 30.39 128.092 30.1816C127.903 29.9733 127.809 29.7194 127.809 29.4199ZM141.451 30.7578V32.9258C141.451 34.0911 141.347 35.0742 141.139 35.875C140.93 36.6758 140.631 37.3203 140.24 37.8086C139.85 38.2969 139.378 38.6517 138.824 38.873C138.277 39.0879 137.659 39.1953 136.969 39.1953C136.422 39.1953 135.917 39.127 135.455 38.9902C134.993 38.8535 134.576 38.6354 134.205 38.3359C133.84 38.0299 133.528 37.6328 133.268 37.1445C133.007 36.6562 132.809 36.0638 132.672 35.3672C132.535 34.6706 132.467 33.8568 132.467 32.9258V30.7578C132.467 29.5924 132.571 28.6159 132.779 27.8281C132.994 27.0404 133.297 26.4089 133.688 25.9336C134.078 25.4518 134.547 25.1068 135.094 24.8984C135.647 24.6901 136.266 24.5859 136.949 24.5859C137.503 24.5859 138.01 24.6543 138.473 24.791C138.941 24.9212 139.358 25.1328 139.723 25.4258C140.087 25.7122 140.396 26.0964 140.65 26.5781C140.911 27.0534 141.109 27.6361 141.246 28.3262C141.383 29.0163 141.451 29.8268 141.451 30.7578ZM139.635 33.2188V30.4551C139.635 29.8171 139.596 29.2572 139.518 28.7754C139.446 28.2871 139.339 27.8704 139.195 27.5254C139.052 27.1803 138.87 26.9004 138.648 26.6855C138.434 26.4707 138.183 26.3145 137.896 26.2168C137.617 26.1126 137.301 26.0605 136.949 26.0605C136.52 26.0605 136.139 26.1419 135.807 26.3047C135.475 26.4609 135.195 26.7116 134.967 27.0566C134.745 27.4017 134.576 27.8542 134.459 28.4141C134.342 28.974 134.283 29.6543 134.283 30.4551V33.2188C134.283 33.8568 134.319 34.4199 134.391 34.9082C134.469 35.3965 134.583 35.8197 134.732 36.1777C134.882 36.5293 135.064 36.819 135.279 37.0469C135.494 37.2747 135.742 37.444 136.021 37.5547C136.308 37.6589 136.624 37.7109 136.969 37.7109C137.411 37.7109 137.799 37.6263 138.131 37.457C138.463 37.2878 138.74 37.0241 138.961 36.666C139.189 36.3014 139.358 35.8359 139.469 35.2695C139.579 34.6966 139.635 34.013 139.635 33.2188ZM152.701 30.7578V32.9258C152.701 34.0911 152.597 35.0742 152.389 35.875C152.18 36.6758 151.881 37.3203 151.49 37.8086C151.1 38.2969 150.628 38.6517 150.074 38.873C149.527 39.0879 148.909 39.1953 148.219 39.1953C147.672 39.1953 147.167 39.127 146.705 38.9902C146.243 38.8535 145.826 38.6354 145.455 38.3359C145.09 38.0299 144.778 37.6328 144.518 37.1445C144.257 36.6562 144.059 36.0638 143.922 35.3672C143.785 34.6706 143.717 33.8568 143.717 32.9258V30.7578C143.717 29.5924 143.821 28.6159 144.029 27.8281C144.244 27.0404 144.547 26.4089 144.938 25.9336C145.328 25.4518 145.797 25.1068 146.344 24.8984C146.897 24.6901 147.516 24.5859 148.199 24.5859C148.753 24.5859 149.26 24.6543 149.723 24.791C150.191 24.9212 150.608 25.1328 150.973 25.4258C151.337 25.7122 151.646 26.0964 151.9 26.5781C152.161 27.0534 152.359 27.6361 152.496 28.3262C152.633 29.0163 152.701 29.8268 152.701 30.7578ZM150.885 33.2188V30.4551C150.885 29.8171 150.846 29.2572 150.768 28.7754C150.696 28.2871 150.589 27.8704 150.445 27.5254C150.302 27.1803 150.12 26.9004 149.898 26.6855C149.684 26.4707 149.433 26.3145 149.146 26.2168C148.867 26.1126 148.551 26.0605 148.199 26.0605C147.77 26.0605 147.389 26.1419 147.057 26.3047C146.725 26.4609 146.445 26.7116 146.217 27.0566C145.995 27.4017 145.826 27.8542 145.709 28.4141C145.592 28.974 145.533 29.6543 145.533 30.4551V33.2188C145.533 33.8568 145.569 34.4199 145.641 34.9082C145.719 35.3965 145.833 35.8197 145.982 36.1777C146.132 36.5293 146.314 36.819 146.529 37.0469C146.744 37.2747 146.992 37.444 147.271 37.5547C147.558 37.6589 147.874 37.7109 148.219 37.7109C148.661 37.7109 149.049 37.6263 149.381 37.457C149.713 37.2878 149.99 37.0241 150.211 36.666C150.439 36.3014 150.608 35.8359 150.719 35.2695C150.829 34.6966 150.885 34.013 150.885 33.2188ZM163.941 32.2129V33.6973H159.176V32.2129H163.941ZM176.412 24.7031V39H174.605V26.959L170.963 28.2871V26.6562L176.129 24.7031H176.412ZM187.662 24.7031V39H185.855V26.959L182.213 28.2871V26.6562L187.379 24.7031H187.662ZM193.092 38.043C193.092 37.737 193.186 37.4798 193.375 37.2715C193.57 37.0566 193.85 36.9492 194.215 36.9492C194.579 36.9492 194.856 37.0566 195.045 37.2715C195.24 37.4798 195.338 37.737 195.338 38.043C195.338 38.3424 195.24 38.5964 195.045 38.8047C194.856 39.013 194.579 39.1172 194.215 39.1172C193.85 39.1172 193.57 39.013 193.375 38.8047C193.186 38.5964 193.092 38.3424 193.092 38.043ZM193.102 29.4199C193.102 29.1139 193.196 28.8568 193.385 28.6484C193.58 28.4336 193.86 28.3262 194.225 28.3262C194.589 28.3262 194.866 28.4336 195.055 28.6484C195.25 28.8568 195.348 29.1139 195.348 29.4199C195.348 29.7194 195.25 29.9733 195.055 30.1816C194.866 30.39 194.589 30.4941 194.225 30.4941C193.86 30.4941 193.58 30.39 193.385 30.1816C193.196 29.9733 193.102 29.7194 193.102 29.4199ZM206.744 30.7578V32.9258C206.744 34.0911 206.64 35.0742 206.432 35.875C206.223 36.6758 205.924 37.3203 205.533 37.8086C205.143 38.2969 204.671 38.6517 204.117 38.873C203.57 39.0879 202.952 39.1953 202.262 39.1953C201.715 39.1953 201.21 39.127 200.748 38.9902C200.286 38.8535 199.869 38.6354 199.498 38.3359C199.133 38.0299 198.821 37.6328 198.561 37.1445C198.3 36.6562 198.102 36.0638 197.965 35.3672C197.828 34.6706 197.76 33.8568 197.76 32.9258V30.7578C197.76 29.5924 197.864 28.6159 198.072 27.8281C198.287 27.0404 198.59 26.4089 198.98 25.9336C199.371 25.4518 199.84 25.1068 200.387 24.8984C200.94 24.6901 201.559 24.5859 202.242 24.5859C202.796 24.5859 203.303 24.6543 203.766 24.791C204.234 24.9212 204.651 25.1328 205.016 25.4258C205.38 25.7122 205.689 26.0964 205.943 26.5781C206.204 27.0534 206.402 27.6361 206.539 28.3262C206.676 29.0163 206.744 29.8268 206.744 30.7578ZM204.928 33.2188V30.4551C204.928 29.8171 204.889 29.2572 204.811 28.7754C204.739 28.2871 204.632 27.8704 204.488 27.5254C204.345 27.1803 204.163 26.9004 203.941 26.6855C203.727 26.4707 203.476 26.3145 203.189 26.2168C202.91 26.1126 202.594 26.0605 202.242 26.0605C201.812 26.0605 201.432 26.1419 201.1 26.3047C200.768 26.4609 200.488 26.7116 200.26 27.0566C200.038 27.4017 199.869 27.8542 199.752 28.4141C199.635 28.974 199.576 29.6543 199.576 30.4551V33.2188C199.576 33.8568 199.612 34.4199 199.684 34.9082C199.762 35.3965 199.876 35.8197 200.025 36.1777C200.175 36.5293 200.357 36.819 200.572 37.0469C200.787 37.2747 201.035 37.444 201.314 37.5547C201.601 37.6589 201.917 37.7109 202.262 37.7109C202.704 37.7109 203.092 37.6263 203.424 37.457C203.756 37.2878 204.033 37.0241 204.254 36.666C204.482 36.3014 204.651 35.8359 204.762 35.2695C204.872 34.6966 204.928 34.013 204.928 33.2188ZM217.994 30.7578V32.9258C217.994 34.0911 217.89 35.0742 217.682 35.875C217.473 36.6758 217.174 37.3203 216.783 37.8086C216.393 38.2969 215.921 38.6517 215.367 38.873C214.82 39.0879 214.202 39.1953 213.512 39.1953C212.965 39.1953 212.46 39.127 211.998 38.9902C211.536 38.8535 211.119 38.6354 210.748 38.3359C210.383 38.0299 210.071 37.6328 209.811 37.1445C209.55 36.6562 209.352 36.0638 209.215 35.3672C209.078 34.6706 209.01 33.8568 209.01 32.9258V30.7578C209.01 29.5924 209.114 28.6159 209.322 27.8281C209.537 27.0404 209.84 26.4089 210.23 25.9336C210.621 25.4518 211.09 25.1068 211.637 24.8984C212.19 24.6901 212.809 24.5859 213.492 24.5859C214.046 24.5859 214.553 24.6543 215.016 24.791C215.484 24.9212 215.901 25.1328 216.266 25.4258C216.63 25.7122 216.939 26.0964 217.193 26.5781C217.454 27.0534 217.652 27.6361 217.789 28.3262C217.926 29.0163 217.994 29.8268 217.994 30.7578ZM216.178 33.2188V30.4551C216.178 29.8171 216.139 29.2572 216.061 28.7754C215.989 28.2871 215.882 27.8704 215.738 27.5254C215.595 27.1803 215.413 26.9004 215.191 26.6855C214.977 26.4707 214.726 26.3145 214.439 26.2168C214.16 26.1126 213.844 26.0605 213.492 26.0605C213.062 26.0605 212.682 26.1419 212.35 26.3047C212.018 26.4609 211.738 26.7116 211.51 27.0566C211.288 27.4017 211.119 27.8542 211.002 28.4141C210.885 28.974 210.826 29.6543 210.826 30.4551V33.2188C210.826 33.8568 210.862 34.4199 210.934 34.9082C211.012 35.3965 211.126 35.8197 211.275 36.1777C211.425 36.5293 211.607 36.819 211.822 37.0469C212.037 37.2747 212.285 37.444 212.564 37.5547C212.851 37.6589 213.167 37.7109 213.512 37.7109C213.954 37.7109 214.342 37.6263 214.674 37.457C215.006 37.2878 215.283 37.0241 215.504 36.666C215.732 36.3014 215.901 35.8359 216.012 35.2695C216.122 34.6966 216.178 34.013 216.178 33.2188Z" fill="#140C09"/>
<path opacity="0.25" d="M108.199 59.7812V74H105.27V59.7812H108.199ZM113.863 65.8555V68.1406H107.398V65.8555H113.863ZM114.547 59.7812V62.0762H107.398V59.7812H114.547ZM115.406 68.8242V68.6191C115.406 67.8444 115.517 67.1315 115.738 66.4805C115.96 65.8229 116.282 65.2533 116.705 64.7715C117.128 64.2897 117.649 63.9154 118.268 63.6484C118.886 63.375 119.596 63.2383 120.396 63.2383C121.197 63.2383 121.91 63.375 122.535 63.6484C123.16 63.9154 123.684 64.2897 124.107 64.7715C124.537 65.2533 124.863 65.8229 125.084 66.4805C125.305 67.1315 125.416 67.8444 125.416 68.6191V68.8242C125.416 69.5924 125.305 70.3053 125.084 70.9629C124.863 71.6139 124.537 72.1836 124.107 72.6719C123.684 73.1536 123.163 73.528 122.545 73.7949C121.926 74.0618 121.217 74.1953 120.416 74.1953C119.615 74.1953 118.902 74.0618 118.277 73.7949C117.659 73.528 117.135 73.1536 116.705 72.6719C116.282 72.1836 115.96 71.6139 115.738 70.9629C115.517 70.3053 115.406 69.5924 115.406 68.8242ZM118.219 68.6191V68.8242C118.219 69.2669 118.258 69.6803 118.336 70.0645C118.414 70.4486 118.538 70.7871 118.707 71.0801C118.883 71.3665 119.111 71.5911 119.391 71.7539C119.671 71.9167 120.012 71.998 120.416 71.998C120.807 71.998 121.142 71.9167 121.422 71.7539C121.702 71.5911 121.926 71.3665 122.096 71.0801C122.265 70.7871 122.389 70.4486 122.467 70.0645C122.551 69.6803 122.594 69.2669 122.594 68.8242V68.6191C122.594 68.1895 122.551 67.7858 122.467 67.4082C122.389 67.0241 122.262 66.6855 122.086 66.3926C121.917 66.0931 121.692 65.8587 121.412 65.6895C121.132 65.5202 120.794 65.4355 120.396 65.4355C119.999 65.4355 119.661 65.5202 119.381 65.6895C119.107 65.8587 118.883 66.0931 118.707 66.3926C118.538 66.6855 118.414 67.0241 118.336 67.4082C118.258 67.7858 118.219 68.1895 118.219 68.6191ZM131.51 71.998C131.855 71.998 132.161 71.9329 132.428 71.8027C132.695 71.666 132.903 71.4772 133.053 71.2363C133.209 70.9889 133.29 70.6992 133.297 70.3672H135.943C135.937 71.1094 135.738 71.7702 135.348 72.3496C134.957 72.9225 134.433 73.375 133.775 73.707C133.118 74.0326 132.382 74.1953 131.568 74.1953C130.748 74.1953 130.032 74.0586 129.42 73.7852C128.814 73.5117 128.31 73.1341 127.906 72.6523C127.503 72.1641 127.2 71.5977 126.998 70.9531C126.796 70.3021 126.695 69.6055 126.695 68.8633V68.5801C126.695 67.8314 126.796 67.1348 126.998 66.4902C127.2 65.8392 127.503 65.2728 127.906 64.791C128.31 64.3027 128.814 63.9219 129.42 63.6484C130.025 63.375 130.735 63.2383 131.549 63.2383C132.415 63.2383 133.173 63.4043 133.824 63.7363C134.482 64.0684 134.996 64.5436 135.367 65.1621C135.745 65.7741 135.937 66.5 135.943 67.3398H133.297C133.29 66.9883 133.215 66.6693 133.072 66.3828C132.936 66.0964 132.734 65.8685 132.467 65.6992C132.206 65.5234 131.884 65.4355 131.5 65.4355C131.09 65.4355 130.755 65.5234 130.494 65.6992C130.234 65.8685 130.032 66.1029 129.889 66.4023C129.745 66.6953 129.645 67.0306 129.586 67.4082C129.534 67.7793 129.508 68.1699 129.508 68.5801V68.8633C129.508 69.2734 129.534 69.6673 129.586 70.0449C129.638 70.4225 129.736 70.7578 129.879 71.0508C130.029 71.3438 130.234 71.5749 130.494 71.7441C130.755 71.9134 131.093 71.998 131.51 71.998ZM143.824 71.4707V63.4336H146.637V74H143.99L143.824 71.4707ZM144.137 69.3027L144.967 69.2832C144.967 69.9863 144.885 70.6406 144.723 71.2461C144.56 71.8451 144.316 72.3659 143.99 72.8086C143.665 73.2448 143.255 73.5866 142.76 73.834C142.265 74.0749 141.682 74.1953 141.012 74.1953C140.497 74.1953 140.022 74.1237 139.586 73.9805C139.156 73.8307 138.785 73.5996 138.473 73.2871C138.167 72.9681 137.926 72.5612 137.75 72.0664C137.581 71.5651 137.496 70.9629 137.496 70.2598V63.4336H140.309V70.2793C140.309 70.5918 140.344 70.8555 140.416 71.0703C140.494 71.2852 140.602 71.4609 140.738 71.5977C140.875 71.7344 141.035 71.832 141.217 71.8906C141.406 71.9492 141.614 71.9785 141.842 71.9785C142.421 71.9785 142.877 71.8613 143.209 71.627C143.548 71.3926 143.785 71.0736 143.922 70.6699C144.065 70.2598 144.137 69.804 144.137 69.3027ZM154.498 71.0801C154.498 70.8783 154.439 70.696 154.322 70.5332C154.205 70.3704 153.987 70.2207 153.668 70.084C153.355 69.9408 152.903 69.8105 152.311 69.6934C151.777 69.5762 151.279 69.4297 150.816 69.2539C150.361 69.0716 149.964 68.8535 149.625 68.5996C149.293 68.3457 149.033 68.0462 148.844 67.7012C148.655 67.3496 148.561 66.9492 148.561 66.5C148.561 66.0573 148.655 65.6406 148.844 65.25C149.039 64.8594 149.316 64.5143 149.674 64.2148C150.038 63.9089 150.481 63.6712 151.002 63.502C151.529 63.3262 152.122 63.2383 152.779 63.2383C153.697 63.2383 154.485 63.3848 155.143 63.6777C155.807 63.9707 156.314 64.3743 156.666 64.8887C157.024 65.3965 157.203 65.9759 157.203 66.627H154.391C154.391 66.3535 154.332 66.1094 154.215 65.8945C154.104 65.6732 153.928 65.5007 153.688 65.377C153.453 65.2467 153.147 65.1816 152.77 65.1816C152.457 65.1816 152.187 65.237 151.959 65.3477C151.731 65.4518 151.555 65.5951 151.432 65.7773C151.314 65.9531 151.256 66.1484 151.256 66.3633C151.256 66.526 151.288 66.6725 151.354 66.8027C151.425 66.9264 151.539 67.0404 151.695 67.1445C151.852 67.2487 152.053 67.3464 152.301 67.4375C152.555 67.5221 152.867 67.6003 153.238 67.6719C154 67.8281 154.68 68.0332 155.279 68.2871C155.878 68.5345 156.354 68.873 156.705 69.3027C157.057 69.7259 157.232 70.2826 157.232 70.9727C157.232 71.4414 157.128 71.8711 156.92 72.2617C156.712 72.6523 156.412 72.9941 156.021 73.2871C155.631 73.5736 155.162 73.7982 154.615 73.9609C154.075 74.1172 153.466 74.1953 152.789 74.1953C151.806 74.1953 150.973 74.0195 150.289 73.668C149.612 73.3164 149.098 72.8704 148.746 72.3301C148.401 71.7832 148.229 71.2233 148.229 70.6504H150.895C150.908 71.0345 151.005 71.3438 151.188 71.5781C151.376 71.8125 151.614 71.9818 151.9 72.0859C152.193 72.1901 152.509 72.2422 152.848 72.2422C153.212 72.2422 153.515 72.1934 153.756 72.0957C153.997 71.9915 154.179 71.8548 154.303 71.6855C154.433 71.5098 154.498 71.3079 154.498 71.0801ZM169.215 63.4336V65.4258H163.062V63.4336H169.215ZM164.586 60.8262H167.398V70.8164C167.398 71.1224 167.438 71.3568 167.516 71.5195C167.6 71.6823 167.724 71.7962 167.887 71.8613C168.049 71.9199 168.255 71.9492 168.502 71.9492C168.678 71.9492 168.834 71.9427 168.971 71.9297C169.114 71.9102 169.234 71.8906 169.332 71.8711L169.342 73.9414C169.101 74.0195 168.84 74.0814 168.561 74.127C168.281 74.1725 167.971 74.1953 167.633 74.1953C167.014 74.1953 166.474 74.0944 166.012 73.8926C165.556 73.6842 165.204 73.3522 164.957 72.8965C164.71 72.4408 164.586 71.8418 164.586 71.0996V60.8262ZM173.785 63.4336V74H170.963V63.4336H173.785ZM170.787 60.6797C170.787 60.2695 170.93 59.931 171.217 59.6641C171.503 59.3971 171.887 59.2637 172.369 59.2637C172.844 59.2637 173.225 59.3971 173.512 59.6641C173.805 59.931 173.951 60.2695 173.951 60.6797C173.951 61.0898 173.805 61.4284 173.512 61.6953C173.225 61.9622 172.844 62.0957 172.369 62.0957C171.887 62.0957 171.503 61.9622 171.217 61.6953C170.93 61.4284 170.787 61.0898 170.787 60.6797ZM178.922 65.6211V74H176.1V63.4336H178.746L178.922 65.6211ZM178.531 68.3457H177.75C177.75 67.61 177.838 66.9329 178.014 66.3145C178.196 65.6895 178.46 65.1491 178.805 64.6934C179.156 64.2311 179.589 63.873 180.104 63.6191C180.618 63.3652 181.214 63.2383 181.891 63.2383C182.359 63.2383 182.789 63.3099 183.18 63.4531C183.57 63.5898 183.906 63.8079 184.186 64.1074C184.472 64.4004 184.693 64.7845 184.85 65.2598C185.006 65.7285 185.084 66.2917 185.084 66.9492V74H182.271V67.2617C182.271 66.7799 182.206 66.4089 182.076 66.1484C181.946 65.888 181.76 65.7057 181.52 65.6016C181.285 65.4974 181.002 65.4453 180.67 65.4453C180.305 65.4453 179.986 65.5202 179.713 65.6699C179.446 65.8197 179.225 66.028 179.049 66.2949C178.873 66.5553 178.743 66.8613 178.658 67.2129C178.574 67.5645 178.531 67.9421 178.531 68.3457ZM184.82 68.0234L183.814 68.1504C183.814 67.4603 183.899 66.819 184.068 66.2266C184.244 65.6341 184.501 65.1133 184.84 64.6641C185.185 64.2148 185.611 63.8665 186.119 63.6191C186.627 63.3652 187.213 63.2383 187.877 63.2383C188.385 63.2383 188.847 63.3132 189.264 63.4629C189.68 63.6061 190.035 63.8372 190.328 64.1562C190.628 64.4688 190.855 64.8789 191.012 65.3867C191.174 65.8945 191.256 66.5163 191.256 67.252V74H188.434V67.252C188.434 66.7637 188.368 66.3926 188.238 66.1387C188.115 65.8783 187.932 65.6992 187.691 65.6016C187.457 65.4974 187.177 65.4453 186.852 65.4453C186.513 65.4453 186.217 65.5137 185.963 65.6504C185.709 65.7806 185.497 65.9629 185.328 66.1973C185.159 66.4316 185.032 66.7051 184.947 67.0176C184.863 67.3236 184.82 67.6589 184.82 68.0234ZM198.297 74.1953C197.477 74.1953 196.741 74.0651 196.09 73.8047C195.439 73.5378 194.885 73.1699 194.43 72.7012C193.98 72.2324 193.635 71.6888 193.395 71.0703C193.154 70.4453 193.033 69.7812 193.033 69.0781V68.6875C193.033 67.8867 193.147 67.1543 193.375 66.4902C193.603 65.8262 193.928 65.25 194.352 64.7617C194.781 64.2734 195.302 63.8991 195.914 63.6387C196.526 63.3717 197.216 63.2383 197.984 63.2383C198.733 63.2383 199.397 63.362 199.977 63.6094C200.556 63.8568 201.041 64.2083 201.432 64.6641C201.829 65.1198 202.128 65.6667 202.33 66.3047C202.532 66.9362 202.633 67.6393 202.633 68.4141V69.5859H194.234V67.7109H199.869V67.4961C199.869 67.1055 199.798 66.7572 199.654 66.4512C199.518 66.1387 199.309 65.8913 199.029 65.709C198.749 65.5267 198.391 65.4355 197.955 65.4355C197.584 65.4355 197.265 65.5169 196.998 65.6797C196.731 65.8424 196.513 66.0703 196.344 66.3633C196.181 66.6562 196.057 67.0013 195.973 67.3984C195.895 67.7891 195.855 68.2188 195.855 68.6875V69.0781C195.855 69.5013 195.914 69.8919 196.031 70.25C196.155 70.6081 196.327 70.9173 196.549 71.1777C196.777 71.4382 197.05 71.64 197.369 71.7832C197.695 71.9264 198.062 71.998 198.473 71.998C198.98 71.998 199.452 71.9004 199.889 71.7051C200.331 71.5033 200.712 71.2005 201.031 70.7969L202.398 72.2812C202.177 72.6003 201.874 72.9062 201.49 73.1992C201.113 73.4922 200.657 73.7331 200.123 73.9219C199.589 74.1042 198.98 74.1953 198.297 74.1953ZM214.762 66.793V69H209.244V66.793H214.762ZM226.627 74H223.531L223.551 71.7148H226.627C227.395 71.7148 228.043 71.5423 228.57 71.1973C229.098 70.8457 229.495 70.3346 229.762 69.6641C230.035 68.9935 230.172 68.1829 230.172 67.2324V66.5391C230.172 65.8099 230.094 65.1686 229.938 64.6152C229.788 64.0618 229.563 63.5964 229.264 63.2188C228.964 62.8411 228.596 62.5579 228.16 62.3691C227.724 62.1738 227.223 62.0762 226.656 62.0762H223.473V59.7812H226.656C227.607 59.7812 228.476 59.944 229.264 60.2695C230.058 60.5885 230.745 61.0475 231.324 61.6465C231.904 62.2454 232.35 62.9616 232.662 63.7949C232.981 64.6217 233.141 65.543 233.141 66.5586V67.2324C233.141 68.2415 232.981 69.1628 232.662 69.9961C232.35 70.8294 231.904 71.5456 231.324 72.1445C230.751 72.737 230.064 73.196 229.264 73.5215C228.469 73.8405 227.59 74 226.627 74ZM225.191 59.7812V74H222.262V59.7812H225.191ZM234.645 68.8242V68.6191C234.645 67.8444 234.755 67.1315 234.977 66.4805C235.198 65.8229 235.52 65.2533 235.943 64.7715C236.367 64.2897 236.887 63.9154 237.506 63.6484C238.124 63.375 238.834 63.2383 239.635 63.2383C240.436 63.2383 241.148 63.375 241.773 63.6484C242.398 63.9154 242.923 64.2897 243.346 64.7715C243.775 65.2533 244.101 65.8229 244.322 66.4805C244.544 67.1315 244.654 67.8444 244.654 68.6191V68.8242C244.654 69.5924 244.544 70.3053 244.322 70.9629C244.101 71.6139 243.775 72.1836 243.346 72.6719C242.923 73.1536 242.402 73.528 241.783 73.7949C241.165 74.0618 240.455 74.1953 239.654 74.1953C238.854 74.1953 238.141 74.0618 237.516 73.7949C236.897 73.528 236.373 73.1536 235.943 72.6719C235.52 72.1836 235.198 71.6139 234.977 70.9629C234.755 70.3053 234.645 69.5924 234.645 68.8242ZM237.457 68.6191V68.8242C237.457 69.2669 237.496 69.6803 237.574 70.0645C237.652 70.4486 237.776 70.7871 237.945 71.0801C238.121 71.3665 238.349 71.5911 238.629 71.7539C238.909 71.9167 239.251 71.998 239.654 71.998C240.045 71.998 240.38 71.9167 240.66 71.7539C240.94 71.5911 241.165 71.3665 241.334 71.0801C241.503 70.7871 241.627 70.4486 241.705 70.0645C241.79 69.6803 241.832 69.2669 241.832 68.8242V68.6191C241.832 68.1895 241.79 67.7858 241.705 67.4082C241.627 67.0241 241.5 66.6855 241.324 66.3926C241.155 66.0931 240.93 65.8587 240.65 65.6895C240.37 65.5202 240.032 65.4355 239.635 65.4355C239.238 65.4355 238.899 65.5202 238.619 65.6895C238.346 65.8587 238.121 66.0931 237.945 66.3926C237.776 66.6855 237.652 67.0241 237.574 67.4082C237.496 67.7858 237.457 68.1895 237.457 68.6191ZM263.111 59.7812V74H260.182L254.469 64.4688V74H251.539V59.7812H254.469L260.191 69.3223V59.7812H263.111ZM265.035 68.8242V68.6191C265.035 67.8444 265.146 67.1315 265.367 66.4805C265.589 65.8229 265.911 65.2533 266.334 64.7715C266.757 64.2897 267.278 63.9154 267.896 63.6484C268.515 63.375 269.225 63.2383 270.025 63.2383C270.826 63.2383 271.539 63.375 272.164 63.6484C272.789 63.9154 273.313 64.2897 273.736 64.7715C274.166 65.2533 274.492 65.8229 274.713 66.4805C274.934 67.1315 275.045 67.8444 275.045 68.6191V68.8242C275.045 69.5924 274.934 70.3053 274.713 70.9629C274.492 71.6139 274.166 72.1836 273.736 72.6719C273.313 73.1536 272.792 73.528 272.174 73.7949C271.555 74.0618 270.846 74.1953 270.045 74.1953C269.244 74.1953 268.531 74.0618 267.906 73.7949C267.288 73.528 266.764 73.1536 266.334 72.6719C265.911 72.1836 265.589 71.6139 265.367 70.9629C265.146 70.3053 265.035 69.5924 265.035 68.8242ZM267.848 68.6191V68.8242C267.848 69.2669 267.887 69.6803 267.965 70.0645C268.043 70.4486 268.167 70.7871 268.336 71.0801C268.512 71.3665 268.74 71.5911 269.02 71.7539C269.299 71.9167 269.641 71.998 270.045 71.998C270.436 71.998 270.771 71.9167 271.051 71.7539C271.331 71.5911 271.555 71.3665 271.725 71.0801C271.894 70.7871 272.018 70.4486 272.096 70.0645C272.18 69.6803 272.223 69.2669 272.223 68.8242V68.6191C272.223 68.1895 272.18 67.7858 272.096 67.4082C272.018 67.0241 271.891 66.6855 271.715 66.3926C271.546 66.0931 271.321 65.8587 271.041 65.6895C270.761 65.5202 270.423 65.4355 270.025 65.4355C269.628 65.4355 269.29 65.5202 269.01 65.6895C268.736 65.8587 268.512 66.0931 268.336 66.3926C268.167 66.6855 268.043 67.0241 267.965 67.4082C267.887 67.7858 267.848 68.1895 267.848 68.6191ZM281.949 63.4336V65.4258H275.797V63.4336H281.949ZM277.32 60.8262H280.133V70.8164C280.133 71.1224 280.172 71.3568 280.25 71.5195C280.335 71.6823 280.458 71.7962 280.621 71.8613C280.784 71.9199 280.989 71.9492 281.236 71.9492C281.412 71.9492 281.568 71.9427 281.705 71.9297C281.848 71.9102 281.969 71.8906 282.066 71.8711L282.076 73.9414C281.835 74.0195 281.575 74.0814 281.295 74.127C281.015 74.1725 280.706 74.1953 280.367 74.1953C279.749 74.1953 279.208 74.0944 278.746 73.8926C278.29 73.6842 277.939 73.3522 277.691 72.8965C277.444 72.4408 277.32 71.8418 277.32 71.0996V60.8262ZM294.273 67.7598H290.621L290.602 65.748H293.668C294.208 65.748 294.651 65.6797 294.996 65.543C295.341 65.3997 295.598 65.1947 295.768 64.9277C295.943 64.6543 296.031 64.3223 296.031 63.9316C296.031 63.4889 295.947 63.1309 295.777 62.8574C295.615 62.584 295.357 62.3854 295.006 62.2617C294.661 62.138 294.215 62.0762 293.668 62.0762H291.637V74H288.707V59.7812H293.668C294.495 59.7812 295.234 59.8594 295.885 60.0156C296.542 60.1719 297.099 60.4095 297.555 60.7285C298.01 61.0475 298.359 61.4512 298.6 61.9395C298.84 62.4212 298.961 62.9941 298.961 63.6582C298.961 64.2441 298.827 64.7845 298.561 65.2793C298.3 65.7741 297.887 66.1777 297.32 66.4902C296.76 66.8027 296.028 66.9753 295.123 67.0078L294.273 67.7598ZM294.146 74H289.82L290.963 71.7148H294.146C294.661 71.7148 295.081 71.6335 295.406 71.4707C295.732 71.3014 295.973 71.0736 296.129 70.7871C296.285 70.5007 296.363 70.1719 296.363 69.8008C296.363 69.3841 296.292 69.0228 296.148 68.7168C296.012 68.4108 295.79 68.1764 295.484 68.0137C295.178 67.8444 294.775 67.7598 294.273 67.7598H291.451L291.471 65.748H294.986L295.66 66.5391C296.526 66.526 297.223 66.679 297.75 66.998C298.284 67.3105 298.671 67.7174 298.912 68.2188C299.16 68.7201 299.283 69.2572 299.283 69.8301C299.283 70.7415 299.085 71.5098 298.688 72.1348C298.29 72.7533 297.708 73.2188 296.939 73.5312C296.178 73.8438 295.247 74 294.146 74ZM300.855 68.8242V68.6191C300.855 67.8444 300.966 67.1315 301.188 66.4805C301.409 65.8229 301.731 65.2533 302.154 64.7715C302.577 64.2897 303.098 63.9154 303.717 63.6484C304.335 63.375 305.045 63.2383 305.846 63.2383C306.646 63.2383 307.359 63.375 307.984 63.6484C308.609 63.9154 309.133 64.2897 309.557 64.7715C309.986 65.2533 310.312 65.8229 310.533 66.4805C310.755 67.1315 310.865 67.8444 310.865 68.6191V68.8242C310.865 69.5924 310.755 70.3053 310.533 70.9629C310.312 71.6139 309.986 72.1836 309.557 72.6719C309.133 73.1536 308.613 73.528 307.994 73.7949C307.376 74.0618 306.666 74.1953 305.865 74.1953C305.064 74.1953 304.352 74.0618 303.727 73.7949C303.108 73.528 302.584 73.1536 302.154 72.6719C301.731 72.1836 301.409 71.6139 301.188 70.9629C300.966 70.3053 300.855 69.5924 300.855 68.8242ZM303.668 68.6191V68.8242C303.668 69.2669 303.707 69.6803 303.785 70.0645C303.863 70.4486 303.987 70.7871 304.156 71.0801C304.332 71.3665 304.56 71.5911 304.84 71.7539C305.12 71.9167 305.462 71.998 305.865 71.998C306.256 71.998 306.591 71.9167 306.871 71.7539C307.151 71.5911 307.376 71.3665 307.545 71.0801C307.714 70.7871 307.838 70.4486 307.916 70.0645C308.001 69.6803 308.043 69.2669 308.043 68.8242V68.6191C308.043 68.1895 308.001 67.7858 307.916 67.4082C307.838 67.0241 307.711 66.6855 307.535 66.3926C307.366 66.0931 307.141 65.8587 306.861 65.6895C306.581 65.5202 306.243 65.4355 305.846 65.4355C305.449 65.4355 305.11 65.5202 304.83 65.6895C304.557 65.8587 304.332 66.0931 304.156 66.3926C303.987 66.6855 303.863 67.0241 303.785 67.4082C303.707 67.7858 303.668 68.1895 303.668 68.6191ZM312.145 68.8242V68.6191C312.145 67.8444 312.255 67.1315 312.477 66.4805C312.698 65.8229 313.02 65.2533 313.443 64.7715C313.867 64.2897 314.387 63.9154 315.006 63.6484C315.624 63.375 316.334 63.2383 317.135 63.2383C317.936 63.2383 318.648 63.375 319.273 63.6484C319.898 63.9154 320.423 64.2897 320.846 64.7715C321.275 65.2533 321.601 65.8229 321.822 66.4805C322.044 67.1315 322.154 67.8444 322.154 68.6191V68.8242C322.154 69.5924 322.044 70.3053 321.822 70.9629C321.601 71.6139 321.275 72.1836 320.846 72.6719C320.423 73.1536 319.902 73.528 319.283 73.7949C318.665 74.0618 317.955 74.1953 317.154 74.1953C316.354 74.1953 315.641 74.0618 315.016 73.7949C314.397 73.528 313.873 73.1536 313.443 72.6719C313.02 72.1836 312.698 71.6139 312.477 70.9629C312.255 70.3053 312.145 69.5924 312.145 68.8242ZM314.957 68.6191V68.8242C314.957 69.2669 314.996 69.6803 315.074 70.0645C315.152 70.4486 315.276 70.7871 315.445 71.0801C315.621 71.3665 315.849 71.5911 316.129 71.7539C316.409 71.9167 316.751 71.998 317.154 71.998C317.545 71.998 317.88 71.9167 318.16 71.7539C318.44 71.5911 318.665 71.3665 318.834 71.0801C319.003 70.7871 319.127 70.4486 319.205 70.0645C319.29 69.6803 319.332 69.2669 319.332 68.8242V68.6191C319.332 68.1895 319.29 67.7858 319.205 67.4082C319.127 67.0241 319 66.6855 318.824 66.3926C318.655 66.0931 318.43 65.8587 318.15 65.6895C317.87 65.5202 317.532 65.4355 317.135 65.4355C316.738 65.4355 316.399 65.5202 316.119 65.6895C315.846 65.8587 315.621 66.0931 315.445 66.3926C315.276 66.6855 315.152 67.0241 315.074 67.4082C314.996 67.7858 314.957 68.1895 314.957 68.6191ZM326.695 58.9902V74H323.883V58.9902H326.695ZM333.355 63.4336L328.766 68.668L326.305 71.1582L325.279 69.127L327.232 66.6465L329.977 63.4336H333.355ZM330.436 74L327.311 69.1172L329.254 67.418L333.678 74H330.436Z" fill="#140C09"/>
<path d="M111.119 266.703V281H109.312V268.959L105.67 270.287V268.656L110.836 266.703H111.119ZM125.748 279.516V281H116.441V279.701L121.1 274.516C121.673 273.878 122.115 273.337 122.428 272.895C122.747 272.445 122.968 272.045 123.092 271.693C123.222 271.335 123.287 270.971 123.287 270.6C123.287 270.131 123.189 269.708 122.994 269.33C122.805 268.946 122.525 268.64 122.154 268.412C121.783 268.184 121.334 268.07 120.807 268.07C120.175 268.07 119.648 268.194 119.225 268.441C118.808 268.682 118.495 269.021 118.287 269.457C118.079 269.893 117.975 270.395 117.975 270.961H116.168C116.168 270.16 116.344 269.428 116.695 268.764C117.047 268.1 117.568 267.572 118.258 267.182C118.948 266.785 119.798 266.586 120.807 266.586C121.705 266.586 122.473 266.745 123.111 267.064C123.749 267.377 124.238 267.82 124.576 268.393C124.921 268.959 125.094 269.623 125.094 270.385C125.094 270.801 125.022 271.225 124.879 271.654C124.742 272.077 124.55 272.501 124.303 272.924C124.062 273.347 123.779 273.764 123.453 274.174C123.134 274.584 122.792 274.988 122.428 275.385L118.619 279.516H125.748ZM127.799 280.043C127.799 279.737 127.893 279.48 128.082 279.271C128.277 279.057 128.557 278.949 128.922 278.949C129.286 278.949 129.563 279.057 129.752 279.271C129.947 279.48 130.045 279.737 130.045 280.043C130.045 280.342 129.947 280.596 129.752 280.805C129.563 281.013 129.286 281.117 128.922 281.117C128.557 281.117 128.277 281.013 128.082 280.805C127.893 280.596 127.799 280.342 127.799 280.043ZM127.809 271.42C127.809 271.114 127.903 270.857 128.092 270.648C128.287 270.434 128.567 270.326 128.932 270.326C129.296 270.326 129.573 270.434 129.762 270.648C129.957 270.857 130.055 271.114 130.055 271.42C130.055 271.719 129.957 271.973 129.762 272.182C129.573 272.39 129.296 272.494 128.932 272.494C128.567 272.494 128.287 272.39 128.092 272.182C127.903 271.973 127.809 271.719 127.809 271.42ZM141.451 272.758V274.926C141.451 276.091 141.347 277.074 141.139 277.875C140.93 278.676 140.631 279.32 140.24 279.809C139.85 280.297 139.378 280.652 138.824 280.873C138.277 281.088 137.659 281.195 136.969 281.195C136.422 281.195 135.917 281.127 135.455 280.99C134.993 280.854 134.576 280.635 134.205 280.336C133.84 280.03 133.528 279.633 133.268 279.145C133.007 278.656 132.809 278.064 132.672 277.367C132.535 276.671 132.467 275.857 132.467 274.926V272.758C132.467 271.592 132.571 270.616 132.779 269.828C132.994 269.04 133.297 268.409 133.688 267.934C134.078 267.452 134.547 267.107 135.094 266.898C135.647 266.69 136.266 266.586 136.949 266.586C137.503 266.586 138.01 266.654 138.473 266.791C138.941 266.921 139.358 267.133 139.723 267.426C140.087 267.712 140.396 268.096 140.65 268.578C140.911 269.053 141.109 269.636 141.246 270.326C141.383 271.016 141.451 271.827 141.451 272.758ZM139.635 275.219V272.455C139.635 271.817 139.596 271.257 139.518 270.775C139.446 270.287 139.339 269.87 139.195 269.525C139.052 269.18 138.87 268.9 138.648 268.686C138.434 268.471 138.183 268.314 137.896 268.217C137.617 268.113 137.301 268.061 136.949 268.061C136.52 268.061 136.139 268.142 135.807 268.305C135.475 268.461 135.195 268.712 134.967 269.057C134.745 269.402 134.576 269.854 134.459 270.414C134.342 270.974 134.283 271.654 134.283 272.455V275.219C134.283 275.857 134.319 276.42 134.391 276.908C134.469 277.396 134.583 277.82 134.732 278.178C134.882 278.529 135.064 278.819 135.279 279.047C135.494 279.275 135.742 279.444 136.021 279.555C136.308 279.659 136.624 279.711 136.969 279.711C137.411 279.711 137.799 279.626 138.131 279.457C138.463 279.288 138.74 279.024 138.961 278.666C139.189 278.301 139.358 277.836 139.469 277.27C139.579 276.697 139.635 276.013 139.635 275.219ZM152.701 272.758V274.926C152.701 276.091 152.597 277.074 152.389 277.875C152.18 278.676 151.881 279.32 151.49 279.809C151.1 280.297 150.628 280.652 150.074 280.873C149.527 281.088 148.909 281.195 148.219 281.195C147.672 281.195 147.167 281.127 146.705 280.99C146.243 280.854 145.826 280.635 145.455 280.336C145.09 280.03 144.778 279.633 144.518 279.145C144.257 278.656 144.059 278.064 143.922 277.367C143.785 276.671 143.717 275.857 143.717 274.926V272.758C143.717 271.592 143.821 270.616 144.029 269.828C144.244 269.04 144.547 268.409 144.938 267.934C145.328 267.452 145.797 267.107 146.344 266.898C146.897 266.69 147.516 266.586 148.199 266.586C148.753 266.586 149.26 266.654 149.723 266.791C150.191 266.921 150.608 267.133 150.973 267.426C151.337 267.712 151.646 268.096 151.9 268.578C152.161 269.053 152.359 269.636 152.496 270.326C152.633 271.016 152.701 271.827 152.701 272.758ZM150.885 275.219V272.455C150.885 271.817 150.846 271.257 150.768 270.775C150.696 270.287 150.589 269.87 150.445 269.525C150.302 269.18 150.12 268.9 149.898 268.686C149.684 268.471 149.433 268.314 149.146 268.217C148.867 268.113 148.551 268.061 148.199 268.061C147.77 268.061 147.389 268.142 147.057 268.305C146.725 268.461 146.445 268.712 146.217 269.057C145.995 269.402 145.826 269.854 145.709 270.414C145.592 270.974 145.533 271.654 145.533 272.455V275.219C145.533 275.857 145.569 276.42 145.641 276.908C145.719 277.396 145.833 277.82 145.982 278.178C146.132 278.529 146.314 278.819 146.529 279.047C146.744 279.275 146.992 279.444 147.271 279.555C147.558 279.659 147.874 279.711 148.219 279.711C148.661 279.711 149.049 279.626 149.381 279.457C149.713 279.288 149.99 279.024 150.211 278.666C150.439 278.301 150.608 277.836 150.719 277.27C150.829 276.697 150.885 276.013 150.885 275.219ZM163.941 274.213V275.697H159.176V274.213H163.941ZM176.412 266.703V281H174.605V268.959L170.963 270.287V268.656L176.129 266.703H176.412ZM181.842 280.043C181.842 279.737 181.936 279.48 182.125 279.271C182.32 279.057 182.6 278.949 182.965 278.949C183.329 278.949 183.606 279.057 183.795 279.271C183.99 279.48 184.088 279.737 184.088 280.043C184.088 280.342 183.99 280.596 183.795 280.805C183.606 281.013 183.329 281.117 182.965 281.117C182.6 281.117 182.32 281.013 182.125 280.805C181.936 280.596 181.842 280.342 181.842 280.043ZM181.852 271.42C181.852 271.114 181.946 270.857 182.135 270.648C182.33 270.434 182.61 270.326 182.975 270.326C183.339 270.326 183.616 270.434 183.805 270.648C184 270.857 184.098 271.114 184.098 271.42C184.098 271.719 184 271.973 183.805 272.182C183.616 272.39 183.339 272.494 182.975 272.494C182.61 272.494 182.33 272.39 182.135 272.182C181.946 271.973 181.852 271.719 181.852 271.42ZM195.494 272.758V274.926C195.494 276.091 195.39 277.074 195.182 277.875C194.973 278.676 194.674 279.32 194.283 279.809C193.893 280.297 193.421 280.652 192.867 280.873C192.32 281.088 191.702 281.195 191.012 281.195C190.465 281.195 189.96 281.127 189.498 280.99C189.036 280.854 188.619 280.635 188.248 280.336C187.883 280.03 187.571 279.633 187.311 279.145C187.05 278.656 186.852 278.064 186.715 277.367C186.578 276.671 186.51 275.857 186.51 274.926V272.758C186.51 271.592 186.614 270.616 186.822 269.828C187.037 269.04 187.34 268.409 187.73 267.934C188.121 267.452 188.59 267.107 189.137 266.898C189.69 266.69 190.309 266.586 190.992 266.586C191.546 266.586 192.053 266.654 192.516 266.791C192.984 266.921 193.401 267.133 193.766 267.426C194.13 267.712 194.439 268.096 194.693 268.578C194.954 269.053 195.152 269.636 195.289 270.326C195.426 271.016 195.494 271.827 195.494 272.758ZM193.678 275.219V272.455C193.678 271.817 193.639 271.257 193.561 270.775C193.489 270.287 193.382 269.87 193.238 269.525C193.095 269.18 192.913 268.9 192.691 268.686C192.477 268.471 192.226 268.314 191.939 268.217C191.66 268.113 191.344 268.061 190.992 268.061C190.562 268.061 190.182 268.142 189.85 268.305C189.518 268.461 189.238 268.712 189.01 269.057C188.788 269.402 188.619 269.854 188.502 270.414C188.385 270.974 188.326 271.654 188.326 272.455V275.219C188.326 275.857 188.362 276.42 188.434 276.908C188.512 277.396 188.626 277.82 188.775 278.178C188.925 278.529 189.107 278.819 189.322 279.047C189.537 279.275 189.785 279.444 190.064 279.555C190.351 279.659 190.667 279.711 191.012 279.711C191.454 279.711 191.842 279.626 192.174 279.457C192.506 279.288 192.783 279.024 193.004 278.666C193.232 278.301 193.401 277.836 193.512 277.27C193.622 276.697 193.678 276.013 193.678 275.219ZM206.744 272.758V274.926C206.744 276.091 206.64 277.074 206.432 277.875C206.223 278.676 205.924 279.32 205.533 279.809C205.143 280.297 204.671 280.652 204.117 280.873C203.57 281.088 202.952 281.195 202.262 281.195C201.715 281.195 201.21 281.127 200.748 280.99C200.286 280.854 199.869 280.635 199.498 280.336C199.133 280.03 198.821 279.633 198.561 279.145C198.3 278.656 198.102 278.064 197.965 277.367C197.828 276.671 197.76 275.857 197.76 274.926V272.758C197.76 271.592 197.864 270.616 198.072 269.828C198.287 269.04 198.59 268.409 198.98 267.934C199.371 267.452 199.84 267.107 200.387 266.898C200.94 266.69 201.559 266.586 202.242 266.586C202.796 266.586 203.303 266.654 203.766 266.791C204.234 266.921 204.651 267.133 205.016 267.426C205.38 267.712 205.689 268.096 205.943 268.578C206.204 269.053 206.402 269.636 206.539 270.326C206.676 271.016 206.744 271.827 206.744 272.758ZM204.928 275.219V272.455C204.928 271.817 204.889 271.257 204.811 270.775C204.739 270.287 204.632 269.87 204.488 269.525C204.345 269.18 204.163 268.9 203.941 268.686C203.727 268.471 203.476 268.314 203.189 268.217C202.91 268.113 202.594 268.061 202.242 268.061C201.812 268.061 201.432 268.142 201.1 268.305C200.768 268.461 200.488 268.712 200.26 269.057C200.038 269.402 199.869 269.854 199.752 270.414C199.635 270.974 199.576 271.654 199.576 272.455V275.219C199.576 275.857 199.612 276.42 199.684 276.908C199.762 277.396 199.876 277.82 200.025 278.178C200.175 278.529 200.357 278.819 200.572 279.047C200.787 279.275 201.035 279.444 201.314 279.555C201.601 279.659 201.917 279.711 202.262 279.711C202.704 279.711 203.092 279.626 203.424 279.457C203.756 279.288 204.033 279.024 204.254 278.666C204.482 278.301 204.651 277.836 204.762 277.27C204.872 276.697 204.928 276.013 204.928 275.219Z" fill="#131004"/>
<path d="M112.994 313.891L116.842 316.938L114.996 318.539L111.207 315.492L112.994 313.891ZM116.939 308.559V309.232C116.939 310.313 116.793 311.283 116.5 312.143C116.214 313.002 115.8 313.734 115.26 314.34C114.719 314.939 114.081 315.398 113.346 315.717C112.61 316.036 111.793 316.195 110.895 316.195C110.003 316.195 109.186 316.036 108.443 315.717C107.701 315.398 107.06 314.939 106.52 314.34C105.979 313.734 105.559 313.002 105.26 312.143C104.967 311.283 104.82 310.313 104.82 309.232V308.559C104.82 307.471 104.967 306.501 105.26 305.648C105.559 304.789 105.976 304.057 106.51 303.451C107.044 302.846 107.682 302.383 108.424 302.064C109.166 301.745 109.983 301.586 110.875 301.586C111.773 301.586 112.59 301.745 113.326 302.064C114.068 302.383 114.71 302.846 115.25 303.451C115.79 304.057 116.207 304.789 116.5 305.648C116.793 306.501 116.939 307.471 116.939 308.559ZM113.98 309.232V308.539C113.98 307.784 113.909 307.12 113.766 306.547C113.629 305.974 113.427 305.492 113.16 305.102C112.9 304.711 112.577 304.418 112.193 304.223C111.809 304.021 111.37 303.92 110.875 303.92C110.38 303.92 109.941 304.021 109.557 304.223C109.173 304.418 108.85 304.711 108.59 305.102C108.329 305.492 108.131 305.974 107.994 306.547C107.857 307.12 107.789 307.784 107.789 308.539V309.232C107.789 309.981 107.857 310.645 107.994 311.225C108.131 311.798 108.329 312.283 108.59 312.68C108.857 313.07 109.182 313.367 109.566 313.568C109.957 313.77 110.4 313.871 110.895 313.871C111.389 313.871 111.826 313.77 112.203 313.568C112.587 313.367 112.91 313.07 113.17 312.68C113.437 312.283 113.639 311.798 113.775 311.225C113.912 310.645 113.98 309.981 113.98 309.232ZM125.621 301.752V316H122.809V304.994L119.43 306.068V303.852L125.318 301.752H125.621ZM138.16 307.738V316H135.348V305.434H137.994L138.16 307.738ZM141.344 305.365L141.295 307.973C141.158 307.953 140.992 307.937 140.797 307.924C140.608 307.904 140.436 307.895 140.279 307.895C139.882 307.895 139.537 307.947 139.244 308.051C138.958 308.148 138.717 308.295 138.521 308.49C138.333 308.686 138.189 308.923 138.092 309.203C138.001 309.483 137.949 309.802 137.936 310.16L137.369 309.984C137.369 309.301 137.438 308.673 137.574 308.1C137.711 307.52 137.91 307.016 138.17 306.586C138.437 306.156 138.762 305.824 139.146 305.59C139.531 305.355 139.97 305.238 140.465 305.238C140.621 305.238 140.781 305.251 140.943 305.277C141.106 305.297 141.24 305.326 141.344 305.365ZM147.34 316.195C146.52 316.195 145.784 316.065 145.133 315.805C144.482 315.538 143.928 315.17 143.473 314.701C143.023 314.232 142.678 313.689 142.438 313.07C142.197 312.445 142.076 311.781 142.076 311.078V310.688C142.076 309.887 142.19 309.154 142.418 308.49C142.646 307.826 142.971 307.25 143.395 306.762C143.824 306.273 144.345 305.899 144.957 305.639C145.569 305.372 146.259 305.238 147.027 305.238C147.776 305.238 148.44 305.362 149.02 305.609C149.599 305.857 150.084 306.208 150.475 306.664C150.872 307.12 151.171 307.667 151.373 308.305C151.575 308.936 151.676 309.639 151.676 310.414V311.586H143.277V309.711H148.912V309.496C148.912 309.105 148.84 308.757 148.697 308.451C148.561 308.139 148.352 307.891 148.072 307.709C147.792 307.527 147.434 307.436 146.998 307.436C146.627 307.436 146.308 307.517 146.041 307.68C145.774 307.842 145.556 308.07 145.387 308.363C145.224 308.656 145.1 309.001 145.016 309.398C144.938 309.789 144.898 310.219 144.898 310.688V311.078C144.898 311.501 144.957 311.892 145.074 312.25C145.198 312.608 145.37 312.917 145.592 313.178C145.82 313.438 146.093 313.64 146.412 313.783C146.738 313.926 147.105 313.998 147.516 313.998C148.023 313.998 148.495 313.9 148.932 313.705C149.374 313.503 149.755 313.201 150.074 312.797L151.441 314.281C151.22 314.6 150.917 314.906 150.533 315.199C150.156 315.492 149.7 315.733 149.166 315.922C148.632 316.104 148.023 316.195 147.34 316.195ZM156.734 313.949L159.078 305.434H162.018L158.453 316H156.676L156.734 313.949ZM155.123 305.434L157.477 313.959L157.525 316H155.738L152.174 305.434H155.123ZM166.246 305.434V316H163.424V305.434H166.246ZM163.248 302.68C163.248 302.27 163.391 301.931 163.678 301.664C163.964 301.397 164.348 301.264 164.83 301.264C165.305 301.264 165.686 301.397 165.973 301.664C166.266 301.931 166.412 302.27 166.412 302.68C166.412 303.09 166.266 303.428 165.973 303.695C165.686 303.962 165.305 304.096 164.83 304.096C164.348 304.096 163.964 303.962 163.678 303.695C163.391 303.428 163.248 303.09 163.248 302.68ZM173.434 316.195C172.613 316.195 171.878 316.065 171.227 315.805C170.576 315.538 170.022 315.17 169.566 314.701C169.117 314.232 168.772 313.689 168.531 313.07C168.29 312.445 168.17 311.781 168.17 311.078V310.688C168.17 309.887 168.284 309.154 168.512 308.49C168.74 307.826 169.065 307.25 169.488 306.762C169.918 306.273 170.439 305.899 171.051 305.639C171.663 305.372 172.353 305.238 173.121 305.238C173.87 305.238 174.534 305.362 175.113 305.609C175.693 305.857 176.178 306.208 176.568 306.664C176.965 307.12 177.265 307.667 177.467 308.305C177.669 308.936 177.77 309.639 177.77 310.414V311.586H169.371V309.711H175.006V309.496C175.006 309.105 174.934 308.757 174.791 308.451C174.654 308.139 174.446 307.891 174.166 307.709C173.886 307.527 173.528 307.436 173.092 307.436C172.721 307.436 172.402 307.517 172.135 307.68C171.868 307.842 171.65 308.07 171.48 308.363C171.318 308.656 171.194 309.001 171.109 309.398C171.031 309.789 170.992 310.219 170.992 310.688V311.078C170.992 311.501 171.051 311.892 171.168 312.25C171.292 312.608 171.464 312.917 171.686 313.178C171.913 313.438 172.187 313.64 172.506 313.783C172.831 313.926 173.199 313.998 173.609 313.998C174.117 313.998 174.589 313.9 175.025 313.705C175.468 313.503 175.849 313.201 176.168 312.797L177.535 314.281C177.314 314.6 177.011 314.906 176.627 315.199C176.249 315.492 175.794 315.733 175.26 315.922C174.726 316.104 174.117 316.195 173.434 316.195ZM182.389 313.266L184.586 305.434H186.373L185.797 308.51L183.6 316H182.105L182.389 313.266ZM181.275 305.434L182.848 313.256L182.994 316H181.236L178.561 305.434H181.275ZM188.385 313.129L189.918 305.434H192.643L189.967 316H188.219L188.385 313.129ZM186.617 305.434L188.805 313.207L189.107 316H187.604L185.406 308.52L184.85 305.434H186.617ZM202.057 313.266L204.254 305.434H206.041L205.465 308.51L203.268 316H201.773L202.057 313.266ZM200.943 305.434L202.516 313.256L202.662 316H200.904L198.229 305.434H200.943ZM208.053 313.129L209.586 305.434H212.311L209.635 316H207.887L208.053 313.129ZM206.285 305.434L208.473 313.207L208.775 316H207.271L205.074 308.52L204.518 305.434H206.285ZM216.695 305.434V316H213.873V305.434H216.695ZM213.697 302.68C213.697 302.27 213.84 301.931 214.127 301.664C214.413 301.397 214.798 301.264 215.279 301.264C215.755 301.264 216.135 301.397 216.422 301.664C216.715 301.931 216.861 302.27 216.861 302.68C216.861 303.09 216.715 303.428 216.422 303.695C216.135 303.962 215.755 304.096 215.279 304.096C214.798 304.096 214.413 303.962 214.127 303.695C213.84 303.428 213.697 303.09 213.697 302.68ZM224.195 305.434V307.426H218.043V305.434H224.195ZM219.566 302.826H222.379V312.816C222.379 313.122 222.418 313.357 222.496 313.52C222.581 313.682 222.704 313.796 222.867 313.861C223.03 313.92 223.235 313.949 223.482 313.949C223.658 313.949 223.814 313.943 223.951 313.93C224.094 313.91 224.215 313.891 224.312 313.871L224.322 315.941C224.081 316.02 223.821 316.081 223.541 316.127C223.261 316.173 222.952 316.195 222.613 316.195C221.995 316.195 221.454 316.094 220.992 315.893C220.536 315.684 220.185 315.352 219.938 314.896C219.69 314.441 219.566 313.842 219.566 313.1V302.826ZM228.541 301V316H225.729V301H228.541ZM228.141 310.346H227.369C227.376 309.61 227.473 308.933 227.662 308.314C227.851 307.689 228.121 307.149 228.473 306.693C228.824 306.231 229.244 305.873 229.732 305.619C230.227 305.365 230.774 305.238 231.373 305.238C231.894 305.238 232.366 305.313 232.789 305.463C233.219 305.606 233.587 305.84 233.893 306.166C234.205 306.485 234.446 306.905 234.615 307.426C234.785 307.947 234.869 308.578 234.869 309.32V316H232.037V309.301C232.037 308.832 231.969 308.464 231.832 308.197C231.702 307.924 231.51 307.732 231.256 307.621C231.008 307.504 230.702 307.445 230.338 307.445C229.934 307.445 229.589 307.52 229.303 307.67C229.023 307.82 228.798 308.028 228.629 308.295C228.46 308.555 228.336 308.861 228.258 309.213C228.18 309.564 228.141 309.942 228.141 310.346ZM247.994 301.781V316H245.074V301.781H247.994ZM252.369 301.781V304.076H240.768V301.781H252.369ZM257.809 316.195C256.988 316.195 256.253 316.065 255.602 315.805C254.951 315.538 254.397 315.17 253.941 314.701C253.492 314.232 253.147 313.689 252.906 313.07C252.665 312.445 252.545 311.781 252.545 311.078V310.688C252.545 309.887 252.659 309.154 252.887 308.49C253.115 307.826 253.44 307.25 253.863 306.762C254.293 306.273 254.814 305.899 255.426 305.639C256.038 305.372 256.728 305.238 257.496 305.238C258.245 305.238 258.909 305.362 259.488 305.609C260.068 305.857 260.553 306.208 260.943 306.664C261.34 307.12 261.64 307.667 261.842 308.305C262.044 308.936 262.145 309.639 262.145 310.414V311.586H253.746V309.711H259.381V309.496C259.381 309.105 259.309 308.757 259.166 308.451C259.029 308.139 258.821 307.891 258.541 307.709C258.261 307.527 257.903 307.436 257.467 307.436C257.096 307.436 256.777 307.517 256.51 307.68C256.243 307.842 256.025 308.07 255.855 308.363C255.693 308.656 255.569 309.001 255.484 309.398C255.406 309.789 255.367 310.219 255.367 310.688V311.078C255.367 311.501 255.426 311.892 255.543 312.25C255.667 312.608 255.839 312.917 256.061 313.178C256.288 313.438 256.562 313.64 256.881 313.783C257.206 313.926 257.574 313.998 257.984 313.998C258.492 313.998 258.964 313.9 259.4 313.705C259.843 313.503 260.224 313.201 260.543 312.797L261.91 314.281C261.689 314.6 261.386 314.906 261.002 315.199C260.624 315.492 260.169 315.733 259.635 315.922C259.101 316.104 258.492 316.195 257.809 316.195ZM269.449 313.617V308.91C269.449 308.572 269.394 308.282 269.283 308.041C269.173 307.794 269 307.602 268.766 307.465C268.538 307.328 268.242 307.26 267.877 307.26C267.564 307.26 267.294 307.315 267.066 307.426C266.839 307.53 266.663 307.683 266.539 307.885C266.415 308.08 266.354 308.311 266.354 308.578H263.541C263.541 308.129 263.645 307.702 263.854 307.299C264.062 306.895 264.365 306.54 264.762 306.234C265.159 305.922 265.631 305.678 266.178 305.502C266.731 305.326 267.35 305.238 268.033 305.238C268.854 305.238 269.583 305.375 270.221 305.648C270.859 305.922 271.36 306.332 271.725 306.879C272.096 307.426 272.281 308.109 272.281 308.93V313.451C272.281 314.031 272.317 314.506 272.389 314.877C272.46 315.242 272.564 315.561 272.701 315.834V316H269.859C269.723 315.714 269.618 315.355 269.547 314.926C269.482 314.49 269.449 314.053 269.449 313.617ZM269.82 309.564L269.84 311.156H268.268C267.896 311.156 267.574 311.199 267.301 311.283C267.027 311.368 266.803 311.488 266.627 311.645C266.451 311.794 266.321 311.97 266.236 312.172C266.158 312.374 266.119 312.595 266.119 312.836C266.119 313.077 266.174 313.295 266.285 313.49C266.396 313.679 266.555 313.829 266.764 313.939C266.972 314.044 267.216 314.096 267.496 314.096C267.919 314.096 268.287 314.011 268.6 313.842C268.912 313.673 269.153 313.464 269.322 313.217C269.498 312.969 269.589 312.735 269.596 312.514L270.338 313.705C270.234 313.972 270.09 314.249 269.908 314.535C269.732 314.822 269.508 315.092 269.234 315.346C268.961 315.593 268.632 315.798 268.248 315.961C267.864 316.117 267.408 316.195 266.881 316.195C266.21 316.195 265.602 316.062 265.055 315.795C264.514 315.521 264.085 315.147 263.766 314.672C263.453 314.19 263.297 313.643 263.297 313.031C263.297 312.478 263.401 311.986 263.609 311.557C263.818 311.127 264.124 310.766 264.527 310.473C264.938 310.173 265.449 309.949 266.061 309.799C266.673 309.643 267.382 309.564 268.189 309.564H269.82ZM277.262 307.621V316H274.439V305.434H277.086L277.262 307.621ZM276.871 310.346H276.09C276.09 309.61 276.178 308.933 276.354 308.314C276.536 307.689 276.799 307.149 277.145 306.693C277.496 306.231 277.929 305.873 278.443 305.619C278.958 305.365 279.553 305.238 280.23 305.238C280.699 305.238 281.129 305.31 281.52 305.453C281.91 305.59 282.245 305.808 282.525 306.107C282.812 306.4 283.033 306.785 283.189 307.26C283.346 307.729 283.424 308.292 283.424 308.949V316H280.611V309.262C280.611 308.78 280.546 308.409 280.416 308.148C280.286 307.888 280.1 307.706 279.859 307.602C279.625 307.497 279.342 307.445 279.01 307.445C278.645 307.445 278.326 307.52 278.053 307.67C277.786 307.82 277.564 308.028 277.389 308.295C277.213 308.555 277.083 308.861 276.998 309.213C276.913 309.564 276.871 309.942 276.871 310.346ZM283.16 310.023L282.154 310.15C282.154 309.46 282.239 308.819 282.408 308.227C282.584 307.634 282.841 307.113 283.18 306.664C283.525 306.215 283.951 305.867 284.459 305.619C284.967 305.365 285.553 305.238 286.217 305.238C286.725 305.238 287.187 305.313 287.604 305.463C288.02 305.606 288.375 305.837 288.668 306.156C288.967 306.469 289.195 306.879 289.352 307.387C289.514 307.895 289.596 308.516 289.596 309.252V316H286.773V309.252C286.773 308.764 286.708 308.393 286.578 308.139C286.454 307.878 286.272 307.699 286.031 307.602C285.797 307.497 285.517 307.445 285.191 307.445C284.853 307.445 284.557 307.514 284.303 307.65C284.049 307.781 283.837 307.963 283.668 308.197C283.499 308.432 283.372 308.705 283.287 309.018C283.202 309.324 283.16 309.659 283.16 310.023ZM302.467 310.932H298.844V308.646H302.467C303.027 308.646 303.482 308.555 303.834 308.373C304.186 308.184 304.443 307.924 304.605 307.592C304.768 307.26 304.85 306.885 304.85 306.469C304.85 306.046 304.768 305.652 304.605 305.287C304.443 304.923 304.186 304.63 303.834 304.408C303.482 304.187 303.027 304.076 302.467 304.076H299.859V316H296.93V301.781H302.467C303.58 301.781 304.534 301.983 305.328 302.387C306.129 302.784 306.741 303.334 307.164 304.037C307.587 304.74 307.799 305.544 307.799 306.449C307.799 307.367 307.587 308.161 307.164 308.832C306.741 309.503 306.129 310.02 305.328 310.385C304.534 310.749 303.58 310.932 302.467 310.932ZM312.389 301V316H309.576V301H312.389ZM311.988 310.346H311.217C311.223 309.61 311.321 308.933 311.51 308.314C311.699 307.689 311.969 307.149 312.32 306.693C312.672 306.231 313.092 305.873 313.58 305.619C314.075 305.365 314.622 305.238 315.221 305.238C315.742 305.238 316.214 305.313 316.637 305.463C317.066 305.606 317.434 305.84 317.74 306.166C318.053 306.485 318.294 306.905 318.463 307.426C318.632 307.947 318.717 308.578 318.717 309.32V316H315.885V309.301C315.885 308.832 315.816 308.464 315.68 308.197C315.549 307.924 315.357 307.732 315.104 307.621C314.856 307.504 314.55 307.445 314.186 307.445C313.782 307.445 313.437 307.52 313.15 307.67C312.87 307.82 312.646 308.028 312.477 308.295C312.307 308.555 312.184 308.861 312.105 309.213C312.027 309.564 311.988 309.942 311.988 310.346ZM320.406 310.824V310.619C320.406 309.844 320.517 309.132 320.738 308.48C320.96 307.823 321.282 307.253 321.705 306.771C322.128 306.29 322.649 305.915 323.268 305.648C323.886 305.375 324.596 305.238 325.396 305.238C326.197 305.238 326.91 305.375 327.535 305.648C328.16 305.915 328.684 306.29 329.107 306.771C329.537 307.253 329.863 307.823 330.084 308.48C330.305 309.132 330.416 309.844 330.416 310.619V310.824C330.416 311.592 330.305 312.305 330.084 312.963C329.863 313.614 329.537 314.184 329.107 314.672C328.684 315.154 328.163 315.528 327.545 315.795C326.926 316.062 326.217 316.195 325.416 316.195C324.615 316.195 323.902 316.062 323.277 315.795C322.659 315.528 322.135 315.154 321.705 314.672C321.282 314.184 320.96 313.614 320.738 312.963C320.517 312.305 320.406 311.592 320.406 310.824ZM323.219 310.619V310.824C323.219 311.267 323.258 311.68 323.336 312.064C323.414 312.449 323.538 312.787 323.707 313.08C323.883 313.367 324.111 313.591 324.391 313.754C324.671 313.917 325.012 313.998 325.416 313.998C325.807 313.998 326.142 313.917 326.422 313.754C326.702 313.591 326.926 313.367 327.096 313.08C327.265 312.787 327.389 312.449 327.467 312.064C327.551 311.68 327.594 311.267 327.594 310.824V310.619C327.594 310.189 327.551 309.786 327.467 309.408C327.389 309.024 327.262 308.686 327.086 308.393C326.917 308.093 326.692 307.859 326.412 307.689C326.132 307.52 325.794 307.436 325.396 307.436C324.999 307.436 324.661 307.52 324.381 307.689C324.107 307.859 323.883 308.093 323.707 308.393C323.538 308.686 323.414 309.024 323.336 309.408C323.258 309.786 323.219 310.189 323.219 310.619ZM337.32 305.434V307.426H331.168V305.434H337.32ZM332.691 302.826H335.504V312.816C335.504 313.122 335.543 313.357 335.621 313.52C335.706 313.682 335.829 313.796 335.992 313.861C336.155 313.92 336.36 313.949 336.607 313.949C336.783 313.949 336.939 313.943 337.076 313.93C337.219 313.91 337.34 313.891 337.438 313.871L337.447 315.941C337.206 316.02 336.946 316.081 336.666 316.127C336.386 316.173 336.077 316.195 335.738 316.195C335.12 316.195 334.579 316.094 334.117 315.893C333.661 315.684 333.31 315.352 333.062 314.896C332.815 314.441 332.691 313.842 332.691 313.1V302.826ZM338.219 310.824V310.619C338.219 309.844 338.329 309.132 338.551 308.48C338.772 307.823 339.094 307.253 339.518 306.771C339.941 306.29 340.462 305.915 341.08 305.648C341.699 305.375 342.408 305.238 343.209 305.238C344.01 305.238 344.723 305.375 345.348 305.648C345.973 305.915 346.497 306.29 346.92 306.771C347.35 307.253 347.675 307.823 347.896 308.48C348.118 309.132 348.229 309.844 348.229 310.619V310.824C348.229 311.592 348.118 312.305 347.896 312.963C347.675 313.614 347.35 314.184 346.92 314.672C346.497 315.154 345.976 315.528 345.357 315.795C344.739 316.062 344.029 316.195 343.229 316.195C342.428 316.195 341.715 316.062 341.09 315.795C340.471 315.528 339.947 315.154 339.518 314.672C339.094 314.184 338.772 313.614 338.551 312.963C338.329 312.305 338.219 311.592 338.219 310.824ZM341.031 310.619V310.824C341.031 311.267 341.07 311.68 341.148 312.064C341.227 312.449 341.35 312.787 341.52 313.08C341.695 313.367 341.923 313.591 342.203 313.754C342.483 313.917 342.825 313.998 343.229 313.998C343.619 313.998 343.954 313.917 344.234 313.754C344.514 313.591 344.739 313.367 344.908 313.08C345.077 312.787 345.201 312.449 345.279 312.064C345.364 311.68 345.406 311.267 345.406 310.824V310.619C345.406 310.189 345.364 309.786 345.279 309.408C345.201 309.024 345.074 308.686 344.898 308.393C344.729 308.093 344.505 307.859 344.225 307.689C343.945 307.52 343.606 307.436 343.209 307.436C342.812 307.436 342.473 307.52 342.193 307.689C341.92 307.859 341.695 308.093 341.52 308.393C341.35 308.686 341.227 309.024 341.148 309.408C341.07 309.786 341.031 310.189 341.031 310.619ZM352.711 307.689V316H349.898V305.434H352.535L352.711 307.689ZM352.301 310.346H351.539C351.539 309.564 351.64 308.861 351.842 308.236C352.044 307.605 352.327 307.068 352.691 306.625C353.056 306.176 353.489 305.834 353.99 305.6C354.498 305.359 355.064 305.238 355.689 305.238C356.184 305.238 356.637 305.31 357.047 305.453C357.457 305.596 357.809 305.824 358.102 306.137C358.401 306.449 358.629 306.863 358.785 307.377C358.948 307.891 359.029 308.52 359.029 309.262V316H356.197V309.252C356.197 308.783 356.132 308.419 356.002 308.158C355.872 307.898 355.68 307.715 355.426 307.611C355.178 307.501 354.872 307.445 354.508 307.445C354.13 307.445 353.801 307.52 353.521 307.67C353.248 307.82 353.02 308.028 352.838 308.295C352.662 308.555 352.529 308.861 352.438 309.213C352.346 309.564 352.301 309.942 352.301 310.346Z" fill="#131004"/>
<path d="M111.119 138.703V153H109.312V140.959L105.67 142.287V140.656L110.836 138.703H111.119ZM122.369 138.703V153H120.562V140.959L116.92 142.287V140.656L122.086 138.703H122.369ZM127.799 152.043C127.799 151.737 127.893 151.48 128.082 151.271C128.277 151.057 128.557 150.949 128.922 150.949C129.286 150.949 129.563 151.057 129.752 151.271C129.947 151.48 130.045 151.737 130.045 152.043C130.045 152.342 129.947 152.596 129.752 152.805C129.563 153.013 129.286 153.117 128.922 153.117C128.557 153.117 128.277 153.013 128.082 152.805C127.893 152.596 127.799 152.342 127.799 152.043ZM127.809 143.42C127.809 143.114 127.903 142.857 128.092 142.648C128.287 142.434 128.567 142.326 128.932 142.326C129.296 142.326 129.573 142.434 129.762 142.648C129.957 142.857 130.055 143.114 130.055 143.42C130.055 143.719 129.957 143.973 129.762 144.182C129.573 144.39 129.296 144.494 128.932 144.494C128.567 144.494 128.287 144.39 128.092 144.182C127.903 143.973 127.809 143.719 127.809 143.42ZM141.451 144.758V146.926C141.451 148.091 141.347 149.074 141.139 149.875C140.93 150.676 140.631 151.32 140.24 151.809C139.85 152.297 139.378 152.652 138.824 152.873C138.277 153.088 137.659 153.195 136.969 153.195C136.422 153.195 135.917 153.127 135.455 152.99C134.993 152.854 134.576 152.635 134.205 152.336C133.84 152.03 133.528 151.633 133.268 151.145C133.007 150.656 132.809 150.064 132.672 149.367C132.535 148.671 132.467 147.857 132.467 146.926V144.758C132.467 143.592 132.571 142.616 132.779 141.828C132.994 141.04 133.297 140.409 133.688 139.934C134.078 139.452 134.547 139.107 135.094 138.898C135.647 138.69 136.266 138.586 136.949 138.586C137.503 138.586 138.01 138.654 138.473 138.791C138.941 138.921 139.358 139.133 139.723 139.426C140.087 139.712 140.396 140.096 140.65 140.578C140.911 141.053 141.109 141.636 141.246 142.326C141.383 143.016 141.451 143.827 141.451 144.758ZM139.635 147.219V144.455C139.635 143.817 139.596 143.257 139.518 142.775C139.446 142.287 139.339 141.87 139.195 141.525C139.052 141.18 138.87 140.9 138.648 140.686C138.434 140.471 138.183 140.314 137.896 140.217C137.617 140.113 137.301 140.061 136.949 140.061C136.52 140.061 136.139 140.142 135.807 140.305C135.475 140.461 135.195 140.712 134.967 141.057C134.745 141.402 134.576 141.854 134.459 142.414C134.342 142.974 134.283 143.654 134.283 144.455V147.219C134.283 147.857 134.319 148.42 134.391 148.908C134.469 149.396 134.583 149.82 134.732 150.178C134.882 150.529 135.064 150.819 135.279 151.047C135.494 151.275 135.742 151.444 136.021 151.555C136.308 151.659 136.624 151.711 136.969 151.711C137.411 151.711 137.799 151.626 138.131 151.457C138.463 151.288 138.74 151.024 138.961 150.666C139.189 150.301 139.358 149.836 139.469 149.27C139.579 148.697 139.635 148.013 139.635 147.219ZM152.701 144.758V146.926C152.701 148.091 152.597 149.074 152.389 149.875C152.18 150.676 151.881 151.32 151.49 151.809C151.1 152.297 150.628 152.652 150.074 152.873C149.527 153.088 148.909 153.195 148.219 153.195C147.672 153.195 147.167 153.127 146.705 152.99C146.243 152.854 145.826 152.635 145.455 152.336C145.09 152.03 144.778 151.633 144.518 151.145C144.257 150.656 144.059 150.064 143.922 149.367C143.785 148.671 143.717 147.857 143.717 146.926V144.758C143.717 143.592 143.821 142.616 144.029 141.828C144.244 141.04 144.547 140.409 144.938 139.934C145.328 139.452 145.797 139.107 146.344 138.898C146.897 138.69 147.516 138.586 148.199 138.586C148.753 138.586 149.26 138.654 149.723 138.791C150.191 138.921 150.608 139.133 150.973 139.426C151.337 139.712 151.646 140.096 151.9 140.578C152.161 141.053 152.359 141.636 152.496 142.326C152.633 143.016 152.701 143.827 152.701 144.758ZM150.885 147.219V144.455C150.885 143.817 150.846 143.257 150.768 142.775C150.696 142.287 150.589 141.87 150.445 141.525C150.302 141.18 150.12 140.9 149.898 140.686C149.684 140.471 149.433 140.314 149.146 140.217C148.867 140.113 148.551 140.061 148.199 140.061C147.77 140.061 147.389 140.142 147.057 140.305C146.725 140.461 146.445 140.712 146.217 141.057C145.995 141.402 145.826 141.854 145.709 142.414C145.592 142.974 145.533 143.654 145.533 144.455V147.219C145.533 147.857 145.569 148.42 145.641 148.908C145.719 149.396 145.833 149.82 145.982 150.178C146.132 150.529 146.314 150.819 146.529 151.047C146.744 151.275 146.992 151.444 147.271 151.555C147.558 151.659 147.874 151.711 148.219 151.711C148.661 151.711 149.049 151.626 149.381 151.457C149.713 151.288 149.99 151.024 150.211 150.666C150.439 150.301 150.608 149.836 150.719 149.27C150.829 148.697 150.885 148.013 150.885 147.219ZM163.941 146.213V147.697H159.176V146.213H163.941ZM176.412 138.703V153H174.605V140.959L170.963 142.287V140.656L176.129 138.703H176.412ZM187.662 138.703V153H185.855V140.959L182.213 142.287V140.656L187.379 138.703H187.662ZM193.092 152.043C193.092 151.737 193.186 151.48 193.375 151.271C193.57 151.057 193.85 150.949 194.215 150.949C194.579 150.949 194.856 151.057 195.045 151.271C195.24 151.48 195.338 151.737 195.338 152.043C195.338 152.342 195.24 152.596 195.045 152.805C194.856 153.013 194.579 153.117 194.215 153.117C193.85 153.117 193.57 153.013 193.375 152.805C193.186 152.596 193.092 152.342 193.092 152.043ZM193.102 143.42C193.102 143.114 193.196 142.857 193.385 142.648C193.58 142.434 193.86 142.326 194.225 142.326C194.589 142.326 194.866 142.434 195.055 142.648C195.25 142.857 195.348 143.114 195.348 143.42C195.348 143.719 195.25 143.973 195.055 144.182C194.866 144.39 194.589 144.494 194.225 144.494C193.86 144.494 193.58 144.39 193.385 144.182C193.196 143.973 193.102 143.719 193.102 143.42ZM200.455 145.002H201.744C202.376 145.002 202.896 144.898 203.307 144.689C203.723 144.475 204.033 144.185 204.234 143.82C204.443 143.449 204.547 143.033 204.547 142.57C204.547 142.023 204.456 141.564 204.273 141.193C204.091 140.822 203.818 140.542 203.453 140.354C203.089 140.165 202.626 140.07 202.066 140.07C201.559 140.07 201.109 140.171 200.719 140.373C200.335 140.568 200.032 140.848 199.811 141.213C199.596 141.577 199.488 142.007 199.488 142.502H197.682C197.682 141.779 197.864 141.122 198.229 140.529C198.593 139.937 199.104 139.465 199.762 139.113C200.426 138.762 201.194 138.586 202.066 138.586C202.926 138.586 203.678 138.739 204.322 139.045C204.967 139.344 205.468 139.794 205.826 140.393C206.184 140.985 206.363 141.724 206.363 142.609C206.363 142.967 206.279 143.352 206.109 143.762C205.947 144.165 205.689 144.543 205.338 144.895C204.993 145.246 204.544 145.536 203.99 145.764C203.437 145.985 202.773 146.096 201.998 146.096H200.455V145.002ZM200.455 146.486V145.402H201.998C202.903 145.402 203.652 145.51 204.244 145.725C204.837 145.939 205.302 146.226 205.641 146.584C205.986 146.942 206.227 147.336 206.363 147.766C206.507 148.189 206.578 148.612 206.578 149.035C206.578 149.699 206.464 150.288 206.236 150.803C206.015 151.317 205.699 151.753 205.289 152.111C204.885 152.469 204.41 152.74 203.863 152.922C203.316 153.104 202.721 153.195 202.076 153.195C201.458 153.195 200.875 153.107 200.328 152.932C199.788 152.756 199.309 152.502 198.893 152.17C198.476 151.831 198.15 151.418 197.916 150.93C197.682 150.435 197.564 149.872 197.564 149.24H199.371C199.371 149.735 199.479 150.168 199.693 150.539C199.915 150.91 200.227 151.2 200.631 151.408C201.041 151.61 201.523 151.711 202.076 151.711C202.63 151.711 203.105 151.617 203.502 151.428C203.906 151.232 204.215 150.939 204.43 150.549C204.651 150.158 204.762 149.667 204.762 149.074C204.762 148.482 204.638 147.997 204.391 147.619C204.143 147.235 203.792 146.952 203.336 146.77C202.887 146.581 202.356 146.486 201.744 146.486H200.455ZM217.994 144.758V146.926C217.994 148.091 217.89 149.074 217.682 149.875C217.473 150.676 217.174 151.32 216.783 151.809C216.393 152.297 215.921 152.652 215.367 152.873C214.82 153.088 214.202 153.195 213.512 153.195C212.965 153.195 212.46 153.127 211.998 152.99C211.536 152.854 211.119 152.635 210.748 152.336C210.383 152.03 210.071 151.633 209.811 151.145C209.55 150.656 209.352 150.064 209.215 149.367C209.078 148.671 209.01 147.857 209.01 146.926V144.758C209.01 143.592 209.114 142.616 209.322 141.828C209.537 141.04 209.84 140.409 210.23 139.934C210.621 139.452 211.09 139.107 211.637 138.898C212.19 138.69 212.809 138.586 213.492 138.586C214.046 138.586 214.553 138.654 215.016 138.791C215.484 138.921 215.901 139.133 216.266 139.426C216.63 139.712 216.939 140.096 217.193 140.578C217.454 141.053 217.652 141.636 217.789 142.326C217.926 143.016 217.994 143.827 217.994 144.758ZM216.178 147.219V144.455C216.178 143.817 216.139 143.257 216.061 142.775C215.989 142.287 215.882 141.87 215.738 141.525C215.595 141.18 215.413 140.9 215.191 140.686C214.977 140.471 214.726 140.314 214.439 140.217C214.16 140.113 213.844 140.061 213.492 140.061C213.062 140.061 212.682 140.142 212.35 140.305C212.018 140.461 211.738 140.712 211.51 141.057C211.288 141.402 211.119 141.854 211.002 142.414C210.885 142.974 210.826 143.654 210.826 144.455V147.219C210.826 147.857 210.862 148.42 210.934 148.908C211.012 149.396 211.126 149.82 211.275 150.178C211.425 150.529 211.607 150.819 211.822 151.047C212.037 151.275 212.285 151.444 212.564 151.555C212.851 151.659 213.167 151.711 213.512 151.711C213.954 151.711 214.342 151.626 214.674 151.457C215.006 151.288 215.283 151.024 215.504 150.666C215.732 150.301 215.901 149.836 216.012 149.27C216.122 148.697 216.178 148.013 216.178 147.219Z" fill="#122D47"/>
<path d="M247.41 150.715V153H240.252V150.715H247.41ZM241.199 138.781V153H238.27V138.781H241.199ZM254.93 150.471V142.434H257.742V153H255.096L254.93 150.471ZM255.242 148.303L256.072 148.283C256.072 148.986 255.991 149.641 255.828 150.246C255.665 150.845 255.421 151.366 255.096 151.809C254.77 152.245 254.36 152.587 253.865 152.834C253.37 153.075 252.788 153.195 252.117 153.195C251.603 153.195 251.128 153.124 250.691 152.98C250.262 152.831 249.891 152.6 249.578 152.287C249.272 151.968 249.031 151.561 248.855 151.066C248.686 150.565 248.602 149.963 248.602 149.26V142.434H251.414V149.279C251.414 149.592 251.45 149.855 251.521 150.07C251.6 150.285 251.707 150.461 251.844 150.598C251.98 150.734 252.14 150.832 252.322 150.891C252.511 150.949 252.719 150.979 252.947 150.979C253.527 150.979 253.982 150.861 254.314 150.627C254.653 150.393 254.891 150.074 255.027 149.67C255.171 149.26 255.242 148.804 255.242 148.303ZM262.645 144.689V153H259.832V142.434H262.469L262.645 144.689ZM262.234 147.346H261.473C261.473 146.564 261.574 145.861 261.775 145.236C261.977 144.605 262.26 144.068 262.625 143.625C262.99 143.176 263.423 142.834 263.924 142.6C264.432 142.359 264.998 142.238 265.623 142.238C266.118 142.238 266.57 142.31 266.98 142.453C267.391 142.596 267.742 142.824 268.035 143.137C268.335 143.449 268.562 143.863 268.719 144.377C268.882 144.891 268.963 145.52 268.963 146.262V153H266.131V146.252C266.131 145.783 266.066 145.419 265.936 145.158C265.805 144.898 265.613 144.715 265.359 144.611C265.112 144.501 264.806 144.445 264.441 144.445C264.064 144.445 263.735 144.52 263.455 144.67C263.182 144.82 262.954 145.028 262.771 145.295C262.596 145.555 262.462 145.861 262.371 146.213C262.28 146.564 262.234 146.942 262.234 147.346ZM275.467 150.998C275.812 150.998 276.118 150.933 276.385 150.803C276.652 150.666 276.86 150.477 277.01 150.236C277.166 149.989 277.247 149.699 277.254 149.367H279.9C279.894 150.109 279.695 150.77 279.305 151.35C278.914 151.923 278.39 152.375 277.732 152.707C277.075 153.033 276.339 153.195 275.525 153.195C274.705 153.195 273.989 153.059 273.377 152.785C272.771 152.512 272.267 152.134 271.863 151.652C271.46 151.164 271.157 150.598 270.955 149.953C270.753 149.302 270.652 148.605 270.652 147.863V147.58C270.652 146.831 270.753 146.135 270.955 145.49C271.157 144.839 271.46 144.273 271.863 143.791C272.267 143.303 272.771 142.922 273.377 142.648C273.982 142.375 274.692 142.238 275.506 142.238C276.372 142.238 277.13 142.404 277.781 142.736C278.439 143.068 278.953 143.544 279.324 144.162C279.702 144.774 279.894 145.5 279.9 146.34H277.254C277.247 145.988 277.173 145.669 277.029 145.383C276.893 145.096 276.691 144.868 276.424 144.699C276.163 144.523 275.841 144.436 275.457 144.436C275.047 144.436 274.712 144.523 274.451 144.699C274.191 144.868 273.989 145.103 273.846 145.402C273.702 145.695 273.602 146.031 273.543 146.408C273.491 146.779 273.465 147.17 273.465 147.58V147.863C273.465 148.273 273.491 148.667 273.543 149.045C273.595 149.423 273.693 149.758 273.836 150.051C273.986 150.344 274.191 150.575 274.451 150.744C274.712 150.913 275.05 150.998 275.467 150.998ZM284.275 138V153H281.463V138H284.275ZM283.875 147.346H283.104C283.11 146.61 283.208 145.933 283.396 145.314C283.585 144.689 283.855 144.149 284.207 143.693C284.559 143.231 284.979 142.873 285.467 142.619C285.962 142.365 286.508 142.238 287.107 142.238C287.628 142.238 288.1 142.313 288.523 142.463C288.953 142.606 289.321 142.84 289.627 143.166C289.939 143.485 290.18 143.905 290.35 144.426C290.519 144.947 290.604 145.578 290.604 146.32V153H287.771V146.301C287.771 145.832 287.703 145.464 287.566 145.197C287.436 144.924 287.244 144.732 286.99 144.621C286.743 144.504 286.437 144.445 286.072 144.445C285.669 144.445 285.324 144.52 285.037 144.67C284.757 144.82 284.533 145.028 284.363 145.295C284.194 145.555 284.07 145.861 283.992 146.213C283.914 146.564 283.875 146.942 283.875 147.346Z" fill="#122D47"/>
<g filter="url(#filter0_d_384_96)">
<path d="M52.3333 154C52.3333 159.891 57.109 164.667 63 164.667C68.891 164.667 73.6667 159.891 73.6667 154C73.6667 148.109 68.891 143.333 63 143.333C57.109 143.333 52.3333 148.109 52.3333 154ZM63 154L63 156L502 156L502 154L502 152L63 152L63 154Z" fill="#AFE697"/>
</g>
</g>
<defs>
<filter id="filter0_d_384_96" x="50.3335" y="143.333" width="453.667" height="25.3334" filterUnits="userSpaceOnUse" color-interpolation-filters="sRGB">
<feFlood flood-opacity="0" result="BackgroundImageFix"/>
<feColorMatrix in="SourceAlpha" type="matrix" values="0 0 0 0 0 0 0 0 0 0 0 0 0 0 0 0 0 0 127 0" result="hardAlpha"/>
<feOffset dy="2"/>
<feGaussianBlur stdDeviation="1"/>
<feComposite in2="hardAlpha" operator="out"/>
<feColorMatrix type="matrix" values="0 0 0 0 0 0 0 0 0 0 0 0 0 0 0 0 0 0 0.25 0"/>
<feBlend mode="normal" in2="BackgroundImageFix" result="effect1_dropShadow_384_96"/>
<feBlend mode="normal" in="SourceGraphic" in2="effect1_dropShadow_384_96" result="shape"/>
</filter>
<clipPath id="clip0_384_96">
<rect width="512" height="340" fill="white"/>
</clipPath>
</defs>
</svg>
