<svg width="512" height="340" viewBox="0 0 512 340" fill="none" xmlns="http://www.w3.org/2000/svg">
<rect x="23" y="265" width="145" height="75" rx="20" fill="#F3B29F"/>
<rect x="183" y="265" width="145" height="75" rx="20" fill="#71E8FC"/>
<rect x="343" y="265" width="145" height="75" rx="20" fill="#252932"/>
<rect x="103" y="177" width="145" height="75" rx="20" fill="#EAD16B"/>
<path d="M297.424 9.44681H287.068V2.3617C287.068 1.73534 286.816 1.13463 286.368 0.691726C285.92 0.248821 285.312 0 284.678 0H227.322C226.688 0 226.08 0.248821 225.632 0.691726C225.184 1.13463 224.932 1.73534 224.932 2.3617V9.44681H214.576C213.097 9.44681 211.679 10.0274 210.633 11.0608C209.587 12.0943 209 13.4959 209 14.9574V21.2553C209 25.2223 210.595 29.0268 213.433 31.8318C216.272 34.6369 220.121 36.2128 224.136 36.2128H226.183C227.962 42.1882 231.539 47.4874 236.438 51.4068C241.336 55.3262 247.326 57.6804 253.61 58.1569V69.2766H243.254C242.62 69.2766 242.013 69.5254 241.564 69.9683C241.116 70.4112 240.864 71.0119 240.864 71.6383C240.864 72.2647 241.116 72.8654 241.564 73.3083C242.013 73.7512 242.62 74 243.254 74H268.746C269.38 74 269.987 73.7512 270.436 73.3083C270.884 72.8654 271.136 72.2647 271.136 71.6383C271.136 71.0119 270.884 70.4112 270.436 69.9683C269.987 69.5254 269.38 69.2766 268.746 69.2766H258.39V58.1569C271.311 57.165 282.061 48.1984 285.722 36.2128H287.864C291.879 36.2128 295.728 34.6369 298.567 31.8318C301.405 29.0268 303 25.2223 303 21.2553V14.9574C303 13.4959 302.413 12.0943 301.367 11.0608C300.321 10.0274 298.903 9.44681 297.424 9.44681ZM224.136 31.4894C221.389 31.4894 218.755 30.4111 216.813 28.4919C214.871 26.5726 213.78 23.9696 213.78 21.2553V14.9574C213.78 14.7487 213.864 14.5484 214.013 14.4008C214.162 14.2532 214.365 14.1702 214.576 14.1702H224.932V27.5532C224.936 28.8693 225.023 30.1839 225.191 31.4894H224.136ZM282.288 27.1989C282.288 41.6132 270.586 53.4256 256.199 53.5319C252.73 53.5579 249.29 52.9051 246.078 51.6112C242.866 50.3173 239.944 48.4078 237.482 45.9929C235.02 43.5779 233.065 40.7053 231.732 37.5405C230.398 34.3757 229.712 30.9814 229.712 27.5532V4.7234H282.288V27.1989ZM298.22 21.2553C298.22 23.9696 297.129 26.5726 295.187 28.4919C293.245 30.4111 290.611 31.4894 287.864 31.4894H286.761C286.964 30.068 287.067 28.6344 287.068 27.1989V14.1702H297.424C297.635 14.1702 297.838 14.2532 297.987 14.4008C298.136 14.5484 298.22 14.7487 298.22 14.9574V21.2553Z" fill="#EAD16B"/>
<path d="M183.11 218.24C182.835 219.779 182.094 221.197 180.989 222.302C179.883 223.407 178.466 224.147 176.927 224.423C176.868 224.432 176.809 224.437 176.75 224.437C176.483 224.437 176.227 224.337 176.031 224.156C175.835 223.976 175.713 223.728 175.691 223.463C175.669 223.197 175.748 222.933 175.912 222.723C176.075 222.512 176.312 222.371 176.575 222.327C178.775 221.956 180.643 220.089 181.016 217.884C181.063 217.606 181.219 217.359 181.449 217.195C181.679 217.032 181.964 216.967 182.242 217.014C182.52 217.062 182.767 217.217 182.931 217.447C183.094 217.677 183.159 217.962 183.112 218.24H183.11ZM187.375 217C187.375 220.1 186.144 223.072 183.952 225.264C181.76 227.456 178.787 228.687 175.688 228.687C172.588 228.687 169.615 227.456 167.423 225.264C165.231 223.072 164 220.1 164 217C164 213.292 165.461 209.5 168.338 205.731C168.429 205.611 168.544 205.513 168.676 205.441C168.808 205.37 168.954 205.327 169.103 205.316C169.253 205.304 169.403 205.325 169.545 205.376C169.686 205.427 169.814 205.508 169.922 205.612L173.126 208.722L176.047 200.698C176.106 200.538 176.202 200.395 176.327 200.28C176.453 200.164 176.604 200.081 176.769 200.037C176.933 199.992 177.106 199.988 177.272 200.024C177.439 200.061 177.594 200.137 177.725 200.245C180.629 202.656 187.375 209.104 187.375 217ZM185.25 217C185.25 210.878 180.497 205.589 177.519 202.878L174.561 210.989C174.501 211.155 174.399 211.304 174.266 211.421C174.133 211.539 173.973 211.621 173.8 211.661C173.627 211.7 173.448 211.696 173.277 211.648C173.106 211.6 172.95 211.511 172.823 211.387L169.32 207.99C167.199 211.051 166.125 214.078 166.125 217C166.125 219.536 167.132 221.968 168.926 223.761C170.719 225.555 173.151 226.562 175.688 226.562C178.224 226.562 180.656 225.555 182.449 223.761C184.243 221.968 185.25 219.536 185.25 217Z" fill="#131004"/>
<rect x="263" y="177" width="145" height="75" rx="20" fill="#EAD16B"/>
<path d="M343.11 218.24C342.835 219.779 342.094 221.197 340.989 222.302C339.883 223.407 338.466 224.147 336.927 224.423C336.868 224.432 336.809 224.437 336.75 224.437C336.483 224.437 336.227 224.337 336.031 224.156C335.835 223.976 335.713 223.728 335.691 223.463C335.669 223.197 335.748 222.933 335.912 222.723C336.075 222.512 336.312 222.371 336.575 222.327C338.775 221.956 340.643 220.089 341.016 217.884C341.063 217.606 341.219 217.359 341.449 217.195C341.679 217.032 341.964 216.967 342.242 217.014C342.52 217.062 342.767 217.217 342.931 217.447C343.094 217.677 343.159 217.962 343.112 218.24H343.11ZM347.375 217C347.375 220.1 346.144 223.072 343.952 225.264C341.76 227.456 338.787 228.687 335.688 228.687C332.588 228.687 329.615 227.456 327.423 225.264C325.231 223.072 324 220.1 324 217C324 213.292 325.461 209.5 328.338 205.731C328.429 205.611 328.544 205.513 328.676 205.441C328.808 205.37 328.954 205.327 329.103 205.316C329.253 205.304 329.403 205.325 329.545 205.376C329.686 205.427 329.814 205.508 329.922 205.612L333.126 208.722L336.047 200.698C336.106 200.538 336.202 200.395 336.327 200.28C336.453 200.164 336.604 200.081 336.769 200.037C336.933 199.992 337.106 199.988 337.272 200.024C337.439 200.061 337.594 200.137 337.725 200.245C340.629 202.656 347.375 209.104 347.375 217ZM345.25 217C345.25 210.878 340.497 205.589 337.519 202.878L334.561 210.989C334.501 211.155 334.399 211.304 334.266 211.421C334.133 211.539 333.973 211.621 333.8 211.661C333.627 211.7 333.448 211.696 333.277 211.648C333.106 211.6 332.95 211.511 332.823 211.387L329.32 207.99C327.199 211.051 326.125 214.078 326.125 217C326.125 219.536 327.132 221.968 328.926 223.761C330.719 225.555 333.151 226.562 335.688 226.562C338.224 226.562 340.656 225.555 342.449 223.761C344.243 221.968 345.25 219.536 345.25 217Z" fill="#131004"/>
<path d="M95.8756 291.126C93.3539 291.126 90.8888 291.873 88.7921 293.274C86.6953 294.675 85.0611 296.667 84.0961 298.996C83.1311 301.326 82.8786 303.89 83.3706 306.363C83.8625 308.836 85.0769 311.108 86.86 312.891C88.6431 314.674 90.9149 315.889 93.3882 316.381C95.8614 316.873 98.425 316.62 100.755 315.655C103.085 314.69 105.076 313.056 106.477 310.959C107.878 308.862 108.626 306.397 108.626 303.876C108.622 300.495 107.277 297.254 104.887 294.864C102.497 292.474 99.2559 291.129 95.8756 291.126ZM95.8756 314.501C93.7742 314.501 91.7199 313.877 89.9727 312.71C88.2254 311.542 86.8636 309.883 86.0594 307.942C85.2552 306 85.0448 303.864 85.4547 301.803C85.8647 299.742 86.8766 297.849 88.3626 296.363C89.8485 294.877 91.7417 293.865 93.8028 293.455C95.8638 293.045 98.0001 293.255 99.9416 294.059C101.883 294.864 103.542 296.225 104.71 297.973C105.877 299.72 106.501 301.774 106.501 303.876C106.497 306.693 105.377 309.393 103.385 311.385C101.393 313.377 98.6925 314.497 95.8756 314.501ZM87.0648 290.815L82.8148 295.065C82.6154 295.264 82.345 295.376 82.0631 295.376C81.7811 295.376 81.5107 295.264 81.3114 295.065C81.112 294.865 81 294.595 81 294.313C81 294.031 81.112 293.761 81.3114 293.561L85.5614 289.311C85.7607 289.112 86.0311 289 86.3131 289C86.595 289 86.8654 289.112 87.0648 289.311C87.2642 289.511 87.3762 289.781 87.3762 290.063C87.3762 290.345 87.2642 290.615 87.0648 290.815ZM110.44 295.065C110.341 295.164 110.224 295.242 110.095 295.295C109.966 295.349 109.828 295.376 109.688 295.376C109.548 295.376 109.41 295.349 109.281 295.295C109.152 295.242 109.035 295.164 108.936 295.065L104.686 290.815C104.487 290.615 104.375 290.345 104.375 290.063C104.375 289.781 104.487 289.511 104.686 289.311C104.886 289.112 105.156 289 105.438 289C105.72 289 105.99 289.112 106.19 289.311L110.44 293.561C110.539 293.66 110.617 293.777 110.67 293.906C110.724 294.035 110.751 294.173 110.751 294.313C110.751 294.453 110.724 294.591 110.67 294.72C110.617 294.849 110.539 294.966 110.44 295.065ZM103.313 302.813C103.595 302.813 103.865 302.925 104.064 303.124C104.264 303.324 104.376 303.594 104.376 303.876C104.376 304.157 104.264 304.428 104.064 304.627C103.865 304.826 103.595 304.938 103.313 304.938H95.8756C95.5938 304.938 95.3235 304.826 95.1243 304.627C94.925 304.428 94.8131 304.157 94.8131 303.876V296.438C94.8131 296.156 94.925 295.886 95.1243 295.687C95.3235 295.488 95.5938 295.376 95.8756 295.376C96.1574 295.376 96.4276 295.488 96.6269 295.687C96.8261 295.886 96.9381 296.156 96.9381 296.438V302.813H103.313Z" fill="#140C09"/>
<path d="M430.751 302.636C430.509 299.855 429.491 297.197 427.815 294.965C426.138 292.733 423.869 291.015 421.266 290.007C418.662 288.999 415.828 288.741 413.086 289.263C410.343 289.784 407.801 291.064 405.749 292.957C403.01 295.473 401.317 298.929 401.008 302.636C400.983 302.929 401.019 303.225 401.114 303.504C401.209 303.782 401.361 304.038 401.56 304.255C401.759 304.472 402.001 304.645 402.271 304.764C402.54 304.882 402.832 304.943 403.126 304.943H414.814V312.38C414.814 313.508 415.261 314.589 416.058 315.386C416.855 316.183 417.936 316.63 419.064 316.63C420.191 316.63 421.272 316.183 422.069 315.386C422.866 314.589 423.314 313.508 423.314 312.38C423.314 312.099 423.202 311.828 423.002 311.629C422.803 311.43 422.533 311.318 422.251 311.318C421.969 311.318 421.699 311.43 421.5 311.629C421.301 311.828 421.189 312.099 421.189 312.38C421.189 312.944 420.965 313.484 420.566 313.883C420.168 314.281 419.627 314.505 419.064 314.505C418.5 314.505 417.96 314.281 417.561 313.883C417.163 313.484 416.939 312.944 416.939 312.38V304.943H428.626C428.921 304.944 429.213 304.884 429.484 304.766C429.754 304.648 429.997 304.475 430.197 304.258C430.397 304.041 430.549 303.784 430.645 303.505C430.74 303.226 430.776 302.93 430.751 302.636ZM403.126 302.818C403.362 300.081 404.473 297.493 406.297 295.438C408.12 293.383 410.557 291.971 413.246 291.411C411.69 293.521 409.747 297.254 409.524 302.818H403.126ZM411.646 302.818C411.831 298.731 413.045 295.804 414.077 294.02C414.585 293.134 415.189 292.306 415.876 291.55C416.562 292.306 417.164 293.134 417.672 294.02C419.436 297.067 419.993 300.332 420.102 302.818H411.646ZM422.225 302.818C422.001 297.254 420.058 293.521 418.506 291.404C421.197 291.963 423.636 293.375 425.46 295.432C427.283 297.489 428.394 300.079 428.626 302.818H422.225Z" fill="#B7CBD5"/>
<path d="M270.64 298.792C270.507 298.384 270.257 298.024 269.92 297.758C269.583 297.492 269.174 297.331 268.746 297.297L260.91 296.665L257.885 289.348C257.721 288.949 257.443 288.608 257.085 288.368C256.727 288.128 256.306 288 255.875 288C255.444 288 255.023 288.128 254.665 288.368C254.307 288.608 254.028 288.949 253.865 289.348L250.842 296.663L243.002 297.297C242.573 297.333 242.165 297.495 241.828 297.762C241.49 298.03 241.24 298.391 241.107 298.8C240.974 299.209 240.965 299.649 241.081 300.063C241.196 300.477 241.432 300.848 241.757 301.13L247.734 306.287L245.913 313.998C245.811 314.417 245.836 314.857 245.985 315.261C246.133 315.666 246.399 316.017 246.747 316.271C247.096 316.525 247.512 316.669 247.943 316.686C248.374 316.702 248.8 316.591 249.167 316.365L255.874 312.237L262.585 316.365C262.952 316.588 263.378 316.697 263.807 316.679C264.236 316.662 264.651 316.517 264.999 316.264C265.346 316.011 265.611 315.661 265.76 315.257C265.909 314.854 265.935 314.416 265.835 313.998L264.007 306.285L269.984 301.128C270.312 300.848 270.55 300.476 270.667 300.06C270.784 299.644 270.774 299.203 270.64 298.792ZM268.603 299.519L262.135 305.097C261.987 305.224 261.878 305.389 261.818 305.574C261.758 305.76 261.75 305.958 261.795 306.147L263.771 314.488C263.776 314.499 263.777 314.512 263.773 314.524C263.768 314.536 263.76 314.546 263.749 314.552C263.725 314.57 263.718 314.566 263.698 314.552L256.431 310.083C256.263 309.98 256.071 309.925 255.874 309.925C255.678 309.925 255.485 309.98 255.318 310.083L248.05 314.554C248.03 314.566 248.025 314.57 248 314.554C247.988 314.549 247.98 314.539 247.976 314.527C247.971 314.515 247.972 314.502 247.977 314.491L249.953 306.15C249.998 305.961 249.99 305.762 249.93 305.577C249.87 305.392 249.761 305.227 249.613 305.099L243.145 299.521C243.129 299.508 243.115 299.496 243.128 299.455C243.141 299.414 243.152 299.419 243.172 299.416L251.661 298.731C251.856 298.714 252.042 298.644 252.2 298.529C252.357 298.413 252.48 298.256 252.554 298.075L255.824 290.158C255.834 290.135 255.838 290.125 255.87 290.125C255.902 290.125 255.906 290.135 255.917 290.158L259.194 298.075C259.269 298.256 259.392 298.413 259.551 298.528C259.709 298.643 259.896 298.713 260.091 298.728L268.58 299.414C268.6 299.414 268.612 299.414 268.624 299.452C268.636 299.491 268.624 299.505 268.603 299.519Z" fill="#122D47"/>
<rect x="183" y="87" width="145" height="75" rx="20" fill="#71E8FC"/>
<path d="M270.64 120.792C270.507 120.384 270.257 120.024 269.92 119.758C269.583 119.492 269.174 119.331 268.746 119.297L260.91 118.665L257.885 111.348C257.721 110.949 257.443 110.608 257.085 110.368C256.727 110.128 256.306 110 255.875 110C255.444 110 255.023 110.128 254.665 110.368C254.307 110.608 254.028 110.949 253.865 111.348L250.842 118.663L243.002 119.297C242.573 119.333 242.165 119.495 241.828 119.762C241.49 120.03 241.24 120.391 241.107 120.8C240.974 121.209 240.965 121.649 241.081 122.063C241.196 122.477 241.432 122.848 241.757 123.13L247.734 128.287L245.913 135.998C245.811 136.417 245.836 136.857 245.985 137.261C246.133 137.666 246.399 138.017 246.747 138.271C247.096 138.525 247.512 138.669 247.943 138.686C248.374 138.702 248.8 138.591 249.167 138.365L255.874 134.237L262.585 138.365C262.952 138.588 263.378 138.697 263.807 138.679C264.236 138.662 264.651 138.517 264.999 138.264C265.346 138.011 265.611 137.661 265.76 137.257C265.909 136.854 265.935 136.416 265.835 135.998L264.007 128.285L269.984 123.128C270.312 122.848 270.55 122.476 270.667 122.06C270.784 121.644 270.774 121.203 270.64 120.792ZM268.603 121.519L262.135 127.097C261.987 127.224 261.878 127.389 261.818 127.574C261.758 127.76 261.75 127.958 261.795 128.147L263.771 136.488C263.776 136.499 263.777 136.512 263.773 136.524C263.768 136.536 263.76 136.546 263.749 136.552C263.725 136.57 263.718 136.566 263.698 136.552L256.431 132.083C256.263 131.98 256.071 131.925 255.874 131.925C255.678 131.925 255.485 131.98 255.318 132.083L248.05 136.554C248.03 136.566 248.025 136.57 248 136.554C247.988 136.549 247.98 136.539 247.976 136.527C247.971 136.515 247.972 136.502 247.977 136.491L249.953 128.15C249.998 127.961 249.99 127.762 249.93 127.577C249.87 127.392 249.761 127.227 249.613 127.099L243.145 121.521C243.129 121.508 243.115 121.496 243.128 121.455C243.141 121.414 243.152 121.419 243.172 121.416L251.661 120.731C251.856 120.714 252.042 120.644 252.2 120.529C252.357 120.413 252.48 120.256 252.554 120.075L255.824 112.158C255.834 112.135 255.838 112.125 255.87 112.125C255.902 112.125 255.906 112.135 255.917 112.158L259.194 120.075C259.269 120.256 259.392 120.413 259.551 120.528C259.709 120.643 259.896 120.713 260.091 120.728L268.58 121.414C268.6 121.414 268.612 121.414 268.624 121.452C268.636 121.491 268.624 121.505 268.603 121.519Z" fill="#051315"/>
</svg>
