<svg width="512" height="340" viewBox="0 0 512 340" fill="none" xmlns="http://www.w3.org/2000/svg">
<path d="M111.932 290C109.351 290 106.86 289.527 104.46 288.58C102.083 287.656 100.057 286.337 98.3811 284.624L64.9962 250.882C62.6415 248.493 60.8868 246.07 59.7321 243.613C58.5774 241.157 58 238.632 58 236.04C58 232.839 58.7811 229.954 60.3434 227.385C61.9057 224.815 64.0113 222.775 66.6604 221.265C69.3094 219.755 72.2642 219 75.5245 219C78.1057 219 80.6075 219.496 83.0302 220.488C85.4755 221.479 87.5585 222.843 89.2792 224.579L123.377 258.997C125.528 261.16 127.17 263.437 128.302 265.826C129.434 268.215 130 270.661 130 273.163C130 276.251 129.196 279.068 127.589 281.615C125.981 284.162 123.808 286.191 121.068 287.701C118.351 289.234 115.306 290 111.932 290ZM83.3358 264.034L103.238 244.357L86.5623 227.385C85.2038 226.01 83.5396 224.939 81.5698 224.173C79.6226 223.384 77.6075 222.99 75.5245 222.99C72.9887 222.99 70.7019 223.564 68.6642 224.714C66.6264 225.863 65.0189 227.419 63.8415 229.38C62.6642 231.34 62.0755 233.561 62.0755 236.04C62.0755 238.159 62.5396 240.221 63.4679 242.227C64.4189 244.233 65.8453 246.205 67.7472 248.144L83.3358 264.034ZM122.766 276.138C123.423 276.138 123.921 275.845 124.26 275.259C124.623 274.65 124.804 273.771 124.804 272.622C124.804 269.331 123.072 265.928 119.608 262.411L109.725 252.438C109.294 251.987 108.819 251.761 108.298 251.761C107.777 251.739 107.313 251.93 106.906 252.336C106.498 252.742 106.294 253.215 106.294 253.756C106.317 254.275 106.543 254.748 106.974 255.176L116.891 265.184C118.204 266.491 119.2 267.742 119.879 268.937C120.558 270.131 120.898 271.337 120.898 272.554C120.898 272.712 120.887 272.87 120.864 273.028C120.864 273.163 120.853 273.298 120.83 273.433C120.74 274.245 120.864 274.898 121.204 275.394C121.543 275.89 122.064 276.138 122.766 276.138Z" fill="#2B6550"/>
<path d="M139 122V51H195.747V60.5681L191.637 64.7605V55.0571H143.11V117.943H191.637V95.4933L195.747 92.011V122H139ZM166.192 113.108C164.411 113.108 163.053 112.905 162.116 112.5C161.18 112.116 160.244 111.925 159.308 111.925C158.737 111.925 158.178 112.071 157.63 112.364C157.105 112.657 156.397 112.804 155.507 112.804C154.959 112.804 154.263 112.657 153.418 112.364C152.596 112.094 151.922 111.959 151.397 111.959C150.781 111.959 150.153 112.128 149.514 112.466L148.555 110.64C149.514 110.167 150.461 109.93 151.397 109.93C152.014 109.93 152.744 110.065 153.589 110.336C154.434 110.629 155.073 110.775 155.507 110.775C155.986 110.775 156.546 110.629 157.185 110.336C157.824 110.043 158.532 109.896 159.308 109.896C160.45 109.896 161.523 110.088 162.527 110.471C163.555 110.877 164.776 111.08 166.192 111.08C166.785 111.08 167.55 110.967 168.486 110.741C169.422 110.539 170.244 110.313 170.952 110.065L171.5 112.026C170.678 112.319 169.753 112.567 168.726 112.77C167.721 112.995 166.877 113.108 166.192 113.108ZM156.808 101.714C155.941 101.714 155.062 101.579 154.171 101.309C153.281 101.038 152.573 100.903 152.048 100.903C151.386 100.903 150.724 101.072 150.062 101.41L149.103 99.5843C150.039 99.111 151.021 98.8743 152.048 98.8743C152.71 98.8743 153.486 99.0095 154.377 99.28C155.29 99.5505 156.1 99.6857 156.808 99.6857C157.539 99.6857 158.509 99.4941 159.719 99.111C160.929 98.7052 162.025 98.5024 163.007 98.5024V100.531C162.482 100.531 161.831 100.632 161.055 100.835C160.279 101.016 159.502 101.207 158.726 101.41C157.973 101.613 157.333 101.714 156.808 101.714ZM172.733 111.587L168.829 108.95L170.884 98.9757C171.249 101.658 171.888 103.608 172.801 104.825C173.715 106.042 175.039 106.65 176.774 106.65C177.413 106.65 178.167 106.628 179.034 106.583C179.925 106.515 180.986 106.425 182.219 106.312L172.733 111.587ZM149.925 93.3971L148.966 91.5714C149.925 91.0981 150.872 90.8614 151.808 90.8614C152.333 90.8614 152.87 90.929 153.418 91.0643C153.966 91.177 154.411 91.2333 154.753 91.2333C155.279 91.2333 155.929 91.053 156.705 90.6924C157.482 90.3317 158.258 90.1514 159.034 90.1514C160.084 90.1514 161.135 90.2529 162.185 90.4557C163.258 90.636 164.537 90.7262 166.021 90.7262C167.299 90.7262 168.715 90.6586 170.267 90.5233C171.842 90.3881 173.212 90.2078 174.377 89.9824L174.788 91.9433C173.555 92.1687 172.116 92.3603 170.473 92.5181C168.852 92.6759 167.368 92.7548 166.021 92.7548C164.354 92.7548 162.984 92.6646 161.911 92.4843C160.861 92.2814 159.902 92.18 159.034 92.18C158.463 92.18 157.813 92.3603 157.082 92.721C156.374 93.0816 155.598 93.2619 154.753 93.2619C154.205 93.2619 153.703 93.2056 153.247 93.0929C152.79 92.9576 152.311 92.89 151.808 92.89C151.192 92.89 150.564 93.059 149.925 93.3971ZM155.61 84.911C154.468 84.911 153.703 84.7306 153.315 84.37C152.95 84.0094 152.527 83.829 152.048 83.829C151.386 83.829 150.724 83.9981 150.062 84.3362L149.103 82.5105C150.039 82.0371 151.021 81.8005 152.048 81.8005C152.801 81.8005 153.418 81.9808 153.897 82.3414C154.4 82.7021 154.97 82.8824 155.61 82.8824C156.066 82.8824 156.683 82.7359 157.459 82.4429C158.258 82.1498 159.023 82.0033 159.753 82.0033C160.781 82.0033 161.808 82.2851 162.836 82.8486L161.808 84.6067C161.1 84.2235 160.416 84.0319 159.753 84.0319C159.16 84.0319 158.521 84.1784 157.836 84.4714C157.174 84.7644 156.432 84.911 155.61 84.911ZM171.5 112.195C170.632 112.195 169.856 111.902 169.171 111.316C168.509 110.753 168.178 110.031 168.178 109.152C168.178 108.95 168.201 108.735 168.247 108.51L170.815 95.2905C170.929 94.6368 171.1 94.017 171.329 93.431C171.557 92.8449 171.785 92.3829 172.014 92.0448L174.685 93.769C174.525 94.0621 174.377 94.3889 174.24 94.7495C174.126 95.0876 174.023 95.4708 173.932 95.899L171.842 106.786L173.589 108.003L184.137 102.289C184.662 102.019 185.084 101.748 185.404 101.478C185.747 101.207 185.975 101.004 186.089 100.869L188.349 103.1C187.938 103.687 187.048 104.351 185.678 105.095L173.041 111.823C172.562 112.071 172.048 112.195 171.5 112.195ZM155.61 76.5938C154.468 76.5938 153.703 76.4135 153.315 76.0529C152.95 75.6922 152.527 75.5119 152.048 75.5119C151.386 75.5119 150.724 75.681 150.062 76.019L149.103 74.1933C150.039 73.72 151.021 73.4833 152.048 73.4833C152.801 73.4833 153.418 73.6637 153.897 74.0243C154.4 74.3849 154.97 74.5652 155.61 74.5652C156.135 74.5652 156.82 74.4187 157.664 74.1257C158.532 73.8327 159.342 73.6862 160.096 73.6862C161.055 73.6862 161.831 73.8102 162.425 74.0581C163.041 74.2835 163.726 74.3962 164.479 74.3962C165.849 74.3962 167.094 74.1821 168.212 73.7538L168.966 75.6471C167.642 76.1656 166.146 76.4248 164.479 76.4248C163.315 76.4248 162.482 76.3121 161.979 76.0867C161.5 75.8387 160.872 75.7148 160.096 75.7148C159.479 75.7148 158.772 75.8613 157.973 76.1543C157.196 76.4473 156.409 76.5938 155.61 76.5938ZM175.952 84.911C174.811 84.911 174.046 84.7306 173.658 84.37C173.292 84.0094 172.87 83.829 172.39 83.829C171.728 83.829 171.066 83.9981 170.404 84.3362L169.445 82.5105C170.381 82.0371 171.363 81.8005 172.39 81.8005C173.144 81.8005 173.76 81.9808 174.24 82.3414C174.742 82.7021 175.313 82.8824 175.952 82.8824C176.409 82.8824 177.025 82.7359 177.801 82.4429C178.6 82.1498 179.365 82.0033 180.096 82.0033V84.0319C179.502 84.0319 178.863 84.1784 178.178 84.4714C177.516 84.7644 176.774 84.911 175.952 84.911ZM162.973 66.0114C161.854 66.0114 160.941 65.8086 160.233 65.4029C159.525 64.9746 158.795 64.7605 158.041 64.7605C157.447 64.7605 156.922 64.8844 156.466 65.1324C156.032 65.3803 155.358 65.5043 154.445 65.5043C153.874 65.5043 153.372 65.4367 152.938 65.3014C152.527 65.1437 152.071 65.0648 151.568 65.0648C150.952 65.0648 150.324 65.2338 149.685 65.5719L148.726 63.7462C149.685 63.2729 150.632 63.0362 151.568 63.0362C152.116 63.0362 152.676 63.1151 153.247 63.2729C153.817 63.4081 154.217 63.4757 154.445 63.4757C154.902 63.4757 155.427 63.3517 156.021 63.1038C156.614 62.8559 157.288 62.7319 158.041 62.7319C158.977 62.7319 159.868 62.946 160.712 63.3743C161.557 63.78 162.311 63.9829 162.973 63.9829C163.726 63.9829 164.571 63.7237 165.507 63.2052C166.443 62.6643 167.619 62.3938 169.034 62.3938C170.29 62.3938 171.648 62.5403 173.11 62.8333C174.571 63.1263 175.838 63.1376 176.911 62.8671L177.39 64.8281C175.998 65.1887 174.616 65.2113 173.247 64.8957C171.877 64.5802 170.473 64.4224 169.034 64.4224C168.212 64.4224 167.505 64.5576 166.911 64.8281C166.317 65.076 165.724 65.3352 165.13 65.6057C164.537 65.8762 163.817 66.0114 162.973 66.0114ZM185.507 103.844C184.639 103.844 183.886 103.641 183.247 103.236C182.63 102.807 182.162 102.289 181.842 101.68C181.591 101.726 181.34 101.771 181.089 101.816C180.861 101.838 180.632 101.85 180.404 101.85C179.4 101.85 178.463 101.568 177.596 101.004C176.432 100.26 175.747 99.156 175.541 97.691C174.285 97.6459 173.304 97.3078 172.596 96.6767C171.911 96.0456 171.568 95.2116 171.568 94.1748C171.568 93.4986 171.717 92.7886 172.014 92.0448L188.11 69.8319L190.712 71.6576L174.89 93.4986C174.868 93.5662 174.856 93.6563 174.856 93.769C174.856 94.017 174.947 94.2311 175.13 94.4114C175.336 94.5692 175.575 94.6481 175.849 94.6481C176.1 94.6481 176.306 94.5917 176.466 94.479L191.568 73.5848L194.137 75.4105L178.623 96.8457C178.669 97.4768 178.84 97.9389 179.137 98.2319C179.457 98.5249 179.879 98.6714 180.404 98.6714C180.564 98.6714 180.735 98.6602 180.918 98.6376C181.1 98.5925 181.295 98.5475 181.5 98.5024L197.048 76.9995L199.651 78.8252L184.856 99.3138C184.788 99.449 184.753 99.6068 184.753 99.7871C184.753 100.035 184.845 100.249 185.027 100.43C185.233 100.587 185.473 100.666 185.747 100.666C185.998 100.666 186.203 100.61 186.363 100.497L202.288 78.4533L204.89 80.2452L188.349 103.1C187.345 103.596 186.397 103.844 185.507 103.844ZM205.438 81.361C203.566 81.3159 201.82 81.0229 200.199 80.4819C198.578 79.9184 196.728 78.9717 194.651 77.6419C192.596 76.3121 190.998 75.0386 189.856 73.8214C188.737 72.5817 187.813 71.1054 187.082 69.3924L192.836 61.7852L195.644 62.0557L195.13 65.2338L194.377 65.0986L190.781 69.7643C191.352 70.6884 192.059 71.5449 192.904 72.3338C193.749 73.1227 194.925 74.013 196.432 75.0048C197.961 75.9965 199.285 76.729 200.404 77.2024C201.546 77.6757 202.721 77.98 203.932 78.1152L207.459 73.4833C207.436 73.4157 207.39 73.3368 207.322 73.2467C207.276 73.1565 207.208 73.0551 207.116 72.9424L209.925 71.3195L211.123 73.8214L205.438 81.361ZM207.699 75.2414C206.26 75.016 204.868 74.6216 203.521 74.0581C202.174 73.4946 200.724 72.6944 199.171 71.6576C197.459 70.5081 196.078 69.4375 195.027 68.4457C194 67.4314 193.155 66.3495 192.493 65.2L194.651 62.3938C195.176 63.6335 195.895 64.7379 196.808 65.7071C197.721 66.6763 199.103 67.7808 200.952 69.0205C202.71 70.1925 204.24 71.0152 205.541 71.4886C206.842 71.9619 208.292 72.2211 209.89 72.2662L207.699 75.2414ZM208.521 75.4105L205.986 73.5171L210.199 67.9724C210.564 67.5216 210.747 67.0483 210.747 66.5524C210.747 65.5156 209.685 64.321 207.562 62.9686L204.753 61.2105C203.269 60.2863 202.014 59.8243 200.986 59.8243C200.096 59.8243 199.388 60.1737 198.863 60.8724L194.582 66.62L191.979 64.7605L196.295 59.0129C197.459 57.4576 199.011 56.68 200.952 56.68C202.664 56.68 204.502 57.3111 206.466 58.5733L209.24 60.3652C212.413 62.4163 214 64.5238 214 66.6876C214 67.7921 213.6 68.8514 212.801 69.8657L208.521 75.4105ZM211.671 68.9867C210.347 68.7387 209.046 68.333 207.767 67.7695C206.489 67.206 205.096 66.4284 203.589 65.4367C202.196 64.5125 201.032 63.6448 200.096 62.8333C199.16 61.9994 198.361 61.1429 197.699 60.2638L199.822 57.6605C200.37 58.5621 201.066 59.4073 201.911 60.1962C202.756 60.9851 203.909 61.8641 205.37 62.8333C206.854 63.8025 208.144 64.5238 209.24 64.9971C210.358 65.4479 211.5 65.7635 212.664 65.9438L211.671 68.9867Z" fill="#2B6550"/>
<path d="M416.778 288C409.593 288 403.716 287.726 399.148 287.177C394.603 286.629 391.079 285.657 388.577 284.263C386.098 282.891 384.376 280.96 383.412 278.469C382.471 276 382 272.834 382 268.971C382 265.154 382.459 261.211 383.377 257.143C384.319 253.051 385.616 249.029 387.268 245.074C388.944 241.097 390.907 237.371 393.157 233.897C395.429 230.4 397.908 227.314 400.594 224.64C403.28 221.943 406.092 219.829 409.031 218.297C411.969 216.766 414.942 216 417.949 216C419.258 216 420.336 216.217 421.186 216.651C422.035 217.086 422.758 217.794 423.355 218.777L427.143 224.846C427.992 226.24 428.417 227.497 428.417 228.617C428.417 230.423 427.556 231.726 425.834 232.526C424.136 233.303 421.897 233.691 419.12 233.691C416.48 233.691 414.448 233.257 413.025 232.389C411.625 231.497 410.925 230.309 410.925 228.823C410.925 227.406 411.418 226.343 412.405 225.634C413.392 224.926 414.689 224.571 416.296 224.571C416.618 224.571 416.95 224.594 417.295 224.64C417.639 224.663 418.052 224.709 418.534 224.777L418.121 227.794C417.708 227.749 417.352 227.714 417.054 227.691C416.778 227.669 416.526 227.657 416.296 227.657C415.562 227.657 414.999 227.76 414.609 227.966C414.219 228.149 414.024 228.434 414.024 228.823C414.024 229.303 414.437 229.726 415.263 230.091C416.09 230.434 417.375 230.606 419.12 230.606C421.14 230.606 422.517 230.457 423.252 230.16C423.986 229.84 424.354 229.326 424.354 228.617C424.354 228.343 424.296 228.069 424.182 227.794C424.09 227.52 423.918 227.166 423.665 226.731L420.291 221.349C419.992 220.869 419.636 220.491 419.223 220.217C418.81 219.92 418.385 219.771 417.949 219.771C415.286 219.771 412.646 220.491 410.029 221.931C407.435 223.371 404.944 225.349 402.557 227.863C400.193 230.377 398.012 233.269 396.015 236.537C394.017 239.783 392.273 243.246 390.781 246.926C389.311 250.606 388.164 254.331 387.337 258.103C386.534 261.851 386.132 265.474 386.132 268.971C386.132 272.217 386.522 274.846 387.303 276.857C388.083 278.869 389.541 280.411 391.676 281.486C393.811 282.56 396.898 283.28 400.939 283.646C404.979 284.034 410.259 284.229 416.778 284.229H427.35C432.836 284.229 437.301 283.577 440.744 282.274C444.211 280.994 446.759 279.2 448.389 276.891C450.042 274.606 450.868 271.966 450.868 268.971C450.868 266.434 450.351 264.183 449.318 262.217C448.285 260.229 446.874 258.56 445.083 257.211C443.315 255.84 441.307 254.811 439.057 254.126C436.807 253.417 434.454 253.063 431.998 253.063C429.427 253.063 426.936 253.509 424.526 254.4C422.116 255.269 419.946 256.48 418.018 258.034C416.09 259.589 414.529 261.394 413.335 263.451C412.669 263.383 412.038 263.326 411.441 263.28C410.867 263.234 410.328 263.211 409.823 263.211C407.32 263.211 405.381 264.034 404.003 265.68C402.626 267.303 401.937 269.154 401.937 271.234C401.937 271.966 401.983 272.731 402.075 273.531C402.167 274.331 402.328 275.28 402.557 276.377L399.183 277.063C398.93 275.874 398.746 274.823 398.632 273.909C398.54 272.971 398.494 272.08 398.494 271.234C398.494 269.04 398.964 267.051 399.906 265.269C400.87 263.486 402.201 262.069 403.9 261.017C405.622 259.966 407.596 259.44 409.823 259.44C410.144 259.44 410.454 259.44 410.752 259.44C411.051 259.44 411.384 259.463 411.751 259.509C413.863 257.177 415.986 255.257 418.121 253.749C420.279 252.24 422.506 251.12 424.801 250.389C427.097 249.657 429.496 249.291 431.998 249.291C435.12 249.291 438.07 249.76 440.848 250.697C443.625 251.611 446.07 252.937 448.182 254.674C450.317 256.389 451.981 258.457 453.175 260.88C454.392 263.28 455 265.977 455 268.971C455 272.766 453.978 276.091 451.935 278.949C449.892 281.806 446.828 284.023 442.742 285.6C438.655 287.2 433.525 288 427.35 288H416.778ZM429.553 280.8C426.477 280.8 423.631 280.251 421.014 279.154C418.42 278.057 416.285 276.537 414.609 274.594C412.933 272.629 411.946 270.389 411.648 267.874L415.435 267.394C415.619 269.246 416.354 270.926 417.639 272.434C418.925 273.943 420.6 275.143 422.667 276.034C424.756 276.926 427.051 277.371 429.553 277.371C431.55 277.371 433.375 277.097 435.028 276.549C436.681 276.023 438.081 275.303 439.229 274.389C440.4 273.451 441.238 272.389 441.743 271.2L445.29 272.469C444.693 274.069 443.614 275.497 442.053 276.754C440.515 278.011 438.667 278.994 436.509 279.703C434.351 280.434 432.033 280.8 429.553 280.8ZM401.455 264.377C402.19 262.571 402.695 260.766 402.97 258.96C403.269 257.131 403.418 255.486 403.418 254.023C403.418 253.36 403.361 252.48 403.246 251.383C403.177 250.766 403.119 250.126 403.074 249.463C403.051 248.8 403.039 248.149 403.039 247.509C403.039 244.583 403.452 241.989 404.279 239.726C405.128 237.44 406.299 235.703 407.791 234.514L410.408 236.914C409.306 237.783 408.434 239.154 407.791 241.029C407.148 242.903 406.827 245.063 406.827 247.509C406.827 248.217 406.838 248.88 406.861 249.497C406.907 250.091 406.965 250.686 407.033 251.28C407.079 251.714 407.114 252.16 407.137 252.617C407.183 253.074 407.206 253.543 407.206 254.023C407.206 255.371 407.091 256.846 406.861 258.446C406.632 260.023 406.333 261.463 405.966 262.766L401.455 264.377ZM415.263 238.697C412.026 238.697 409.352 238.103 407.24 236.914C405.128 235.703 403.762 234.16 403.142 232.286L406.035 231.086C406.402 232.366 407.378 233.383 408.962 234.137C410.546 234.891 412.646 235.269 415.263 235.269C416.916 235.269 418.144 235.166 418.948 234.96C419.774 234.731 420.187 234.4 420.187 233.966C420.187 233.669 420.072 233.52 419.843 233.52V230.949C420.922 230.949 421.875 231.211 422.701 231.737C423.55 232.263 423.975 233.006 423.975 233.966C423.975 235.566 423.149 236.754 421.496 237.531C419.866 238.309 417.788 238.697 415.263 238.697Z" fill="#2B6550"/>
<path d="M349.261 124C344.175 124 339.214 122.96 334.379 120.88C329.544 118.823 325.051 115.84 320.9 111.931C315.175 106.514 310.922 100.857 308.139 94.96C305.38 89.04 304 83.4171 304 78.0914C304 73.2 305.083 68.7886 307.25 64.8571C309.417 60.9257 312.598 57.8057 316.795 55.4971C321.014 53.1657 326.168 52 332.258 52C336.272 52 340.275 52.6171 344.266 53.8514C348.257 55.0857 352.111 56.7886 355.829 58.96C359.546 61.1086 362.99 63.5886 366.161 66.4C369.331 69.2114 372.102 72.2171 374.474 75.4171C376.846 78.6171 378.693 81.8743 380.016 85.1886C381.339 88.48 382 91.68 382 94.7886C382 96.9829 381.418 98.9486 380.255 100.686C379.115 102.4 377.575 103.76 375.637 104.766C373.721 105.771 371.589 106.274 369.239 106.274C366.913 106.274 364.826 105.886 362.979 105.109C361.154 104.309 359.501 103.497 358.018 102.674C356.969 102.08 355.989 101.577 355.076 101.166C354.187 100.754 353.343 100.549 352.545 100.549C352.18 100.549 351.861 100.629 351.587 100.789C351.313 100.926 351.176 101.189 351.176 101.577C351.176 102.194 351.427 102.766 351.929 103.291C352.454 103.817 353.138 104.331 353.982 104.834C354.848 105.314 355.772 105.806 356.753 106.309C358.075 106.971 359.375 107.703 360.653 108.503C361.953 109.28 363.025 110.183 363.868 111.211C364.735 112.24 365.168 113.463 365.168 114.88C365.168 116.709 364.484 118.309 363.116 119.68C361.77 121.051 359.9 122.114 357.505 122.869C355.133 123.623 352.385 124 349.261 124ZM333.661 106.583C334.254 106.583 334.596 106.171 334.687 105.349C334.778 104.571 335.109 104.011 335.679 103.669C335.93 103.509 336.135 103.349 336.295 103.189C336.454 103.029 336.534 102.8 336.534 102.503C336.534 102.206 336.397 101.989 336.124 101.851C335.873 101.714 335.554 101.646 335.166 101.646C334.276 101.646 333.558 101.909 333.011 102.434C332.463 102.937 332.189 103.634 332.189 104.526C332.189 105.097 332.326 105.589 332.6 106C332.896 106.389 333.25 106.583 333.661 106.583ZM338.142 111.417C336.911 111.417 335.656 111.074 334.379 110.389C333.102 109.68 332.018 108.743 331.129 107.577C330.262 106.389 329.829 105.086 329.829 103.669C329.829 102.114 330.308 101.017 331.266 100.377C332.224 99.7371 333.467 99.4171 334.995 99.4171C337.093 99.4171 338.895 100.069 340.4 101.371C341.905 102.674 342.658 104.377 342.658 106.48C342.658 107.943 342.27 109.131 341.495 110.046C340.742 110.96 339.625 111.417 338.142 111.417ZM319.497 90.7429C320.09 90.7429 320.432 90.3314 320.524 89.5086C320.615 88.7314 320.946 88.1714 321.516 87.8286C321.767 87.6686 321.972 87.5086 322.132 87.3486C322.291 87.1886 322.371 86.96 322.371 86.6629C322.371 86.3657 322.234 86.1486 321.961 86.0114C321.71 85.8743 321.39 85.8057 321.003 85.8057C320.113 85.8057 319.395 86.0686 318.847 86.5943C318.3 87.0971 318.026 87.7943 318.026 88.6857C318.026 89.2571 318.163 89.7486 318.437 90.16C318.733 90.5486 319.087 90.7429 319.497 90.7429ZM324.047 95.8171C322.725 95.8171 321.436 95.4286 320.182 94.6514C318.927 93.8514 317.889 92.8686 317.068 91.7029C316.247 90.5143 315.837 89.3257 315.837 88.1371C315.837 86.9029 316.282 85.9086 317.171 85.1543C318.061 84.4 319.167 84.0229 320.489 84.0229C321.835 84.0229 323.101 84.3886 324.287 85.12C325.496 85.8286 326.476 86.7429 327.229 87.8629C328.004 88.9829 328.392 90.1486 328.392 91.36C328.392 92.5257 327.982 93.5657 327.161 94.48C326.339 95.3714 325.302 95.8171 324.047 95.8171ZM320.318 71.9543C320.911 71.9543 321.254 71.5429 321.345 70.72C321.436 69.9429 321.767 69.3829 322.337 69.04C322.588 68.88 322.793 68.72 322.953 68.56C323.112 68.4 323.192 68.1714 323.192 67.8743C323.192 67.5771 323.055 67.36 322.782 67.2229C322.531 67.0857 322.211 67.0171 321.824 67.0171C320.934 67.0171 320.216 67.28 319.668 67.8057C319.121 68.3086 318.847 69.0057 318.847 69.8971C318.847 70.4686 318.984 70.96 319.258 71.3714C319.554 71.76 319.908 71.9543 320.318 71.9543ZM323.466 75.8971C322.394 75.8971 321.345 75.5657 320.318 74.9029C319.315 74.24 318.482 73.4171 317.821 72.4343C317.16 71.4286 316.829 70.4571 316.829 69.52C316.829 68.3771 317.262 67.4057 318.129 66.6057C319.018 65.8057 320.079 65.4057 321.311 65.4057C322.36 65.4057 323.42 65.6571 324.492 66.16C325.587 66.6629 326.499 67.3257 327.229 68.1486C327.982 68.9714 328.358 69.8514 328.358 70.7886C328.358 72.1829 327.902 73.3829 326.989 74.3886C326.077 75.3943 324.903 75.8971 323.466 75.8971ZM349.261 119.886C351.541 119.886 353.56 119.657 355.316 119.2C357.095 118.743 358.497 118.137 359.524 117.383C360.55 116.629 361.063 115.794 361.063 114.88C361.063 113.943 360.516 113.109 359.421 112.377C358.349 111.669 357.083 110.96 355.624 110.251C354.324 109.589 353.012 108.869 351.689 108.091C350.367 107.291 349.261 106.354 348.371 105.28C347.504 104.183 347.071 102.846 347.071 101.269C347.071 99.9429 347.516 98.8114 348.405 97.8743C349.318 96.9143 350.504 96.4343 351.963 96.4343C353.446 96.4343 354.871 96.72 356.239 97.2914C357.608 97.8629 358.976 98.5143 360.345 99.2457C361.759 99.9771 363.196 100.651 364.655 101.269C366.115 101.863 367.643 102.16 369.239 102.16C370.859 102.16 372.318 101.84 373.618 101.2C374.941 100.537 375.979 99.6457 376.732 98.5257C377.507 97.3829 377.895 96.0914 377.895 94.6514C377.895 91.9314 377.279 89.1086 376.047 86.1829C374.816 83.2343 373.094 80.32 370.882 77.44C368.692 74.56 366.138 71.84 363.218 69.28C360.299 66.72 357.129 64.4571 353.708 62.4914C350.31 60.5029 346.786 58.9486 343.137 57.8286C339.511 56.6857 335.884 56.1143 332.258 56.1143C327.035 56.1143 322.622 57.0743 319.018 58.9943C315.438 60.9143 312.724 63.5314 310.876 66.8457C309.029 70.1371 308.105 73.8629 308.105 78.0229C308.105 81.2 308.664 84.5371 309.782 88.0343C310.922 91.5086 312.644 95.0171 314.947 98.56C317.274 102.103 320.193 105.554 323.705 108.914C327.468 112.503 331.528 115.223 335.884 117.074C340.263 118.949 344.722 119.886 349.261 119.886ZM357.471 94.72C355.829 94.72 354.232 94.2629 352.682 93.3486C351.154 92.4114 349.888 91.2114 348.884 89.7486C347.904 88.2857 347.413 86.7771 347.413 85.2229C347.413 83.6 347.938 82.2743 348.987 81.2457C350.059 80.1943 351.427 79.6686 353.092 79.6686C354.757 79.6686 356.354 80.1486 357.882 81.1086C359.41 82.0457 360.664 83.2571 361.645 84.7429C362.625 86.2057 363.116 87.7257 363.116 89.3029C363.116 90.9029 362.591 92.2057 361.542 93.2114C360.493 94.2171 359.136 94.72 357.471 94.72ZM357.471 91.2914C358.201 91.2914 358.748 91.12 359.113 90.7771C359.501 90.4343 359.695 89.9429 359.695 89.3029C359.695 88.3429 359.353 87.3943 358.668 86.4571C358.007 85.4971 357.163 84.6971 356.137 84.0571C355.133 83.4171 354.118 83.0971 353.092 83.0971C352.362 83.0971 351.804 83.28 351.416 83.6457C351.028 84.0114 350.834 84.5371 350.834 85.2229C350.834 86.16 351.176 87.0971 351.861 88.0343C352.545 88.9714 353.4 89.7486 354.426 90.3657C355.453 90.9829 356.468 91.2914 357.471 91.2914ZM339.1 69.1429C339.693 69.1429 340.035 68.7314 340.126 67.9086C340.218 67.1314 340.548 66.5714 341.118 66.2286C341.369 66.0686 341.575 65.9086 341.734 65.7486C341.894 65.5886 341.974 65.36 341.974 65.0629C341.974 64.7657 341.837 64.5486 341.563 64.4114C341.312 64.2743 340.993 64.2057 340.605 64.2057C339.716 64.2057 338.997 64.4686 338.45 64.9943C337.903 65.4971 337.629 66.1943 337.629 67.0857C337.629 67.6571 337.766 68.1486 338.039 68.56C338.336 68.9486 338.689 69.1429 339.1 69.1429ZM342.418 73.0171C341.21 73.0171 340.069 72.7429 338.997 72.1943C337.925 71.6457 337.047 70.9143 336.363 70C335.702 69.0857 335.371 68.0914 335.371 67.0171C335.371 65.76 335.804 64.7543 336.671 64C337.538 63.2457 338.655 62.8686 340.024 62.8686C341.21 62.8686 342.327 63.1771 343.376 63.7943C344.448 64.3886 345.326 65.1657 346.011 66.1257C346.695 67.0857 347.037 68.1029 347.037 69.1771C347.037 70.3657 346.569 71.3029 345.634 71.9886C344.722 72.6743 343.65 73.0171 342.418 73.0171ZM356.616 75.7943C357.118 75.7943 357.414 75.4286 357.505 74.6971C357.596 74.0571 357.882 73.5771 358.361 73.2571C358.862 72.9371 359.113 72.6057 359.113 72.2629C359.113 71.7371 358.714 71.4743 357.916 71.4743C357.14 71.4743 356.502 71.7143 356 72.1943C355.521 72.6514 355.282 73.2686 355.282 74.0457C355.282 74.5486 355.407 74.9714 355.658 75.3143C355.932 75.6343 356.251 75.7943 356.616 75.7943ZM360.447 79.5657C359.718 79.5657 359.09 79.44 358.566 79.1886C358.064 78.9143 357.619 78.56 357.232 78.1257C356.684 77.5086 356.034 77.0743 355.282 76.8229C354.666 76.6171 354.175 76.2171 353.811 75.6229C353.468 75.0057 353.297 74.3657 353.297 73.7029C353.297 72.6971 353.628 71.8629 354.289 71.2C354.974 70.5143 355.852 70.1714 356.924 70.1714C357.859 70.1714 358.999 70.4571 360.345 71.0286C361.645 71.5771 362.546 72.2629 363.047 73.0857C363.549 73.8857 363.8 74.6629 363.8 75.4171C363.8 76.3771 363.469 77.3143 362.808 78.2286C362.146 79.12 361.36 79.5657 360.447 79.5657Z" fill="#2B6550"/>
<path d="M257.436 290C251.783 290 246.644 289.15 242.017 287.45C237.39 285.773 233.402 283.37 230.051 280.242C226.724 277.137 224.16 273.431 222.359 269.124C220.558 264.795 219.658 260.001 219.658 254.742C219.658 252.634 219.715 251.093 219.829 250.118C219.966 249.143 220.262 248.361 220.718 247.772C221.083 248.361 221.732 249.268 222.667 250.492C223.624 251.716 224.969 253.065 226.701 254.538C228.456 255.989 230.701 257.383 233.436 258.72C236.171 260.057 239.51 261.168 243.453 262.052C247.419 262.913 252.08 263.344 257.436 263.344C262.792 263.344 267.442 262.913 271.385 262.052C275.35 261.168 278.701 260.057 281.436 258.72C284.171 257.383 286.405 255.989 288.137 254.538C289.892 253.065 291.236 251.716 292.171 250.492C293.128 249.268 293.789 248.361 294.154 247.772C294.61 248.361 294.895 249.143 295.009 250.118C295.145 251.093 295.214 252.634 295.214 254.742C295.214 260.001 294.313 264.795 292.513 269.124C290.712 273.431 288.137 277.137 284.786 280.242C281.459 283.37 277.481 285.773 272.855 287.45C268.228 289.15 263.088 290 257.436 290ZM230.12 254.742C229.778 253.201 229.254 251.807 228.547 250.56C227.84 249.291 227.077 248.282 226.256 247.534C225.459 246.763 224.695 246.378 223.966 246.378C223.647 246.378 223.373 246.571 223.145 246.956C222.94 247.319 222.838 247.931 222.838 248.792C222.838 249.472 222.963 250.401 223.214 251.58L219.863 252.328C219.567 251.059 219.419 249.88 219.419 248.792C219.419 247.069 219.818 245.675 220.615 244.61C221.436 243.522 222.553 242.978 223.966 242.978C225.311 242.978 226.61 243.465 227.863 244.44C229.14 245.392 230.268 246.707 231.248 248.384C232.251 250.039 232.991 251.909 233.47 253.994L230.12 254.742ZM240.308 259.4C239.92 259.4 239.59 259.185 239.316 258.754C239.043 258.323 238.906 257.813 238.906 257.224C238.906 256.635 239.043 256.125 239.316 255.694C239.59 255.263 239.92 255.048 240.308 255.048C240.695 255.048 241.014 255.263 241.265 255.694C241.538 256.125 241.675 256.635 241.675 257.224C241.675 257.813 241.538 258.323 241.265 258.754C241.014 259.185 240.695 259.4 240.308 259.4ZM257.436 286.26C262.45 286.26 267.02 285.535 271.145 284.084C275.271 282.633 278.815 280.559 281.778 277.862C284.764 275.142 287.066 271.889 288.684 268.104C290.302 264.319 291.111 260.103 291.111 255.456C291.111 255.343 291.111 255.229 291.111 255.116C291.111 254.98 291.111 254.855 291.111 254.742L291.966 256.238C289.801 258.097 287.407 259.706 284.786 261.066C282.165 262.426 279.373 263.559 276.41 264.466C273.47 265.35 270.405 266.007 267.214 266.438C264.023 266.869 260.764 267.084 257.436 267.084C254.131 267.084 250.872 266.869 247.658 266.438C244.467 266.007 241.39 265.35 238.427 264.466C235.487 263.559 232.707 262.426 230.085 261.066C227.464 259.706 225.071 258.097 222.906 256.238L223.761 254.742C223.761 254.855 223.761 254.98 223.761 255.116C223.761 255.229 223.761 255.343 223.761 255.456C223.761 260.103 224.57 264.319 226.188 268.104C227.806 271.889 230.097 275.142 233.06 277.862C236.046 280.559 239.601 282.633 243.726 284.084C247.852 285.535 252.422 286.26 257.436 286.26ZM245.744 257.496C245.379 257.655 244.98 257.598 244.547 257.326C244.137 257.054 243.806 256.646 243.556 256.102C243.305 255.558 243.202 255.037 243.248 254.538C243.316 254.039 243.533 253.711 243.897 253.552C244.239 253.371 244.615 253.427 245.026 253.722C245.459 253.994 245.801 254.402 246.051 254.946C246.302 255.49 246.393 256.011 246.325 256.51C246.279 256.986 246.085 257.315 245.744 257.496ZM232.991 254.368C233.174 253.847 233.345 253.28 233.504 252.668C233.664 252.033 233.823 251.308 233.983 250.492C234.553 247.84 235.282 245.857 236.171 244.542C237.06 243.205 238.37 242.071 240.103 241.142L241.538 243.794C240.217 244.497 239.248 245.335 238.632 246.31C238.04 247.262 237.481 248.871 236.957 251.138L236.615 252.6L232.991 254.368ZM234.359 249.064C234.359 246.344 233.368 243.987 231.385 241.992L233.573 239.884C234.735 241.176 235.601 242.593 236.171 244.134C236.741 245.675 237.026 247.319 237.026 249.064H234.359ZM231.624 260.862C230.917 260.023 230.302 259.105 229.778 258.108C229.254 257.088 228.855 256 228.581 254.844L252.65 242.162C254.04 244.043 255.043 245.925 255.658 247.806C256.274 249.665 256.581 251.478 256.581 253.246L253.162 251.886C253.071 250.254 252.501 248.497 251.453 246.616L232.786 256.476C233.858 258.652 235.464 260.205 237.607 261.134L231.624 260.862ZM221.231 254.742C219.521 252.793 218.222 250.866 217.333 248.962C216.444 247.035 216 245.233 216 243.556C216 241.312 216.752 239.453 218.256 237.98C219.761 236.507 221.573 235.77 223.692 235.77C224.467 235.77 225.276 235.872 226.12 236.076C226.712 234.149 227.875 232.665 229.607 231.622C231.362 230.579 233.345 230.058 235.556 230.058C237.447 230.058 239.031 230.364 240.308 230.976C240.923 230.341 241.687 229.877 242.598 229.582C243.533 229.265 244.444 229.106 245.333 229.106C247.613 229.106 249.584 229.956 251.248 231.656C252.934 233.356 254.336 235.895 255.453 239.272C256.57 242.649 257.402 246.854 257.949 251.886H254.564C254.04 248.441 253.288 245.256 252.308 242.332C251.328 239.385 250.188 237.017 248.889 235.226C247.59 233.435 246.177 232.54 244.65 232.54C244.011 232.54 243.305 232.744 242.53 233.152C241.755 233.56 241.117 234.093 240.615 234.75C239.932 234.433 239.179 234.183 238.359 234.002C237.538 233.798 236.695 233.696 235.829 233.696C233.983 233.696 232.285 234.251 230.735 235.362C229.208 236.473 228.251 237.833 227.863 239.442C227.407 239.306 226.952 239.204 226.496 239.136C226.04 239.068 225.584 239.034 225.128 239.034C223.556 239.034 222.245 239.465 221.197 240.326C220.171 241.165 219.658 242.287 219.658 243.692C219.658 246.185 221.208 249.143 224.308 252.566L221.231 254.742ZM250.188 254.062C249.937 254.357 249.561 254.47 249.06 254.402C248.558 254.334 248.08 254.107 247.624 253.722C247.168 253.337 246.86 252.906 246.701 252.43C246.564 251.954 246.61 251.569 246.838 251.274C247.088 250.957 247.453 250.843 247.932 250.934C248.433 251.002 248.912 251.229 249.368 251.614C249.846 251.999 250.165 252.43 250.325 252.906C250.484 253.359 250.439 253.745 250.188 254.062ZM270.701 263.378C269.835 263.355 268.741 263.174 267.419 262.834C266.12 262.471 264.775 262.029 263.385 261.508C261.994 260.987 260.695 260.454 259.487 259.91C258.302 259.366 257.379 258.89 256.718 258.482L258.325 255.762C258.986 256.17 259.875 256.635 260.991 257.156C262.108 257.677 263.293 258.187 264.547 258.686C265.823 259.185 267.031 259.615 268.171 259.978C269.333 260.341 270.279 260.567 271.009 260.658L270.701 263.378ZM264.41 261.236C263.954 260.148 263.726 258.969 263.726 257.7C263.726 256.408 263.943 255.071 264.376 253.688L267.35 254.64C267.191 255.207 267.054 255.739 266.94 256.238C266.849 256.737 266.803 257.213 266.803 257.666C266.803 258.097 266.849 258.505 266.94 258.89C267.031 259.275 267.157 259.638 267.316 259.978L264.41 261.236ZM227.897 233.322C227.897 231.101 228.376 229.163 229.333 227.508C230.313 225.831 231.601 224.527 233.197 223.598C234.792 222.669 236.513 222.204 238.359 222.204C239.385 222.204 240.422 222.363 241.47 222.68C242.541 222.997 243.567 223.496 244.547 224.176L242.632 226.964C241.265 226.035 239.84 225.57 238.359 225.57C237.105 225.57 235.943 225.887 234.872 226.522C233.801 227.157 232.934 228.029 232.274 229.14C231.635 230.251 231.316 231.531 231.316 232.982L227.897 233.322ZM248.342 264.194L244.889 262.698L246.325 259.434C247.601 256.51 248.991 254.334 250.496 252.906C252 251.455 253.766 250.594 255.795 250.322C256.296 248.418 257.185 246.933 258.462 245.868C259.761 244.803 261.231 244.27 262.872 244.27C264.011 244.27 265.174 244.542 266.359 245.086C266.838 244.678 267.373 244.383 267.966 244.202C268.558 243.998 269.151 243.896 269.744 243.896C271.293 243.896 272.627 244.395 273.744 245.392C274.199 245.165 274.667 245.007 275.145 244.916C275.647 244.803 276.148 244.746 276.65 244.746C277.972 244.746 279.316 245.075 280.684 245.732C282.051 246.389 283.225 247.285 284.205 248.418C284.934 249.234 285.994 249.823 287.385 250.186C288.798 250.549 290.792 250.73 293.368 250.73L291.145 254.028C289.14 254.028 287.51 253.892 286.256 253.62C285.003 253.325 283.977 252.917 283.179 252.396C282.382 251.852 281.652 251.217 280.991 250.492C280.262 249.676 279.521 249.143 278.769 248.894C278.04 248.622 277.174 248.486 276.171 248.486C275.67 248.486 275.168 248.565 274.667 248.724C274.188 248.86 273.721 249.087 273.265 249.404C272.718 248.815 272.148 248.407 271.556 248.18C270.986 247.931 270.416 247.806 269.846 247.806C269.299 247.806 268.764 247.908 268.239 248.112C267.738 248.316 267.271 248.577 266.838 248.894C266.245 248.441 265.652 248.112 265.06 247.908C264.467 247.681 263.886 247.568 263.316 247.568C262.063 247.568 260.98 248.067 260.068 249.064C259.179 250.039 258.678 251.399 258.564 253.144C257.219 253.144 256.057 253.371 255.077 253.824C254.12 254.277 253.231 255.071 252.41 256.204C251.59 257.337 250.724 258.913 249.812 260.93L248.342 264.194ZM271.248 264.432L267.897 263.82C268.33 261.44 269.026 259.321 269.983 257.462C270.963 255.581 272.103 254.107 273.402 253.042C274.701 251.954 276.057 251.41 277.47 251.41C278.997 251.41 280.182 252.022 281.026 253.246C281.892 254.47 282.325 256.045 282.325 257.972C282.325 258.607 282.279 259.287 282.188 260.012C282.097 260.737 281.96 261.497 281.778 262.29L278.427 261.542C278.746 260.091 278.906 258.901 278.906 257.972C278.906 256.907 278.769 256.113 278.496 255.592C278.222 255.071 277.88 254.81 277.47 254.81C276.695 254.81 275.886 255.241 275.043 256.102C274.222 256.963 273.47 258.119 272.786 259.57C272.103 261.021 271.59 262.641 271.248 264.432ZM261.675 247.194L258.325 246.378C258.689 244.995 258.872 243.624 258.872 242.264C258.872 239.567 258.12 236.994 256.615 234.546L252.855 237.096L249.197 235.396L257.368 229.854C260.65 233.662 262.291 237.821 262.291 242.332C262.291 243.896 262.085 245.517 261.675 247.194ZM239.624 231.316C240.422 228.483 241.664 226.227 243.35 224.55C245.037 222.85 247.339 222 250.256 222C252.148 222 253.915 222.442 255.556 223.326C256.832 222.759 258.12 222.476 259.419 222.476C261.47 222.476 263.248 223.133 264.752 224.448C266.279 225.763 267.259 227.361 267.692 229.242L265.915 233.356C265.39 233.356 264.98 233.005 264.684 232.302C264.387 231.599 264.16 230.851 264 230.058C263.795 228.993 263.259 228.097 262.393 227.372C261.55 226.624 260.547 226.25 259.385 226.25C258.724 226.25 258.051 226.363 257.368 226.59C256.707 226.817 256.057 227.123 255.419 227.508C254.689 226.964 253.858 226.533 252.923 226.216C252.011 225.876 251.088 225.706 250.154 225.706C248.376 225.706 246.963 226.216 245.915 227.236C244.866 228.233 244.08 229.571 243.556 231.248L239.624 231.316ZM273.265 244.202C273.014 243.885 272.969 243.499 273.128 243.046C273.288 242.57 273.607 242.139 274.085 241.754C274.541 241.369 275.02 241.142 275.521 241.074C276.023 240.983 276.387 241.097 276.615 241.414C276.866 241.709 276.912 242.094 276.752 242.57C276.593 243.046 276.285 243.477 275.829 243.862C275.373 244.247 274.895 244.474 274.393 244.542C273.892 244.61 273.516 244.497 273.265 244.202ZM279.897 246.242L277.402 245.086C277.652 244.542 277.983 244.134 278.393 243.862C278.826 243.567 279.214 243.511 279.556 243.692C279.92 243.851 280.125 244.179 280.171 244.678C280.239 245.177 280.148 245.698 279.897 246.242ZM283.145 249.54C282.781 249.54 282.462 249.325 282.188 248.894C281.915 248.463 281.778 247.953 281.778 247.364C281.778 246.775 281.915 246.265 282.188 245.834C282.462 245.403 282.781 245.188 283.145 245.188C283.533 245.188 283.863 245.403 284.137 245.834C284.41 246.265 284.547 246.775 284.547 247.364C284.547 247.953 284.41 248.463 284.137 248.894C283.863 249.325 283.533 249.54 283.145 249.54ZM295.214 252.906L291.453 252.702C291.818 251.637 292.068 250.685 292.205 249.846C292.365 248.985 292.444 248.225 292.444 247.568C292.444 245.868 292.057 244.723 291.282 244.134C290.53 243.522 289.846 243.103 289.231 242.876C287.818 242.332 286.655 241.663 285.744 240.87C284.832 240.054 284.194 238.887 283.829 237.368C283.442 235.736 282.644 234.761 281.436 234.444C280.251 234.104 278.781 233.9 277.026 233.832C277.026 232.993 276.832 232.257 276.444 231.622C276.057 230.965 275.499 230.455 274.769 230.092C274.063 229.707 273.208 229.514 272.205 229.514C270.974 229.514 270.017 229.809 269.333 230.398C268.672 230.987 268.342 231.815 268.342 232.88C268.342 233.945 268.023 234.659 267.385 235.022C266.769 235.385 265.892 235.566 264.752 235.566C264.228 235.566 263.681 235.623 263.111 235.736C262.541 235.849 261.789 236.11 260.855 236.518L259.111 232.914C260.296 232.415 261.311 232.098 262.154 231.962C262.997 231.826 263.829 231.758 264.65 231.758C264.832 229.809 265.504 228.324 266.667 227.304C267.852 226.284 269.47 225.774 271.521 225.774C273.413 225.774 275.077 226.159 276.513 226.93C277.972 227.701 279.077 228.789 279.829 230.194C281.744 230.421 283.396 231.157 284.786 232.404C286.177 233.651 287.088 235.101 287.521 236.756C287.704 237.391 288 237.878 288.41 238.218C288.821 238.558 289.493 238.921 290.427 239.306C294.142 240.825 296 243.545 296 247.466C296 248.237 295.932 249.075 295.795 249.982C295.681 250.866 295.487 251.841 295.214 252.906ZM285.846 251.274C286.872 250.821 287.795 250.197 288.615 249.404C289.459 248.611 290.142 247.681 290.667 246.616L272 236.756C271.499 237.685 271.088 238.705 270.769 239.816C270.473 240.904 270.325 242.513 270.325 244.644L266.974 245.392C266.974 242.808 267.259 240.451 267.829 238.32C268.422 236.189 269.413 234.183 270.803 232.302L294.872 244.984C294.325 247.273 293.311 249.279 291.829 251.002L285.846 251.274ZM294.188 243.148L291.043 241.856C291.499 240.745 291.726 239.68 291.726 238.66C291.726 237.368 291.407 236.201 290.769 235.158C290.154 234.115 289.299 233.288 288.205 232.676C287.134 232.064 285.926 231.758 284.581 231.758C283.259 231.758 282.04 232.177 280.923 233.016L278.872 230.296C280.558 229.004 282.462 228.358 284.581 228.358C286.564 228.358 288.353 228.823 289.949 229.752C291.544 230.659 292.809 231.894 293.744 233.458C294.678 234.999 295.145 236.733 295.145 238.66C295.145 239.363 295.066 240.099 294.906 240.87C294.746 241.641 294.507 242.4 294.188 243.148Z" fill="#2B6550"/>
<circle cx="418" cy="254" r="67" stroke="#2B6550" stroke-width="18"/>
<path d="M170 254C170 295.974 135.974 330 94 330C52.0264 330 18 295.974 18 254C18 212.026 52.0264 178 94 178C135.974 178 170 212.026 170 254ZM37 254C37 285.48 62.5198 311 94 311C125.48 311 151 285.48 151 254C151 222.52 125.48 197 94 197C62.5198 197 37 222.52 37 254Z" fill="#E7E0D6"/>
<path d="M332 254C332 295.974 297.974 330 256 330C214.026 330 180 295.974 180 254C180 212.026 214.026 178 256 178C297.974 178 332 212.026 332 254ZM199 254C199 285.48 224.52 311 256 311C287.48 311 313 285.48 313 254C313 222.52 287.48 197 256 197C224.52 197 199 222.52 199 254Z" fill="#E7E0D6"/>
<path d="M494 254C494 295.974 459.974 330 418 330C376.026 330 342 295.974 342 254C342 212.026 376.026 178 418 178C459.974 178 494 212.026 494 254ZM361 254C361 285.48 386.52 311 418 311C449.48 311 475 285.48 475 254C475 222.52 449.48 197 418 197C386.52 197 361 222.52 361 254Z" fill="#E7E0D6"/>
<path d="M418 86C418 127.974 383.974 162 342 162C300.026 162 266 127.974 266 86C266 44.0264 300.026 10 342 10C383.974 10 418 44.0264 418 86ZM285 86C285 117.48 310.52 143 342 143C373.48 143 399 117.48 399 86C399 54.5198 373.48 29 342 29C310.52 29 285 54.5198 285 86Z" fill="#E7E0D6"/>
<path d="M246 86C246 127.974 211.974 162 170 162C128.026 162 94 127.974 94 86C94 44.0264 128.026 10 170 10C211.974 10 246 44.0264 246 86ZM113 86C113 117.48 138.52 143 170 143C201.48 143 227 117.48 227 86C227 54.5198 201.48 29 170 29C138.52 29 113 54.5198 113 86Z" fill="#E7E0D6"/>
<path d="M246 86C246 127.974 211.974 162 170 162C128.026 162 94 127.974 94 86C94 44.0264 128.026 10 170 10C211.974 10 246 44.0264 246 86ZM113 86C113 117.48 138.52 143 170 143C201.48 143 227 117.48 227 86C227 54.5198 201.48 29 170 29C138.52 29 113 54.5198 113 86Z" fill="#2B6550"/>
<path d="M94 187.5C94 182.253 98.2696 177.939 103.475 178.593C110.2 179.438 116.796 181.181 123.084 183.785C132.305 187.605 140.683 193.203 147.74 200.26C154.797 207.317 160.395 215.695 164.215 224.916C166.819 231.204 168.562 237.8 169.407 244.525C170.061 249.73 165.747 254 160.5 254V254C155.253 254 151.081 249.718 150.21 244.544C149.499 240.314 148.31 236.168 146.661 232.187C143.797 225.271 139.598 218.988 134.305 213.695C129.012 208.402 122.729 204.203 115.813 201.339C111.832 199.69 107.686 198.501 103.456 197.79C98.2821 196.919 94 192.747 94 187.5V187.5Z" fill="#2B6550"/>
<path d="M342 19.5C342 14.2533 346.27 9.93868 351.476 10.5927C368.138 12.6862 383.739 20.2591 395.74 32.2599C409.993 46.5126 418 65.8435 418 86C418 106.156 409.993 125.487 395.74 139.74C383.739 151.741 368.138 159.314 351.476 161.407C346.27 162.061 342 157.747 342 152.5V152.5C342 147.253 346.283 143.081 351.457 142.21C363.066 140.257 373.871 134.739 382.305 126.305C392.995 115.616 399 101.117 399 86C399 70.8827 392.995 56.3845 382.305 45.6949C373.871 37.2608 363.066 31.7428 351.457 29.7897C346.283 28.9192 342 24.7467 342 19.5V19.5Z" fill="#2B6550"/>
<path d="M256 187.5C256 182.253 260.27 177.939 265.475 178.593C275.49 179.851 285.186 183.096 293.983 188.172C305.533 194.836 315.125 204.422 321.798 215.966C328.471 227.511 331.99 240.607 332 253.942C332.01 267.276 328.512 280.378 321.857 291.933C315.202 303.487 305.623 313.087 294.084 319.769C282.545 326.451 269.451 329.979 256.117 330C242.783 330.02 229.678 326.532 218.118 319.886C209.313 314.824 201.641 308.064 195.528 300.034C192.35 295.859 193.939 290.001 198.478 287.368V287.368C203.016 284.735 208.774 286.346 212.123 290.384C216.444 295.595 221.676 300.015 227.589 303.414C236.258 308.399 246.087 311.015 256.088 311C266.088 310.985 275.909 308.338 284.563 303.327C293.218 298.315 300.401 291.115 305.393 282.449C310.384 273.783 313.008 263.957 313 253.956C312.992 243.956 310.354 234.133 305.349 225.475C300.344 216.816 293.149 209.627 284.487 204.629C278.58 201.221 272.132 198.913 265.456 197.79C260.282 196.919 256 192.747 256 187.5V187.5Z" fill="#2B6550"/>
</svg>
