<svg width="512" height="340" viewBox="0 0 512 340" fill="none" xmlns="http://www.w3.org/2000/svg">
<rect x="266" y="120" width="200" height="100" rx="20" fill="#F38997"/>
<rect x="46" y="120" width="200" height="100" rx="20" fill="#70C4F7"/>
<rect x="46" y="240" width="420" height="100" rx="20" fill="#F6F1E8"/>
<path d="M279.625 289.711C279.24 285.294 277.624 281.073 274.961 277.528C272.298 273.982 268.695 271.254 264.56 269.654C260.425 268.053 255.924 267.643 251.568 268.471C247.212 269.299 243.175 271.332 239.916 274.338C235.565 278.335 232.877 283.823 232.386 289.711C232.346 290.177 232.403 290.646 232.554 291.089C232.705 291.532 232.946 291.938 233.262 292.283C233.579 292.627 233.963 292.902 234.391 293.09C234.82 293.278 235.282 293.375 235.75 293.375H254.313V305.188C254.313 306.978 255.024 308.695 256.29 309.96C257.555 311.226 259.272 311.938 261.063 311.938C262.853 311.938 264.57 311.226 265.835 309.96C267.101 308.695 267.813 306.978 267.813 305.188C267.813 304.74 267.635 304.311 267.318 303.994C267.002 303.678 266.573 303.5 266.125 303.5C265.677 303.5 265.248 303.678 264.932 303.994C264.615 304.311 264.438 304.74 264.438 305.188C264.438 306.083 264.082 306.941 263.449 307.574C262.816 308.207 261.958 308.562 261.063 308.562C260.167 308.562 259.309 308.207 258.676 307.574C258.043 306.941 257.688 306.083 257.688 305.188V293.375H276.25C276.719 293.377 277.182 293.281 277.612 293.093C278.042 292.906 278.427 292.631 278.745 292.287C279.062 291.942 279.305 291.535 279.456 291.091C279.608 290.648 279.665 290.178 279.625 289.711ZM235.75 290C236.124 285.653 237.89 281.542 240.785 278.279C243.681 275.015 247.552 272.772 251.823 271.883C249.351 275.234 246.265 281.164 245.911 290H235.75ZM249.282 290C249.575 283.509 251.503 278.86 253.142 276.027C253.95 274.62 254.908 273.305 256 272.104C257.09 273.305 258.046 274.62 258.852 276.027C261.653 280.866 262.539 286.051 262.712 290H249.282ZM266.083 290C265.728 281.164 262.642 275.234 260.177 271.872C264.451 272.759 268.324 275.003 271.221 278.269C274.117 281.536 275.881 285.65 276.25 290H266.083Z" fill="#553E33"/>
<rect x="46" width="420" height="100" rx="20" fill="#F5C744"/>
<path d="M169.452 163.516C169.241 162.867 168.843 162.296 168.308 161.873C167.772 161.45 167.124 161.195 166.444 161.141L153.999 160.137L149.194 148.516C148.934 147.883 148.491 147.341 147.923 146.96C147.355 146.579 146.686 146.375 146.001 146.375C145.317 146.375 144.648 146.579 144.079 146.96C143.511 147.341 143.068 147.883 142.809 148.516L138.008 160.134L125.556 161.141C124.875 161.198 124.226 161.455 123.691 161.88C123.155 162.305 122.757 162.878 122.546 163.528C122.335 164.178 122.321 164.876 122.504 165.534C122.688 166.192 123.062 166.782 123.579 167.228L133.072 175.419L130.18 187.666C130.018 188.331 130.058 189.03 130.293 189.673C130.529 190.315 130.951 190.874 131.505 191.276C132.058 191.679 132.719 191.908 133.404 191.935C134.088 191.961 134.764 191.784 135.348 191.425L146 184.869L156.659 191.425C157.242 191.779 157.917 191.954 158.599 191.925C159.282 191.897 159.94 191.667 160.492 191.265C161.044 190.863 161.464 190.307 161.701 189.667C161.937 189.026 161.979 188.33 161.82 187.666L158.918 175.417L168.41 167.226C168.931 166.78 169.309 166.19 169.494 165.529C169.68 164.869 169.665 164.168 169.452 163.516ZM166.216 164.67L155.944 173.529C155.709 173.731 155.535 173.993 155.44 174.288C155.345 174.582 155.332 174.897 155.404 175.197L158.542 188.444C158.55 188.463 158.551 188.483 158.545 188.502C158.538 188.521 158.524 188.537 158.507 188.546C158.469 188.575 158.458 188.569 158.426 188.546L146.884 181.448C146.618 181.284 146.312 181.198 146 181.198C145.688 181.198 145.382 181.284 145.116 181.448L133.574 188.55C133.542 188.569 133.534 188.575 133.494 188.55C133.476 188.541 133.462 188.525 133.455 188.506C133.449 188.488 133.45 188.467 133.458 188.449L136.596 175.202C136.668 174.901 136.655 174.586 136.56 174.292C136.465 173.998 136.291 173.735 136.056 173.533L125.784 164.674C125.758 164.653 125.735 164.634 125.756 164.568C125.777 164.503 125.794 164.511 125.826 164.507L139.309 163.419C139.618 163.392 139.914 163.281 140.164 163.097C140.414 162.913 140.609 162.664 140.727 162.377L145.92 149.803C145.937 149.767 145.943 149.75 145.994 149.75C146.044 149.75 146.051 149.767 146.068 149.803L151.273 162.377C151.392 162.664 151.588 162.913 151.839 163.096C152.09 163.279 152.387 163.389 152.697 163.415L166.18 164.503C166.212 164.503 166.231 164.503 166.25 164.564C166.269 164.625 166.25 164.649 166.216 164.67Z" fill="#122D47"/>
<path d="M366 151.437C361.995 151.437 358.08 152.625 354.75 154.85C351.42 157.075 348.824 160.238 347.291 163.938C345.759 167.638 345.358 171.71 346.139 175.638C346.92 179.566 348.849 183.174 351.681 186.006C354.513 188.838 358.121 190.767 362.049 191.548C365.978 192.33 370.049 191.929 373.749 190.396C377.45 188.863 380.612 186.268 382.837 182.938C385.062 179.608 386.25 175.693 386.25 171.687C386.244 166.319 384.108 161.172 380.312 157.375C376.516 153.579 371.369 151.444 366 151.437ZM366 188.562C362.662 188.562 359.4 187.573 356.625 185.719C353.85 183.864 351.687 181.229 350.41 178.145C349.132 175.062 348.798 171.669 349.449 168.395C350.1 165.122 351.708 162.115 354.068 159.755C356.428 157.395 359.434 155.788 362.708 155.137C365.981 154.486 369.374 154.82 372.458 156.097C375.541 157.374 378.177 159.537 380.031 162.312C381.885 165.087 382.875 168.35 382.875 171.687C382.87 176.161 381.09 180.451 377.927 183.614C374.763 186.778 370.474 188.557 366 188.562ZM352.006 150.944L345.256 157.694C344.94 158.011 344.51 158.188 344.063 158.188C343.615 158.188 343.185 158.011 342.869 157.694C342.552 157.377 342.374 156.948 342.374 156.5C342.374 156.052 342.552 155.623 342.869 155.306L349.619 148.556C349.935 148.239 350.365 148.062 350.813 148.062C351.26 148.062 351.69 148.239 352.006 148.556C352.323 148.873 352.501 149.302 352.501 149.75C352.501 150.198 352.323 150.627 352.006 150.944ZM389.131 157.694C388.975 157.851 388.789 157.975 388.584 158.06C388.379 158.145 388.159 158.189 387.938 158.189C387.716 158.189 387.496 158.145 387.291 158.06C387.086 157.975 386.9 157.851 386.744 157.694L379.994 150.944C379.677 150.627 379.499 150.198 379.499 149.75C379.499 149.302 379.677 148.873 379.994 148.556C380.31 148.239 380.74 148.062 381.188 148.062C381.635 148.062 382.065 148.239 382.381 148.556L389.131 155.306C389.288 155.463 389.413 155.649 389.498 155.854C389.583 156.059 389.626 156.278 389.626 156.5C389.626 156.722 389.583 156.941 389.498 157.146C389.413 157.351 389.288 157.537 389.131 157.694ZM377.813 170C378.26 170 378.689 170.178 379.006 170.494C379.322 170.811 379.5 171.24 379.5 171.687C379.5 172.135 379.322 172.564 379.006 172.881C378.689 173.197 378.26 173.375 377.813 173.375H366C365.552 173.375 365.123 173.197 364.807 172.881C364.49 172.564 364.313 172.135 364.313 171.687V159.875C364.313 159.427 364.49 158.998 364.807 158.682C365.123 158.365 365.552 158.187 366 158.187C366.448 158.187 366.877 158.365 367.193 158.682C367.51 158.998 367.688 159.427 367.688 159.875V170H377.813Z" fill="#460A19"/>
<path d="M267.789 55.3452C267.352 57.7893 266.176 60.0407 264.42 61.7963C262.664 63.5518 260.412 64.7273 257.968 65.1643C257.875 65.1792 257.781 65.1869 257.688 65.1875C257.264 65.1874 256.856 65.0282 256.545 64.7415C256.234 64.4548 256.041 64.0615 256.006 63.6397C255.971 63.2179 256.096 62.7983 256.356 62.4641C256.616 62.13 256.992 61.9057 257.409 61.8357C260.904 61.2472 263.87 58.2814 264.463 54.7798C264.538 54.3384 264.785 53.9449 265.15 53.6858C265.515 53.4267 265.968 53.3232 266.41 53.3982C266.851 53.4732 267.245 53.7204 267.504 54.0855C267.763 54.4507 267.866 54.9038 267.791 55.3452H267.789ZM274.562 53.375C274.562 58.2981 272.607 63.0195 269.126 66.5007C265.645 69.9818 260.923 71.9375 256 71.9375C251.077 71.9375 246.355 69.9818 242.874 66.5007C239.393 63.0195 237.438 58.2981 237.438 53.375C237.438 47.4856 239.758 41.4634 244.327 35.477C244.471 35.2874 244.654 35.1306 244.864 35.017C245.074 34.9034 245.305 34.8355 245.543 34.8177C245.781 34.8 246.019 34.8328 246.244 34.9141C246.468 34.9954 246.672 35.1232 246.843 35.2892L251.931 40.2273L256.572 27.4845C256.664 27.2304 256.817 27.0022 257.016 26.8194C257.216 26.6365 257.456 26.5042 257.717 26.4337C257.978 26.3632 258.253 26.3565 258.517 26.4142C258.781 26.4719 259.028 26.5923 259.236 26.7652C263.849 30.5938 274.562 40.8348 274.562 53.375ZM271.188 53.375C271.188 43.6529 263.638 35.2513 258.909 30.946L254.211 43.828C254.115 44.0926 253.954 44.3288 253.743 44.5152C253.532 44.7016 253.277 44.8322 253.003 44.8951C252.728 44.958 252.442 44.9512 252.171 44.8753C251.9 44.7995 251.652 44.657 251.45 44.4608L245.888 39.065C242.519 43.9271 240.812 48.7344 240.812 53.375C240.812 57.403 242.413 61.266 245.261 64.1142C248.109 66.9624 251.972 68.5625 256 68.5625C260.028 68.5625 263.891 66.9624 266.739 64.1142C269.587 61.266 271.188 57.403 271.188 53.375Z" fill="#713614"/>
</svg>
