<svg width="512" height="340" viewBox="0 0 512 340" fill="none" xmlns="http://www.w3.org/2000/svg">
<path opacity="0.33" d="M20 240H226C237.046 240 246 248.954 246 260V320C246 331.046 237.046 340 226 340H20V240Z" fill="#70C4F7"/>
<g opacity="0.25">
<path d="M96 268.062C91.6612 268.062 87.4198 269.349 83.8122 271.76C80.2046 274.17 77.3928 277.596 75.7324 281.605C74.072 285.613 73.6376 290.024 74.484 294.28C75.3305 298.535 77.4198 302.444 80.4879 305.512C83.5559 308.58 87.4648 310.67 91.7202 311.516C95.9757 312.362 100.387 311.928 104.395 310.268C108.404 308.607 111.83 305.795 114.24 302.188C116.651 298.58 117.938 294.339 117.938 290C117.931 284.184 115.618 278.607 111.505 274.495C107.393 270.382 101.816 268.069 96 268.062ZM96 308.562C92.3287 308.562 88.7398 307.474 85.6872 305.434C82.6346 303.394 80.2554 300.495 78.8505 297.104C77.4455 293.712 77.0779 289.979 77.7942 286.379C78.5104 282.778 80.2783 279.47 82.8743 276.874C85.4704 274.278 88.7779 272.51 92.3786 271.794C95.9794 271.078 99.7117 271.446 103.104 272.85C106.495 274.255 109.394 276.635 111.434 279.687C113.474 282.74 114.563 286.329 114.563 290C114.557 294.921 112.599 299.64 109.12 303.12C105.64 306.599 100.921 308.557 96 308.562ZM105.631 288.806C105.788 288.963 105.913 289.149 105.998 289.354C106.083 289.559 106.126 289.778 106.126 290C106.126 290.222 106.083 290.441 105.998 290.646C105.913 290.851 105.788 291.037 105.631 291.194L98.8814 297.944C98.5648 298.261 98.1353 298.438 97.6875 298.438C97.2397 298.438 96.8102 298.261 96.4936 297.944C96.177 297.627 95.9991 297.198 95.9991 296.75C95.9991 296.302 96.177 295.873 96.4936 295.556L100.364 291.687H87.5625C87.115 291.687 86.6857 291.51 86.3693 291.193C86.0528 290.877 85.875 290.448 85.875 290C85.875 289.552 86.0528 289.123 86.3693 288.807C86.6857 288.49 87.115 288.312 87.5625 288.312H100.364L96.4936 284.444C96.177 284.127 95.9991 283.698 95.9991 283.25C95.9991 282.802 96.177 282.373 96.4936 282.056C96.8102 281.739 97.2397 281.562 97.6875 281.562C98.1353 281.562 98.5648 281.739 98.8814 282.056L105.631 288.806Z" fill="#122D47"/>
</g>
<path opacity="0.33" d="M266 260C266 248.954 274.954 240 286 240H492V340H286C274.954 340 266 331.046 266 320V260Z" fill="#F5C744"/>
<g opacity="0.25">
<path d="M425.631 283.744C425.788 283.9 425.913 284.086 425.998 284.291C426.083 284.496 426.126 284.716 426.126 284.937C426.126 285.159 426.083 285.379 425.998 285.584C425.913 285.789 425.788 285.975 425.631 286.131L413.819 297.944C413.662 298.101 413.476 298.225 413.271 298.31C413.066 298.395 412.847 298.439 412.625 298.439C412.403 298.439 412.184 298.395 411.979 298.31C411.774 298.225 411.588 298.101 411.431 297.944L406.369 292.881C406.052 292.565 405.874 292.135 405.874 291.687C405.874 291.24 406.052 290.81 406.369 290.494C406.685 290.177 407.115 289.999 407.563 289.999C408.01 289.999 408.44 290.177 408.756 290.494L412.625 294.364L423.244 283.744C423.4 283.587 423.586 283.462 423.791 283.377C423.996 283.292 424.216 283.249 424.438 283.249C424.659 283.249 424.879 283.292 425.084 283.377C425.289 283.462 425.475 283.587 425.631 283.744ZM437.938 290C437.938 294.339 436.651 298.58 434.24 302.188C431.83 305.795 428.404 308.607 424.395 310.268C420.387 311.928 415.976 312.362 411.72 311.516C407.465 310.67 403.556 308.58 400.488 305.512C397.42 302.444 395.33 298.535 394.484 294.28C393.638 290.024 394.072 285.613 395.732 281.605C397.393 277.596 400.205 274.17 403.812 271.76C407.42 269.349 411.661 268.062 416 268.062C421.816 268.069 427.393 270.382 431.505 274.495C435.618 278.607 437.931 284.184 437.938 290ZM434.563 290C434.563 286.329 433.474 282.74 431.434 279.687C429.394 276.635 426.495 274.255 423.104 272.85C419.712 271.446 415.979 271.078 412.379 271.794C408.778 272.51 405.47 274.278 402.874 276.874C400.278 279.47 398.51 282.778 397.794 286.379C397.078 289.979 397.446 293.712 398.85 297.104C400.255 300.495 402.635 303.394 405.687 305.434C408.74 307.474 412.329 308.562 416 308.562C420.921 308.557 425.64 306.599 429.12 303.12C432.599 299.64 434.557 294.921 434.563 290Z" fill="#713614"/>
</g>
<path opacity="0.33" d="M266 20C266 8.9543 274.954 0 286 0H492V100H286C274.954 100 266 91.0457 266 80V20Z" fill="#E7E0D6"/>
<g opacity="0.25">
<path d="M423.944 44.4439L418.386 50L423.944 55.5561C424.101 55.7129 424.225 55.899 424.31 56.1039C424.395 56.3087 424.438 56.5283 424.438 56.75C424.438 56.9717 424.395 57.1913 424.31 57.3961C424.225 57.601 424.101 57.7871 423.944 57.9439C423.787 58.1007 423.601 58.2251 423.396 58.3099C423.191 58.3948 422.972 58.4384 422.75 58.4384C422.528 58.4384 422.309 58.3948 422.104 58.3099C421.899 58.2251 421.713 58.1007 421.556 57.9439L416 52.3857L410.444 57.9439C410.287 58.1007 410.101 58.2251 409.896 58.3099C409.691 58.3948 409.472 58.4384 409.25 58.4384C409.028 58.4384 408.809 58.3948 408.604 58.3099C408.399 58.2251 408.213 58.1007 408.056 57.9439C407.899 57.7871 407.775 57.601 407.69 57.3961C407.605 57.1913 407.562 56.9717 407.562 56.75C407.562 56.5283 407.605 56.3087 407.69 56.1039C407.775 55.899 407.899 55.7129 408.056 55.5561L413.614 50L408.056 44.4439C407.739 44.1273 407.562 43.6978 407.562 43.25C407.562 42.8022 407.739 42.3727 408.056 42.0561C408.373 41.7394 408.802 41.5616 409.25 41.5616C409.698 41.5616 410.127 41.7394 410.444 42.0561L416 47.6143L421.556 42.0561C421.713 41.8993 421.899 41.7749 422.104 41.6901C422.309 41.6052 422.528 41.5616 422.75 41.5616C422.972 41.5616 423.191 41.6052 423.396 41.6901C423.601 41.7749 423.787 41.8993 423.944 42.0561C424.101 42.2129 424.225 42.399 424.31 42.6039C424.395 42.8087 424.438 43.0283 424.438 43.25C424.438 43.4717 424.395 43.6913 424.31 43.8961C424.225 44.101 424.101 44.2871 423.944 44.4439ZM437.938 50C437.938 54.3388 436.651 58.5802 434.24 62.1878C431.83 65.7954 428.404 68.6072 424.395 70.2676C420.387 71.928 415.976 72.3624 411.72 71.516C407.465 70.6695 403.556 68.5802 400.488 65.5122C397.42 62.4441 395.33 58.5353 394.484 54.2798C393.638 50.0243 394.072 45.6134 395.732 41.6049C397.393 37.5963 400.205 34.1702 403.812 31.7596C407.42 29.3491 411.661 28.0625 416 28.0625C421.816 28.0686 427.393 30.3819 431.505 34.4946C435.618 38.6074 437.931 44.1837 437.938 50ZM434.563 50C434.563 46.3287 433.474 42.7398 431.434 39.6872C429.394 36.6346 426.495 34.2554 423.104 32.8505C419.712 31.4455 415.979 31.0779 412.379 31.7942C408.778 32.5104 405.47 34.2783 402.874 36.8743C400.278 39.4703 398.51 42.7779 397.794 46.3786C397.078 49.9794 397.446 53.7117 398.85 57.1036C400.255 60.4954 402.635 63.3945 405.687 65.4342C408.74 67.4738 412.329 68.5625 416 68.5625C420.921 68.5569 425.64 66.5994 429.12 63.1195C432.599 59.6396 434.557 54.9214 434.563 50Z" fill="#553E33"/>
</g>
<path opacity="0.33" d="M20 120H66C77.0457 120 86 128.954 86 140V200C86 211.046 77.0457 220 66 220H20V120Z" fill="#E7E0D6"/>
<path opacity="0.33" d="M426 140C426 128.954 434.954 120 446 120H492V220H446C434.954 220 426 211.046 426 200V140Z" fill="#F38997"/>
<rect x="106" y="120" width="300" height="100" rx="20" fill="#F5C744"/>
<path d="M265.631 163.744C265.788 163.9 265.913 164.086 265.998 164.291C266.083 164.496 266.126 164.716 266.126 164.937C266.126 165.159 266.083 165.379 265.998 165.584C265.913 165.789 265.788 165.975 265.631 166.131L253.819 177.944C253.662 178.101 253.476 178.225 253.271 178.31C253.066 178.395 252.847 178.439 252.625 178.439C252.403 178.439 252.184 178.395 251.979 178.31C251.774 178.225 251.588 178.101 251.431 177.944L246.369 172.881C246.052 172.565 245.874 172.135 245.874 171.687C245.874 171.24 246.052 170.81 246.369 170.494C246.685 170.177 247.115 169.999 247.563 169.999C248.01 169.999 248.44 170.177 248.756 170.494L252.625 174.364L263.244 163.744C263.4 163.587 263.586 163.462 263.791 163.377C263.996 163.292 264.216 163.249 264.438 163.249C264.659 163.249 264.879 163.292 265.084 163.377C265.289 163.462 265.475 163.587 265.631 163.744ZM277.938 170C277.938 174.339 276.651 178.58 274.24 182.188C271.83 185.795 268.404 188.607 264.395 190.268C260.387 191.928 255.976 192.362 251.72 191.516C247.465 190.67 243.556 188.58 240.488 185.512C237.42 182.444 235.33 178.535 234.484 174.28C233.638 170.024 234.072 165.613 235.732 161.605C237.393 157.596 240.205 154.17 243.812 151.76C247.42 149.349 251.661 148.062 256 148.062C261.816 148.069 267.393 150.382 271.505 154.495C275.618 158.607 277.931 164.184 277.938 170ZM274.563 170C274.563 166.329 273.474 162.74 271.434 159.687C269.394 156.635 266.495 154.255 263.104 152.85C259.712 151.446 255.979 151.078 252.379 151.794C248.778 152.51 245.47 154.278 242.874 156.874C240.278 159.47 238.51 162.778 237.794 166.379C237.078 169.979 237.446 173.712 238.85 177.104C240.255 180.495 242.635 183.394 245.687 185.434C248.74 187.474 252.329 188.562 256 188.562C260.921 188.557 265.64 186.599 269.12 183.12C272.599 179.64 274.557 174.921 274.563 170Z" fill="#713614"/>
<path d="M189.944 164.444L184.386 170L189.944 175.556C190.101 175.713 190.225 175.899 190.31 176.104C190.395 176.309 190.438 176.528 190.438 176.75C190.438 176.972 190.395 177.191 190.31 177.396C190.225 177.601 190.101 177.787 189.944 177.944C189.787 178.101 189.601 178.225 189.396 178.31C189.191 178.395 188.972 178.438 188.75 178.438C188.528 178.438 188.309 178.395 188.104 178.31C187.899 178.225 187.713 178.101 187.556 177.944L182 172.386L176.444 177.944C176.287 178.101 176.101 178.225 175.896 178.31C175.691 178.395 175.472 178.438 175.25 178.438C175.028 178.438 174.809 178.395 174.604 178.31C174.399 178.225 174.213 178.101 174.056 177.944C173.899 177.787 173.775 177.601 173.69 177.396C173.605 177.191 173.562 176.972 173.562 176.75C173.562 176.528 173.605 176.309 173.69 176.104C173.775 175.899 173.899 175.713 174.056 175.556L179.614 170L174.056 164.444C173.739 164.127 173.562 163.698 173.562 163.25C173.562 162.802 173.739 162.373 174.056 162.056C174.373 161.739 174.802 161.562 175.25 161.562C175.698 161.562 176.127 161.739 176.444 162.056L182 167.614L187.556 162.056C187.713 161.899 187.899 161.775 188.104 161.69C188.309 161.605 188.528 161.562 188.75 161.562C188.972 161.562 189.191 161.605 189.396 161.69C189.601 161.775 189.787 161.899 189.944 162.056C190.101 162.213 190.225 162.399 190.31 162.604C190.395 162.809 190.438 163.028 190.438 163.25C190.438 163.472 190.395 163.691 190.31 163.896C190.225 164.101 190.101 164.287 189.944 164.444ZM203.938 170C203.938 174.339 202.651 178.58 200.24 182.188C197.83 185.795 194.404 188.607 190.395 190.268C186.387 191.928 181.976 192.362 177.72 191.516C173.465 190.67 169.556 188.58 166.488 185.512C163.42 182.444 161.33 178.535 160.484 174.28C159.638 170.024 160.072 165.613 161.732 161.605C163.393 157.596 166.205 154.17 169.812 151.76C173.42 149.349 177.661 148.062 182 148.062C187.816 148.069 193.393 150.382 197.505 154.495C201.618 158.607 203.931 164.184 203.938 170ZM200.563 170C200.563 166.329 199.474 162.74 197.434 159.687C195.394 156.635 192.495 154.255 189.104 152.85C185.712 151.446 181.979 151.078 178.379 151.794C174.778 152.51 171.47 154.278 168.874 156.874C166.278 159.47 164.51 162.778 163.794 166.379C163.078 169.979 163.446 173.712 164.85 177.104C166.255 180.495 168.635 183.394 171.687 185.434C174.74 187.474 178.329 188.562 182 188.562C186.921 188.557 191.64 186.599 195.12 183.12C198.599 179.64 200.557 174.921 200.563 170Z" fill="#713614"/>
<path d="M330 148.062C325.661 148.062 321.42 149.349 317.812 151.76C314.205 154.17 311.393 157.596 309.732 161.605C308.072 165.613 307.638 170.024 308.484 174.28C309.33 178.535 311.42 182.444 314.488 185.512C317.556 188.58 321.465 190.67 325.72 191.516C329.976 192.362 334.387 191.928 338.395 190.268C342.404 188.607 345.83 185.795 348.24 182.188C350.651 178.58 351.938 174.339 351.938 170C351.931 164.184 349.618 158.607 345.505 154.495C341.393 150.382 335.816 148.069 330 148.062ZM330 188.562C326.329 188.562 322.74 187.474 319.687 185.434C316.635 183.394 314.255 180.495 312.85 177.104C311.446 173.712 311.078 169.979 311.794 166.379C312.51 162.778 314.278 159.47 316.874 156.874C319.47 154.278 322.778 152.51 326.379 151.794C329.979 151.078 333.712 151.446 337.104 152.85C340.495 154.255 343.394 156.635 345.434 159.687C347.474 162.74 348.563 166.329 348.563 170C348.557 174.921 346.599 179.64 343.12 183.12C339.64 186.599 334.921 188.557 330 188.562ZM339.631 168.806C339.788 168.963 339.913 169.149 339.998 169.354C340.083 169.559 340.126 169.778 340.126 170C340.126 170.222 340.083 170.441 339.998 170.646C339.913 170.851 339.788 171.037 339.631 171.194L332.881 177.944C332.565 178.261 332.135 178.438 331.688 178.438C331.24 178.438 330.81 178.261 330.494 177.944C330.177 177.627 329.999 177.198 329.999 176.75C329.999 176.302 330.177 175.873 330.494 175.556L334.364 171.687H321.563C321.115 171.687 320.686 171.51 320.369 171.193C320.053 170.877 319.875 170.448 319.875 170C319.875 169.552 320.053 169.123 320.369 168.807C320.686 168.49 321.115 168.312 321.563 168.312H334.364L330.494 164.444C330.177 164.127 329.999 163.698 329.999 163.25C329.999 162.802 330.177 162.373 330.494 162.056C330.81 161.739 331.24 161.562 331.688 161.562C332.135 161.562 332.565 161.739 332.881 162.056L339.631 168.806Z" fill="#713614"/>
<path opacity="0.33" d="M20 0H226C237.046 0 246 8.95431 246 20V80C246 91.0457 237.046 100 226 100H20V0Z" fill="#F38997"/>
<path opacity="0.25" d="M105.569 43.6811C105.726 43.8378 105.85 44.0239 105.935 44.2288C106.02 44.4336 106.064 44.6532 106.064 44.875C106.064 45.0968 106.02 45.3164 105.935 45.5212C105.85 45.7261 105.726 45.9122 105.569 46.0689L93.7564 57.8814C93.5997 58.0383 93.4136 58.1628 93.2087 58.2477C93.0039 58.3326 92.7843 58.3763 92.5625 58.3763C92.3407 58.3763 92.1212 58.3326 91.9163 58.2477C91.7114 58.1628 91.5253 58.0383 91.3686 57.8814L86.3061 52.8189C85.9895 52.5023 85.8116 52.0728 85.8116 51.625C85.8116 51.1772 85.9895 50.7477 86.3061 50.4311C86.6227 50.1144 87.0522 49.9366 87.5 49.9366C87.9478 49.9366 88.3773 50.1144 88.6939 50.4311L92.5625 54.3018L103.181 43.6811C103.338 43.5242 103.524 43.3997 103.729 43.3148C103.934 43.2299 104.153 43.1862 104.375 43.1862C104.597 43.1862 104.816 43.2299 105.021 43.3148C105.226 43.3997 105.412 43.5242 105.569 43.6811ZM117.875 49.9375C117.875 54.2763 116.588 58.5177 114.178 62.1253C111.767 65.7329 108.341 68.5447 104.333 70.2051C100.324 71.8655 95.9132 72.2999 91.6577 71.4535C87.4023 70.607 83.4934 68.5177 80.4254 65.4497C77.3573 62.3816 75.268 58.4728 74.4215 54.2173C73.5751 49.9618 74.0095 45.5509 75.6699 41.5424C77.3303 37.5338 80.1421 34.1077 83.7497 31.6971C87.3573 29.2866 91.5987 28 95.9375 28C101.754 28.0061 107.33 30.3194 111.443 34.4321C115.556 38.5449 117.869 44.1212 117.875 49.9375ZM114.5 49.9375C114.5 46.2662 113.411 42.6773 111.372 39.6247C109.332 36.5721 106.433 34.1929 103.041 32.788C99.6492 31.383 95.9169 31.0154 92.3161 31.7317C88.7154 32.4479 85.4079 34.2158 82.8118 36.8118C80.2158 39.4078 78.4479 42.7154 77.7317 46.3161C77.0154 49.9169 77.383 53.6492 78.788 57.0411C80.1929 60.4329 82.5721 63.332 85.6247 65.3717C88.6773 67.4113 92.2662 68.5 95.9375 68.5C100.859 68.4944 105.577 66.5369 109.057 63.057C112.537 59.5771 114.494 54.8589 114.5 49.9375Z" fill="#460A19"/>
</svg>
