<svg width="512" height="340" viewBox="0 0 512 340" fill="none" xmlns="http://www.w3.org/2000/svg">
<path d="M329.547 208.396V249.949H317.779V197.117H328.863L329.547 208.396ZM327.447 221.58L323.639 221.531C323.671 217.788 324.192 214.354 325.201 211.229C326.243 208.104 327.675 205.418 329.498 203.172C331.354 200.926 333.567 199.201 336.139 197.996C338.71 196.759 341.575 196.141 344.732 196.141C347.271 196.141 349.566 196.499 351.617 197.215C353.701 197.898 355.475 199.021 356.939 200.584C358.437 202.146 359.576 204.181 360.357 206.688C361.139 209.161 361.529 212.205 361.529 215.818V249.949H349.713V215.77C349.713 213.23 349.339 211.229 348.59 209.764C347.874 208.266 346.816 207.208 345.416 206.59C344.049 205.939 342.34 205.613 340.289 205.613C338.271 205.613 336.464 206.036 334.869 206.883C333.274 207.729 331.923 208.885 330.816 210.35C329.742 211.814 328.912 213.507 328.326 215.428C327.74 217.348 327.447 219.399 327.447 221.58Z" fill="#2B6550"/>
<path d="M258.893 224.119V222.996C258.893 219.188 259.446 215.656 260.553 212.4C261.66 209.113 263.255 206.264 265.338 203.855C267.454 201.414 270.025 199.526 273.053 198.191C276.113 196.824 279.563 196.141 283.404 196.141C287.278 196.141 290.729 196.824 293.756 198.191C296.816 199.526 299.404 201.414 301.52 203.855C303.635 206.264 305.247 209.113 306.354 212.4C307.46 215.656 308.014 219.188 308.014 222.996V224.119C308.014 227.928 307.46 231.46 306.354 234.715C305.247 237.97 303.635 240.818 301.52 243.26C299.404 245.669 296.832 247.557 293.805 248.924C290.777 250.258 287.343 250.926 283.502 250.926C279.628 250.926 276.161 250.258 273.102 248.924C270.074 247.557 267.503 245.669 265.387 243.26C263.271 240.818 261.66 237.97 260.553 234.715C259.446 231.46 258.893 227.928 258.893 224.119ZM270.66 222.996V224.119C270.66 226.495 270.904 228.742 271.393 230.857C271.881 232.973 272.646 234.829 273.688 236.424C274.729 238.019 276.064 239.272 277.691 240.184C279.319 241.095 281.256 241.551 283.502 241.551C285.683 241.551 287.571 241.095 289.166 240.184C290.794 239.272 292.128 238.019 293.17 236.424C294.212 234.829 294.977 232.973 295.465 230.857C295.986 228.742 296.246 226.495 296.246 224.119V222.996C296.246 220.652 295.986 218.439 295.465 216.355C294.977 214.24 294.195 212.368 293.121 210.74C292.079 209.113 290.745 207.843 289.117 206.932C287.522 205.988 285.618 205.516 283.404 205.516C281.191 205.516 279.27 205.988 277.643 206.932C276.048 207.843 274.729 209.113 273.688 210.74C272.646 212.368 271.881 214.24 271.393 216.355C270.904 218.439 270.66 220.652 270.66 222.996Z" fill="#2B6550"/>
<path d="M202.154 224.119V222.996C202.154 219.188 202.708 215.656 203.814 212.4C204.921 209.113 206.516 206.264 208.6 203.855C210.715 201.414 213.287 199.526 216.314 198.191C219.374 196.824 222.825 196.141 226.666 196.141C230.54 196.141 233.99 196.824 237.018 198.191C240.077 199.526 242.665 201.414 244.781 203.855C246.897 206.264 248.508 209.113 249.615 212.4C250.722 215.656 251.275 219.188 251.275 222.996V224.119C251.275 227.928 250.722 231.46 249.615 234.715C248.508 237.97 246.897 240.818 244.781 243.26C242.665 245.669 240.094 247.557 237.066 248.924C234.039 250.258 230.605 250.926 226.764 250.926C222.89 250.926 219.423 250.258 216.363 248.924C213.336 247.557 210.764 245.669 208.648 243.26C206.533 240.818 204.921 237.97 203.814 234.715C202.708 231.46 202.154 227.928 202.154 224.119ZM213.922 222.996V224.119C213.922 226.495 214.166 228.742 214.654 230.857C215.143 232.973 215.908 234.829 216.949 236.424C217.991 238.019 219.326 239.272 220.953 240.184C222.581 241.095 224.518 241.551 226.764 241.551C228.945 241.551 230.833 241.095 232.428 240.184C234.055 239.272 235.39 238.019 236.432 236.424C237.473 234.829 238.238 232.973 238.727 230.857C239.247 228.742 239.508 226.495 239.508 224.119V222.996C239.508 220.652 239.247 218.439 238.727 216.355C238.238 214.24 237.457 212.368 236.383 210.74C235.341 209.113 234.007 207.843 232.379 206.932C230.784 205.988 228.88 205.516 226.666 205.516C224.452 205.516 222.532 205.988 220.904 206.932C219.309 207.843 217.991 209.113 216.949 210.74C215.908 212.368 215.143 214.24 214.654 216.355C214.166 218.439 213.922 220.652 213.922 222.996Z" fill="#2B6550"/>
<path d="M182.574 235.643C182.574 234.471 182.281 233.413 181.695 232.469C181.109 231.492 179.986 230.613 178.326 229.832C176.699 229.051 174.29 228.335 171.1 227.684C168.3 227.065 165.729 226.333 163.385 225.486C161.074 224.607 159.088 223.549 157.428 222.312C155.768 221.076 154.482 219.611 153.57 217.918C152.659 216.225 152.203 214.272 152.203 212.059C152.203 209.91 152.675 207.876 153.619 205.955C154.563 204.035 155.914 202.342 157.672 200.877C159.43 199.412 161.562 198.257 164.068 197.41C166.607 196.564 169.439 196.141 172.564 196.141C176.992 196.141 180.784 196.889 183.941 198.387C187.132 199.852 189.573 201.854 191.266 204.393C192.958 206.899 193.805 209.731 193.805 212.889H182.037C182.037 211.489 181.679 210.187 180.963 208.982C180.279 207.745 179.238 206.753 177.838 206.004C176.438 205.223 174.68 204.832 172.564 204.832C170.546 204.832 168.87 205.158 167.535 205.809C166.233 206.427 165.257 207.241 164.605 208.25C163.987 209.259 163.678 210.366 163.678 211.57C163.678 212.449 163.84 213.247 164.166 213.963C164.524 214.646 165.11 215.281 165.924 215.867C166.738 216.421 167.844 216.941 169.244 217.43C170.676 217.918 172.467 218.39 174.615 218.846C178.652 219.692 182.118 220.783 185.016 222.117C187.945 223.419 190.191 225.112 191.754 227.195C193.316 229.246 194.098 231.85 194.098 235.008C194.098 237.352 193.593 239.5 192.584 241.453C191.607 243.374 190.175 245.05 188.287 246.482C186.399 247.882 184.137 248.973 181.5 249.754C178.896 250.535 175.966 250.926 172.711 250.926C167.926 250.926 163.873 250.079 160.553 248.387C157.232 246.661 154.71 244.464 152.984 241.795C151.292 239.093 150.445 236.294 150.445 233.396H161.822C161.952 235.577 162.555 237.319 163.629 238.621C164.736 239.891 166.103 240.818 167.73 241.404C169.391 241.958 171.1 242.234 172.857 242.234C174.973 242.234 176.747 241.958 178.18 241.404C179.612 240.818 180.702 240.037 181.451 239.061C182.2 238.051 182.574 236.912 182.574 235.643Z" fill="#2B6550"/>
<path d="M407.33 110.117H418.023V161.484C418.023 166.237 417.014 170.273 414.996 173.594C412.978 176.914 410.162 179.437 406.549 181.162C402.936 182.92 398.753 183.799 394 183.799C391.982 183.799 389.736 183.506 387.262 182.92C384.82 182.334 382.444 181.39 380.133 180.088C377.854 178.818 375.95 177.142 374.42 175.059L379.938 168.125C381.826 170.371 383.909 172.015 386.188 173.057C388.466 174.098 390.859 174.619 393.365 174.619C396.067 174.619 398.362 174.115 400.25 173.105C402.171 172.129 403.652 170.68 404.693 168.76C405.735 166.839 406.256 164.495 406.256 161.729V122.08L407.33 110.117ZM371.441 137.119V136.094C371.441 132.09 371.93 128.444 372.906 125.156C373.883 121.836 375.283 118.988 377.105 116.611C378.928 114.202 381.142 112.363 383.746 111.094C386.35 109.792 389.296 109.141 392.584 109.141C396.002 109.141 398.915 109.759 401.324 110.996C403.766 112.233 405.8 114.007 407.428 116.318C409.055 118.597 410.325 121.331 411.236 124.521C412.18 127.679 412.88 131.195 413.336 135.068V138.34C412.913 142.116 412.197 145.566 411.188 148.691C410.178 151.816 408.844 154.518 407.184 156.797C405.523 159.076 403.473 160.833 401.031 162.07C398.622 163.307 395.774 163.926 392.486 163.926C389.264 163.926 386.35 163.258 383.746 161.924C381.174 160.589 378.961 158.717 377.105 156.309C375.283 153.9 373.883 151.068 372.906 147.812C371.93 144.525 371.441 140.96 371.441 137.119ZM383.209 136.094V137.119C383.209 139.528 383.437 141.774 383.893 143.857C384.381 145.941 385.113 147.78 386.09 149.375C387.099 150.938 388.368 152.174 389.898 153.086C391.461 153.965 393.3 154.404 395.416 154.404C398.183 154.404 400.445 153.818 402.203 152.646C403.993 151.475 405.361 149.896 406.305 147.91C407.281 145.892 407.965 143.646 408.355 141.172V132.334C408.16 130.413 407.753 128.623 407.135 126.963C406.549 125.303 405.751 123.854 404.742 122.617C403.733 121.348 402.464 120.371 400.934 119.688C399.404 118.971 397.597 118.613 395.514 118.613C393.398 118.613 391.559 119.069 389.996 119.98C388.434 120.892 387.148 122.145 386.139 123.74C385.162 125.335 384.43 127.191 383.941 129.307C383.453 131.423 383.209 133.685 383.209 136.094Z" fill="#2B6550"/>
<path d="M329.498 121.396V162.949H317.73V110.117H328.814L329.498 121.396ZM327.398 134.58L323.59 134.531C323.622 130.788 324.143 127.354 325.152 124.229C326.194 121.104 327.626 118.418 329.449 116.172C331.305 113.926 333.518 112.201 336.09 110.996C338.661 109.759 341.526 109.141 344.684 109.141C347.223 109.141 349.518 109.499 351.568 110.215C353.652 110.898 355.426 112.021 356.891 113.584C358.388 115.146 359.527 117.181 360.309 119.688C361.09 122.161 361.48 125.205 361.48 128.818V162.949H349.664V128.77C349.664 126.23 349.29 124.229 348.541 122.764C347.825 121.266 346.767 120.208 345.367 119.59C344 118.939 342.291 118.613 340.24 118.613C338.222 118.613 336.415 119.036 334.82 119.883C333.225 120.729 331.874 121.885 330.768 123.35C329.693 124.814 328.863 126.507 328.277 128.428C327.691 130.348 327.398 132.399 327.398 134.58Z" fill="#2B6550"/>
<path d="M304.938 110.117V162.949H293.121V110.117H304.938ZM292.34 96.25C292.34 94.4596 292.926 92.9785 294.098 91.8066C295.302 90.6022 296.962 90 299.078 90C301.161 90 302.805 90.6022 304.01 91.8066C305.214 92.9785 305.816 94.4596 305.816 96.25C305.816 98.0078 305.214 99.4727 304.01 100.645C302.805 101.816 301.161 102.402 299.078 102.402C296.962 102.402 295.302 101.816 294.098 100.645C292.926 99.4727 292.34 98.0078 292.34 96.25Z" fill="#2B6550"/>
<path d="M216.998 120.859V162.949H205.23V110.117H216.314L216.998 120.859ZM215.094 134.58L211.09 134.531C211.09 130.885 211.546 127.516 212.457 124.424C213.368 121.331 214.703 118.646 216.461 116.367C218.219 114.056 220.4 112.282 223.004 111.045C225.641 109.775 228.684 109.141 232.135 109.141C234.544 109.141 236.741 109.499 238.727 110.215C240.745 110.898 242.486 111.989 243.951 113.486C245.449 114.984 246.588 116.904 247.369 119.248C248.183 121.592 248.59 124.424 248.59 127.744V162.949H236.822V128.77C236.822 126.198 236.432 124.18 235.65 122.715C234.902 121.25 233.811 120.208 232.379 119.59C230.979 118.939 229.303 118.613 227.35 118.613C225.136 118.613 223.248 119.036 221.686 119.883C220.156 120.729 218.902 121.885 217.926 123.35C216.949 124.814 216.233 126.507 215.777 128.428C215.322 130.348 215.094 132.399 215.094 134.58ZM247.857 131.455L242.34 132.676C242.34 129.486 242.779 126.475 243.658 123.643C244.57 120.778 245.888 118.271 247.613 116.123C249.371 113.942 251.536 112.233 254.107 110.996C256.679 109.759 259.625 109.141 262.945 109.141C265.647 109.141 268.056 109.515 270.172 110.264C272.32 110.98 274.143 112.119 275.641 113.682C277.138 115.244 278.277 117.279 279.059 119.785C279.84 122.259 280.23 125.254 280.23 128.77V162.949H268.414V128.721C268.414 126.051 268.023 123.984 267.242 122.52C266.493 121.055 265.419 120.046 264.02 119.492C262.62 118.906 260.943 118.613 258.99 118.613C257.167 118.613 255.556 118.955 254.156 119.639C252.789 120.29 251.633 121.217 250.689 122.422C249.745 123.594 249.029 124.945 248.541 126.475C248.085 128.005 247.857 129.665 247.857 131.455Z" fill="#2B6550"/>
<path d="M146.246 137.119V135.996C146.246 132.188 146.799 128.656 147.906 125.4C149.013 122.113 150.608 119.264 152.691 116.855C154.807 114.414 157.379 112.526 160.406 111.191C163.466 109.824 166.917 109.141 170.758 109.141C174.632 109.141 178.082 109.824 181.109 111.191C184.169 112.526 186.757 114.414 188.873 116.855C190.989 119.264 192.6 122.113 193.707 125.4C194.814 128.656 195.367 132.188 195.367 135.996V137.119C195.367 140.928 194.814 144.46 193.707 147.715C192.6 150.97 190.989 153.818 188.873 156.26C186.757 158.669 184.186 160.557 181.158 161.924C178.131 163.258 174.697 163.926 170.855 163.926C166.982 163.926 163.515 163.258 160.455 161.924C157.428 160.557 154.856 158.669 152.74 156.26C150.624 153.818 149.013 150.97 147.906 147.715C146.799 144.46 146.246 140.928 146.246 137.119ZM158.014 135.996V137.119C158.014 139.495 158.258 141.742 158.746 143.857C159.234 145.973 159.999 147.829 161.041 149.424C162.083 151.019 163.417 152.272 165.045 153.184C166.673 154.095 168.609 154.551 170.855 154.551C173.036 154.551 174.924 154.095 176.52 153.184C178.147 152.272 179.482 151.019 180.523 149.424C181.565 147.829 182.33 145.973 182.818 143.857C183.339 141.742 183.6 139.495 183.6 137.119V135.996C183.6 133.652 183.339 131.439 182.818 129.355C182.33 127.24 181.549 125.368 180.475 123.74C179.433 122.113 178.098 120.843 176.471 119.932C174.876 118.988 172.971 118.516 170.758 118.516C168.544 118.516 166.624 118.988 164.996 119.932C163.401 120.843 162.083 122.113 161.041 123.74C159.999 125.368 159.234 127.24 158.746 129.355C158.258 131.439 158.014 133.652 158.014 135.996Z" fill="#2B6550"/>
<path d="M117.828 154.551C119.749 154.551 121.474 154.176 123.004 153.428C124.566 152.646 125.82 151.572 126.764 150.205C127.74 148.838 128.277 147.259 128.375 145.469H139.459C139.394 148.887 138.385 151.995 136.432 154.795C134.479 157.594 131.891 159.824 128.668 161.484C125.445 163.112 121.881 163.926 117.975 163.926C113.938 163.926 110.423 163.242 107.428 161.875C104.433 160.475 101.943 158.555 99.957 156.113C97.9714 153.672 96.474 150.856 95.4648 147.666C94.4883 144.476 94 141.058 94 137.412V135.703C94 132.057 94.4883 128.639 95.4648 125.449C96.474 122.227 97.9714 119.395 99.957 116.953C101.943 114.512 104.433 112.607 107.428 111.24C110.423 109.84 113.922 109.141 117.926 109.141C122.158 109.141 125.868 109.987 129.059 111.68C132.249 113.34 134.755 115.667 136.578 118.662C138.434 121.624 139.394 125.075 139.459 129.014H128.375C128.277 127.061 127.789 125.303 126.91 123.74C126.064 122.145 124.859 120.876 123.297 119.932C121.767 118.988 119.928 118.516 117.779 118.516C115.403 118.516 113.434 119.004 111.871 119.98C110.309 120.924 109.088 122.227 108.209 123.887C107.33 125.514 106.695 127.354 106.305 129.404C105.947 131.423 105.768 133.522 105.768 135.703V137.412C105.768 139.593 105.947 141.709 106.305 143.76C106.663 145.811 107.281 147.65 108.16 149.277C109.072 150.872 110.309 152.158 111.871 153.135C113.434 154.079 115.419 154.551 117.828 154.551Z" fill="#2B6550"/>
</svg>
