<svg width="512" height="512" viewBox="0 0 512 512" fill="none" xmlns="http://www.w3.org/2000/svg">
<g clip-path="url(#clip0_326_34)">
<rect width="512" height="512" rx="110" fill="#FAF2E6"/>
<path d="M359.997 52.8717C358.932 53.1483 356.586 54.3103 355.303 55.1956C353.705 56.3024 349.839 59.9176 349.208 60.8767C348.991 61.2272 348.36 62.0019 347.827 62.629C347.294 63.2562 346.703 64.0124 346.525 64.3259C345.362 66.318 344.335 67.9227 343.586 68.9003C343.113 69.5274 342.6 70.3574 342.422 70.7448C342.245 71.1505 341.555 72.2573 340.864 73.2349C340.194 74.194 339.384 75.4483 339.089 76.0016C338.3 77.4588 337.274 79.0266 336.051 80.5944C335.459 81.3507 334.69 82.6049 334.315 83.3612C333.94 84.1174 333.546 84.9105 333.427 85.1134C333.309 85.3163 332.658 86.4783 331.988 87.7142C331.317 88.9316 330.469 90.3888 330.094 90.9418C329.719 91.4953 329.265 92.1777 329.088 92.4918C328.082 94.1329 327.569 94.9442 326.898 95.9406C326.504 96.5309 325.755 97.8037 325.261 98.7255C323.545 102.009 322.302 104.075 321.474 105.052C321.138 105.458 320.29 106.731 319.6 107.893C317.883 110.77 316.898 112.227 315.833 113.426C314.688 114.717 313.683 115.99 312.834 117.226C312.46 117.761 312.084 118.241 311.986 118.296C311.888 118.351 311.473 118.886 311.059 119.458C310.644 120.049 309.777 121.155 309.106 121.912C306.64 124.733 303.642 128.828 302.577 130.801C302.202 131.502 301.097 133.089 300.131 134.325C299.164 135.561 298.158 136.852 297.922 137.183C297.409 137.847 293.484 141.205 291.965 142.237C290.387 143.344 289.4 143.676 287.23 143.879C285.317 144.064 282.831 144.1 282.595 143.971C282.397 143.861 276.677 144.82 275.672 145.134C274.29 145.576 271.923 146.24 271.232 146.406C266.617 147.494 260.917 148.38 259.634 148.214C259.181 148.158 258.096 148.066 257.228 147.992C255.334 147.863 254.19 147.549 252.099 146.609C248.608 145.023 245.59 143.012 242.434 140.153C238.547 136.63 237.423 135.579 236.417 134.454C235.826 133.79 235.273 133.236 235.195 133.199C235.115 133.163 234.721 132.701 234.307 132.185C233.892 131.65 233.143 130.728 232.611 130.119C232.097 129.51 231.387 128.551 231.052 127.998C230.717 127.445 230.381 126.946 230.302 126.891C230.243 126.836 229.789 126.301 229.316 125.692C228.863 125.083 228.133 124.272 227.718 123.904C227.285 123.516 226.949 123.128 226.949 123.036C226.949 122.944 226.437 122.39 225.785 121.8C224.345 120.454 222.294 118.149 221.899 117.466C221.741 117.171 221.229 116.415 220.735 115.769C220.262 115.123 219.69 114.201 219.473 113.74C219.039 112.817 216.711 108.962 216.495 108.815C216.415 108.76 216.16 108.317 215.922 107.82C215.686 107.303 215.291 106.639 215.055 106.343C214.798 106.03 214.167 105.071 213.654 104.223C213.121 103.356 212.53 102.488 212.332 102.286C212.135 102.083 211.899 101.751 211.84 101.548C211.76 101.326 211.445 100.81 211.149 100.386C210.834 99.9614 210.577 99.5746 210.577 99.5009C210.577 99.4447 210.222 98.7071 209.807 97.8773C208.624 95.5529 207.421 92.9706 207.421 92.7128C207.401 91.9199 205.665 87.6958 204.876 86.5152C204.561 86.0541 204.028 85.1134 203.693 84.4494C203.358 83.7854 202.943 83.1214 202.785 82.9922C202.607 82.8447 202.331 82.4942 202.154 82.1807C201.996 81.8672 201.188 80.7789 200.399 79.7644C198.821 77.7724 197.874 76.4443 196.177 73.7697C195.585 72.8291 194.777 71.7223 194.402 71.2982C194.007 70.8924 193.455 70.2467 193.159 69.8594C192.864 69.4906 192.528 69.0847 192.39 68.9372C192.232 68.8081 191.818 68.3285 191.443 67.8674C190.654 66.9267 188.504 64.99 187.261 64.0861C186.787 63.7541 185.486 62.9979 184.342 62.4077C183.218 61.8358 181.777 61.0058 181.166 60.6001C179.805 59.6963 177.537 58.5157 176.057 57.9809C175.466 57.7596 174.519 57.4091 173.966 57.2062C172.763 56.7451 169.074 56.3393 167.713 56.5053C166.589 56.6528 165.425 57.1139 163.709 58.1284C162.071 59.0691 160.77 60.7476 158.738 64.3997C157.475 66.7053 156.884 68.0702 155.838 71.1321C155.129 73.2349 154.142 76.0938 153.669 77.4772C153.195 78.8606 152.702 80.5207 152.583 81.1662C152.486 81.8118 152.248 82.7524 152.091 83.2505C151.933 83.7485 151.794 84.431 151.794 84.763C151.794 85.095 151.657 85.759 151.479 86.2386C151.301 86.7181 151.045 88.0278 150.887 89.1529C150.75 90.278 150.493 91.6611 150.315 92.2146C150.157 92.7681 150.02 93.432 150.02 93.6899C150.02 93.9487 149.664 95.3503 149.25 96.8256C146.686 105.845 146.548 106.38 146.371 107.856C146.311 108.484 146.133 109.332 145.976 109.719C145.837 110.125 145.601 111.416 145.483 112.596C145.364 113.777 145.127 115.087 144.97 115.492C144.831 115.88 144.654 116.765 144.575 117.448C144.516 118.13 144.279 119.31 144.082 120.067C143.884 120.823 143.589 122.686 143.431 124.217C143.273 125.729 143.017 127.389 142.84 127.906C142.682 128.404 142.445 129.732 142.327 130.857C142.208 131.964 141.971 133.291 141.813 133.808C141.656 134.306 141.222 137.718 140.847 141.371C140.473 145.023 140.038 148.472 139.88 149.025C139.604 150.003 139.288 151.386 138.381 155.389C138.145 156.403 137.79 157.805 137.592 158.525C137.375 159.226 136.862 161.107 136.429 162.674C135.185 167.212 134.89 168.282 133.331 173.188C132.976 174.35 132.582 175.808 132.483 176.416C132.385 177.024 132.207 177.763 132.069 178.076C131.951 178.372 131.576 181.23 131.261 184.44C130.373 193.201 130.511 194.732 133.272 205.006C133.588 206.223 134.417 208.548 135.126 210.17C135.817 211.794 136.586 213.657 136.823 214.321C137.06 214.985 137.415 215.833 137.612 216.202C137.948 216.829 137.948 216.922 137.672 217.549C137.198 218.618 136.921 221.311 137.198 222.178C137.651 223.58 137.769 226.973 137.474 229.815C137.336 231.29 137.159 234.112 137.119 236.086C137.02 240.199 136.429 245.806 135.915 247.429C134.575 251.801 132.563 256.652 131.399 258.385C131.103 258.81 130.61 259.768 130.314 260.507C129.998 261.245 129.485 262.222 129.169 262.665C128.538 263.531 127.552 265.302 126.625 267.257C126.309 267.921 125.501 269.453 124.811 270.651C124.119 271.85 123.351 273.345 123.094 273.972C122.837 274.599 121.832 276.83 120.845 278.951C119.859 281.055 118.913 283.268 118.734 283.84C118.557 284.412 118.202 285.241 117.966 285.703C117.373 286.81 115.48 292.158 114.928 294.279C114.691 295.184 114.376 296.346 114.218 296.861C114.08 297.36 113.902 298.153 113.823 298.614C113.764 299.075 113.527 300.181 113.31 301.104C113.113 302.008 112.62 305.955 112.245 309.866C111.87 313.776 111.495 317.464 111.436 318.073C111.199 320.158 111.338 327.536 111.653 329.694C111.693 329.989 111.771 331.243 111.851 332.461C111.91 333.678 111.988 335.006 112.047 335.411C112.107 335.818 112.186 336.814 112.245 337.625C112.304 338.437 112.482 339.838 112.64 340.761C112.798 341.664 112.975 342.919 113.034 343.527C113.113 344.136 113.231 345.133 113.33 345.741C113.665 347.844 113.409 356.624 112.857 362.249C112.56 365.145 112.205 367.912 112.047 368.428C111.91 368.927 111.712 369.756 111.653 370.273C111.515 371.158 111.22 372.449 110.351 375.899C108.971 381.34 107.925 384.531 106.052 388.847C105.499 390.138 105.046 391.264 105.046 391.337C105.046 391.411 104.749 391.946 104.375 392.517C104.019 393.07 103.527 393.993 103.31 394.565C103.072 395.137 102.185 396.668 101.337 397.977C99.4627 400.836 97.9438 403.493 97.3914 404.857C97.1743 405.429 96.4444 406.702 95.7737 407.716C94.3935 409.782 93.7625 410.907 93.4068 411.94C93.2692 412.327 92.8747 413.121 92.4996 413.692C92.1448 414.264 91.6117 415.279 91.3355 415.979C91.0602 416.662 90.5078 417.861 90.0735 418.654C89.6597 419.428 89.1663 420.535 88.9686 421.089C88.7718 421.642 88.4161 422.49 88.1602 422.952C87.9237 423.413 87.4701 424.482 87.1735 425.35C86.8973 426.198 86.4834 427.194 86.3061 427.544C86.1083 427.895 85.3194 429.85 84.5304 431.879C83.7414 433.908 82.8536 436.196 82.558 436.952C82.242 437.708 81.8475 438.907 81.6701 439.626C81.4927 440.327 81.0585 441.747 80.7038 442.762C80.349 443.776 79.7966 445.307 79.5009 446.174C79.2044 447.04 78.7711 448.074 78.5142 448.48C77.8435 449.586 75.9893 454.658 75.3777 457.056C75.0821 458.219 74.6682 459.841 74.4511 460.635C74.234 461.538 73.7998 465.062 73.3656 469.581C72.6561 477.069 72.6561 477.069 72.0047 478.397C71.6296 479.135 71.0781 480.057 70.7622 480.427C70.4462 480.813 69.5593 482.252 68.7704 483.618C68.0008 484.982 67.0936 486.568 66.7582 487.122C65.2588 489.686 64.1936 491.917 64.0162 492.84C63.582 495.219 63.2272 500.18 63.4443 501.103C63.7399 502.468 65.2394 504.755 66.7378 506.176C69.224 508.536 73.9975 510.805 79.3827 512.207C81.138 512.668 82.7751 512.871 89.5608 513.498C96.6819 514.143 97.8847 514.309 99.6207 514.789C100.705 515.103 102.757 515.693 104.158 516.08C107.63 517.077 112.107 518.607 112.758 519.05C113.054 519.253 113.684 519.567 114.158 519.769C115.224 520.212 119.09 522.536 120.687 523.698C121.358 524.178 122.542 524.952 123.292 525.432C124.06 525.911 125.066 526.613 125.56 527.018C126.053 527.406 126.842 527.922 127.335 528.162C127.828 528.401 128.538 528.9 128.913 529.269C129.287 529.656 130.353 530.431 131.28 530.984C132.207 531.537 133.529 532.441 134.239 532.957C135.936 534.211 138.558 535.669 140.176 536.241C140.887 536.499 141.853 536.887 142.346 537.108C143.313 537.587 147.257 539.136 150.315 540.28C154.123 541.682 155.977 542.272 158.264 542.807C161.184 543.471 165.997 544.818 170.948 546.348C171.895 546.644 172.842 546.883 173.078 546.883C173.295 546.883 174.301 547.124 175.308 547.437C179.035 548.544 190.082 550.979 193.811 551.513C196.65 551.919 199.373 552.491 201.858 553.173C207.362 554.722 208.742 554.944 215.528 555.553C223.754 556.272 223.339 556.217 224.701 556.53C225.332 556.696 226.258 556.862 226.752 556.918C228.35 557.12 234.484 558.283 237.206 558.891C238.015 559.075 240.737 559.389 243.223 559.592C245.728 559.813 248.252 560.109 248.845 560.274C249.436 560.44 252.868 560.846 256.439 561.178C261.804 561.658 263.579 561.75 266.499 561.694C268.452 561.658 274.448 561.602 279.813 561.566C285.179 561.529 290.465 561.4 291.55 561.289C294.627 560.994 296.304 560.902 301.611 560.81C304.332 560.754 307.351 560.644 308.317 560.532C309.304 560.44 311 560.274 312.124 560.182C313.228 560.072 314.215 559.961 314.293 559.925C314.373 559.868 314.964 559.776 315.615 559.721C320.448 559.223 323.249 558.577 325.755 557.398C326.603 556.991 327.392 556.659 327.49 556.659C327.609 556.659 328.259 556.309 328.97 555.866C329.679 555.442 331.179 554.759 332.303 554.372C335.38 553.339 336.268 552.897 337.669 551.79L338.951 550.794L342.067 550.573C345.736 550.333 346.486 550.203 348.163 549.466C348.853 549.152 349.543 548.912 349.682 548.912C350.352 548.894 356.132 546.662 356.842 546.146C356.96 546.072 357.493 545.776 358.025 545.482C358.577 545.205 359.327 544.818 359.702 544.615C360.077 544.411 360.649 544.043 360.965 543.803C361.3 543.545 362.266 543.028 363.134 542.66C364.022 542.272 365.738 541.314 366.961 540.501C368.184 539.708 369.88 538.657 370.729 538.178C372.425 537.218 375.009 534.839 375.68 533.603C375.916 533.161 376.291 531.684 376.587 530.043C377.1 527.295 377.1 527.203 376.784 525.303C376.627 524.233 376.429 522.905 376.37 522.352C376.172 520.691 375.68 518.035 375.383 516.985C375.226 516.431 374.91 515.122 374.693 514.051C373.668 509.089 372.484 505.087 371.143 502.247C370.512 500.881 369.92 499.498 369.841 499.203C369.762 498.889 369.485 498.207 369.23 497.653C368.973 497.101 368.539 495.791 368.263 494.74C367.829 493.024 367.533 492.305 366.507 490.626C365.836 489.52 364.831 487.435 364.555 486.568C364.376 486.033 363.667 484.466 362.957 483.083C362.246 481.699 361.674 480.5 361.674 480.427C361.674 480.352 361.221 479.357 360.668 478.213C359.544 475.87 357.63 470.632 357.335 468.954C357.217 468.345 356.901 466.962 356.624 465.892C356.369 464.822 356.151 463.696 356.151 463.383C356.151 463.088 356.013 462.423 355.856 461.945C355.698 461.446 355.52 460.468 355.461 459.749C355.343 458.588 354.652 454.991 354.179 453.183C353.725 451.375 353.725 451.467 354.238 451.56C354.711 451.652 355.5 451.56 360.885 450.803C364.199 450.343 364.988 450.158 368.479 448.996C370.965 448.166 374.062 446.672 375.482 445.62C376.469 444.883 380.749 440.788 382.15 439.238C384.694 436.453 385.917 434.166 387.377 429.573C387.988 427.673 388.619 421.974 388.423 420.185C388.185 418.137 387.396 414.854 386.272 411.405C385.681 409.579 385.128 407.808 385.05 407.477C384.714 405.945 382.011 401.611 379.802 399.047C379.368 398.531 378.777 397.701 378.5 397.203C377.553 395.487 374.535 391.503 371.932 388.533C368.736 384.863 368.302 384.383 367.513 383.405C367.158 382.982 365.403 381.285 363.608 379.624C360.392 376.655 360.333 376.563 358.617 373.814C356.96 371.103 356.546 370.051 356.645 368.871C356.743 367.985 357.078 366.75 357.493 365.938C357.71 365.477 358.065 364.739 358.301 364.278C358.873 363.08 360.451 360.404 360.984 359.759C361.221 359.446 362.03 358.21 362.799 356.992C363.549 355.775 364.555 354.171 365.047 353.451C365.975 352.012 368.302 349.338 369.209 348.618L369.782 348.194L371.32 348.784C372.168 349.098 373.391 349.411 374.022 349.467C374.674 349.522 375.758 349.725 376.469 349.91C379.25 350.666 382.485 350.463 388.185 349.153C390.71 348.563 391.243 348.379 394.479 346.958C395.424 346.553 396.253 346.202 396.312 346.202C396.628 346.202 399.706 344.653 400.554 344.081C401.067 343.712 401.855 343.029 402.29 342.532C403.236 341.48 405.663 337.754 406.116 336.666C406.294 336.242 406.747 335.338 407.142 334.655C407.517 333.954 407.832 333.309 407.832 333.217C407.832 333.014 408.68 330.837 409.943 327.813C410.692 325.987 410.831 325.396 411.107 323.017C411.561 318.996 411.462 318.092 409.805 311.71C409.568 310.843 409.232 309.441 409.015 308.556C408.621 306.841 407.675 304.516 406.925 303.484L406.452 302.838L407.3 301.325C408.325 299.536 409.015 297.95 409.627 295.94C410.259 293.856 410.278 289.779 409.647 286.994C409.015 284.209 408.503 282.42 407.911 281.073C406.235 277.2 405.604 276.148 403.611 273.99C401.658 271.887 397.181 267.866 395.8 266.981C395.089 266.538 394.261 265.948 393.926 265.672C393.61 265.413 392.802 264.841 392.15 264.436C391.499 264.011 390.809 263.55 390.632 263.384C390.434 263.218 389.764 262.849 389.132 262.573C388.126 262.111 387.87 261.89 386.943 260.562C386.371 259.732 385.601 258.662 385.246 258.164C384.871 257.684 384.438 256.855 384.28 256.301C384.004 255.416 384.004 255.231 384.261 254.53C384.418 254.088 384.655 253 384.753 252.077C384.871 251.173 385.05 250.289 385.148 250.103C385.246 249.938 385.404 249.329 385.503 248.794C385.621 248.241 385.839 247.3 385.996 246.691C386.174 246.083 386.489 243.721 386.725 241.435C387.396 234.481 387.061 229.888 385.483 224.446C384.379 220.721 383.964 218.987 383.57 216.405L383.195 213.952L383.688 209.212C384.517 201.095 384.398 199.269 382.801 195.414C381.617 192.519 380.098 190.545 376.922 187.686C375.167 186.137 375.048 185.86 375.562 184.753C375.916 183.96 377.751 182.337 380.709 180.16C383.432 178.168 385.641 175.863 386.607 174.018C387.239 172.819 387.318 172.487 387.634 169.407C387.988 165.958 388.048 161.734 387.83 157.141C387.653 153.194 387.337 148.97 387.101 147.181C386.765 144.728 386.746 144.58 386.628 143.271C386.39 140.799 385.542 136.077 384.773 133.07C384.141 130.599 383.945 129.492 383.373 125.139C382.899 121.524 382.346 118.186 381.755 115.363C381.203 112.707 380.335 108.243 379.23 102.433C379.033 101.289 378.718 100.035 378.54 99.6299C378.184 98.837 377.652 96.9923 376.488 92.5839C374.773 86.1833 374.102 83.7669 373.924 83.3058C373.549 82.402 372.346 76.9792 372.031 74.8765C371.754 72.9213 371.419 71.1321 370.63 67.2218C370.196 65.0453 369.624 63.4037 368.559 61.2272C368.046 60.1574 367.434 58.6449 367.198 57.8333C366.428 55.085 365.836 54.2181 364.258 53.4065C363.469 53.0192 362.917 52.89 361.813 52.8347C361.024 52.7979 360.215 52.8162 359.997 52.8717ZM175.386 85.0212C175.761 85.5745 176.215 86.4968 176.373 87.0501C176.531 87.6035 177.024 88.8946 177.438 89.9091C177.852 90.9234 178.286 92.1961 178.404 92.7312C178.799 94.5206 180.91 98.8738 182.389 100.903C182.804 101.474 183.494 102.636 183.928 103.485C184.361 104.333 185.052 105.532 185.466 106.141C185.9 106.75 186.393 107.616 186.591 108.059C186.768 108.52 187.103 109.092 187.301 109.369C187.696 109.867 189.47 113.316 189.47 113.555C189.47 113.648 189.668 113.998 189.924 114.349C190.181 114.699 190.674 115.659 191.048 116.47C191.404 117.281 192.075 118.517 192.548 119.199C193.021 119.882 193.534 120.713 193.672 121.044C193.83 121.377 194.579 122.668 195.329 123.94C196.098 125.213 196.789 126.449 196.868 126.707C197.065 127.316 198.367 129.658 199.314 131.134C200.083 132.314 200.793 133.236 202.687 135.561C203.219 136.225 203.989 137.22 204.383 137.774C204.797 138.327 205.823 139.471 206.672 140.301C207.52 141.149 208.545 142.311 208.959 142.883C209.669 143.916 219.02 152.88 220.834 154.282C221.328 154.651 222.096 155.259 222.57 155.61C224.069 156.772 226.437 159.723 226.91 160.996C227.146 161.623 227.107 161.697 226.16 163.025C224.503 165.367 222.688 167.157 221.13 167.986C219.059 169.075 216.85 170.642 214.167 172.912C212.49 174.313 209.018 180.345 206.948 185.399C206.533 186.395 206.138 187.243 206.06 187.298C205.98 187.336 205.803 187.188 205.685 186.967C205.409 186.487 204.383 183.868 203.85 182.3C203.101 180.086 199.432 173.778 198.465 173.022C198.288 172.893 197.775 172.137 197.321 171.363C196.197 169.481 193.356 166.695 191.857 166.068C190.654 165.552 187.873 165.165 186.571 165.33C185.683 165.441 184.539 165.939 183.849 166.493C182.804 167.341 181.758 169.241 181.482 170.772C181.403 171.214 181.225 171.841 181.087 172.155C180.535 173.391 180.16 179.404 180.258 185.159L180.377 190.619L179.588 192.464C179.155 193.478 178.661 194.492 178.463 194.713C178.148 195.101 178.089 195.12 177.556 194.861C176.274 194.234 174.873 193.994 172.842 194.068C170.889 194.123 170.791 194.142 169.844 194.787C168.207 195.876 166.806 198.476 165.839 202.239C165.721 202.644 165.444 203.641 165.208 204.452C164.971 205.264 164.735 206.131 164.676 206.389C164.636 206.648 164.497 207.2 164.379 207.625L164.163 208.418L163.611 208.105C162.742 207.625 158.758 203.586 157.673 202.11C157.14 201.372 156.509 200.505 156.253 200.174C155.701 199.472 155.049 197.776 153.906 194.031C152.821 190.545 152.446 188.552 152.288 185.547C152.15 183.001 152.564 178.242 153.037 176.969C153.195 176.564 153.372 175.733 153.452 175.124C153.53 174.517 153.728 173.649 153.866 173.188C154.123 172.413 154.536 170.975 155.266 168.3C155.424 167.692 155.701 166.769 155.838 166.272C155.996 165.755 156.174 164.981 156.253 164.519C156.332 164.058 156.686 162.693 157.042 161.475C157.416 160.276 157.713 159.097 157.713 158.875C157.713 158.635 157.969 157.805 158.285 157.012C158.6 156.219 158.916 155.204 158.975 154.744C159.054 154.282 159.369 153.212 159.685 152.345C160 151.479 160.395 150.317 160.553 149.763C161.065 148.084 161.677 146.037 161.974 145.06C162.111 144.543 162.427 143.565 162.643 142.864C162.86 142.182 163.038 141.389 163.038 141.112C163.038 140.854 163.196 140.098 163.413 139.434C163.611 138.77 163.847 137.479 163.926 136.575C164.005 135.653 164.419 133.624 164.833 132.056C165.248 130.488 165.602 128.976 165.602 128.717C165.602 128.441 165.741 127.869 165.898 127.426C166.076 126.983 166.293 126.153 166.372 125.6C166.471 125.046 166.668 124.088 166.845 123.479C167.003 122.87 167.201 121.782 167.26 121.063C167.319 120.362 167.496 119.477 167.654 119.126C167.792 118.776 168.028 117.577 168.127 116.47C168.246 115.344 168.463 114.109 168.621 113.703C168.779 113.297 168.956 112.468 169.035 111.859C169.114 111.25 169.291 110.384 169.449 109.922C169.587 109.461 169.804 108.409 169.922 107.561C170.041 106.731 170.218 105.883 170.336 105.698C170.574 105.256 170.732 103.908 171.619 94.6127C172.093 89.7431 172.467 86.7181 172.704 85.9434C172.901 85.2795 173.118 84.1727 173.197 83.4719C173.256 82.771 173.375 82.1069 173.434 82.0147C173.493 81.904 173.808 82.3283 174.124 82.9185C174.42 83.5087 174.992 84.4678 175.386 85.0212ZM359.071 85.5192C359.544 87.456 359.84 89.7984 359.997 92.9522C360.176 96.1801 360.727 99.4825 361.556 102.12C361.931 103.356 362.286 104.758 362.345 105.256C362.404 105.735 362.503 106.602 362.562 107.155C362.621 107.708 362.76 108.705 362.878 109.369C362.996 110.033 363.154 111.232 363.252 112.043C363.351 112.836 363.627 114.127 363.864 114.902C364.101 115.659 364.534 117.115 364.85 118.13C365.422 120.049 365.501 120.417 365.718 122.096C365.797 122.649 365.876 123.147 365.916 123.203C365.935 123.258 366.034 123.792 366.093 124.401C366.389 127.002 366.646 128.478 367 129.529C367.198 130.156 367.474 131.134 367.592 131.687C367.73 132.241 368.046 133.291 368.283 133.992C368.756 135.395 368.835 135.745 369.17 138.604C369.289 139.618 369.565 141.573 369.762 142.938C370.689 149.228 370.571 154.854 369.426 158.413C369.15 159.281 368.815 160.498 368.677 161.107C368.559 161.716 368.263 162.693 368.026 163.283C367.789 163.874 367.494 164.74 367.375 165.22C367.021 166.769 365.836 169.241 364.279 171.731C361.971 175.42 361.891 175.531 359.662 177.523C357.335 179.625 356.27 180.898 355.481 182.558C354.593 184.458 354.317 187.261 354.869 188.959C355.027 189.457 355.126 189.881 355.106 189.9C355.086 189.918 354.494 189.623 353.784 189.235C351.338 187.888 343.803 181.322 341.614 178.63C340.943 177.818 339.325 176.158 338.004 174.94C335.44 172.58 332.737 169.702 331.948 168.485C331.672 168.078 331.12 167.414 330.706 167.009C330.291 166.603 329.64 165.773 329.265 165.165C328.89 164.556 328.023 163.21 327.333 162.158C326.642 161.107 325.814 159.871 325.498 159.391C325.202 158.912 324.709 158.266 324.413 157.971C324.117 157.657 323.15 156.053 322.263 154.411C321.119 152.309 320.29 151.073 319.541 150.28C318.417 149.099 318.417 149.099 318.594 148.084C318.693 147.549 318.988 147.236 320.271 146.24C321.395 145.392 322.361 144.396 323.663 142.754C326.011 139.821 328.16 137.054 329.423 135.376C329.976 134.656 330.923 133.42 331.554 132.646C332.185 131.871 332.993 130.801 333.368 130.304C333.723 129.787 334.237 129.197 334.513 128.957C334.769 128.717 335.558 127.703 336.248 126.688C336.939 125.674 338.339 123.792 339.346 122.519C340.331 121.247 341.16 120.159 341.16 120.067C341.16 119.992 341.495 119.532 341.909 119.034C342.659 118.13 343.409 116.839 346.486 111.066C347.887 108.427 349.287 105.181 350.155 102.544C350.293 102.083 350.924 100.903 351.516 99.9061C352.127 98.9291 352.778 97.6747 352.975 97.1397C353.173 96.623 353.587 95.6828 353.883 95.0741C354.613 93.5425 356.073 90.0751 356.527 88.7655C357.217 86.8472 358.479 83.933 358.657 83.9146C358.676 83.9146 358.854 84.6339 359.071 85.5192ZM307.094 180.585C309.777 183.443 312.183 187.298 313.466 190.785C315.24 195.562 315.359 196.023 316.029 200.21C316.207 201.316 316.523 203.087 316.72 204.139C316.917 205.19 317.094 206.297 317.094 206.611C317.094 206.906 317.233 207.717 317.391 208.399C317.765 209.986 318.476 213.657 318.594 214.597C318.771 216.036 319.265 217.77 320.547 221.422C321.277 223.451 322.026 225.849 322.243 226.771C322.441 227.674 322.796 229.058 323.013 229.815C323.23 230.571 323.525 231.696 323.683 232.305C324.63 236.16 326.898 240.273 329.896 243.629C331.317 245.234 332.007 245.825 333.368 246.673C334.631 247.447 335.321 247.669 337.097 247.817C338.99 247.982 340.135 247.798 341.082 247.226C342.778 246.193 343.468 244.718 343.605 241.915C343.666 240.568 343.586 240.033 343.211 238.963C342.58 237.1 341.456 234.168 341.259 233.854C341.082 233.559 339.937 231.899 339.167 230.81C338.872 230.386 338.576 229.851 338.497 229.611C338.399 229.372 338.122 228.836 337.866 228.45C337.589 228.062 337.215 227.287 337.017 226.771C336.821 226.236 336.524 225.59 336.367 225.351C336.189 225.129 335.874 224.133 335.637 223.174C335.4 222.215 335.085 221.126 334.946 220.777C334.453 219.522 333.881 216.589 333.783 214.781C333.723 213.767 333.625 212.734 333.566 212.476C333.467 212.015 333.349 210.41 333.171 207.035C333.073 205.135 333.033 204.877 332.56 202.534C332.421 201.778 332.323 201.132 332.362 201.095C332.461 200.985 335.203 202.46 336.248 203.198C336.8 203.586 337.767 204.323 338.378 204.84C341.16 207.2 343.29 208.455 346.052 209.359C349.524 210.503 352.245 211.167 354.356 211.388C356.25 211.609 356.447 211.664 356.921 212.162C357.197 212.476 357.788 213.067 358.242 213.472C358.676 213.896 359.347 214.597 359.702 215.059C360.077 215.519 360.807 216.368 361.339 216.94C361.872 217.53 362.246 218.009 362.187 218.009C362.108 218.009 361.537 217.807 360.906 217.549C359.564 217.032 355.875 216.608 353.863 216.773C352.483 216.866 350.509 217.641 349.188 218.599C347.925 219.504 346.545 220.887 346.111 221.68C345.223 223.304 344.888 229.686 345.579 232.12C346.604 235.809 347.788 238.816 349.03 240.881C349.425 241.545 349.859 242.32 349.997 242.615C351.003 244.755 355.165 249.329 357.966 251.339C358.873 252.003 360.609 253.276 361.379 253.848C361.714 254.107 362.326 254.493 362.76 254.734C363.45 255.102 364.673 255.913 366.901 257.427C367.217 257.648 367.987 258.164 368.578 258.552C369.92 259.419 371.557 260.618 373.588 262.24C375.009 263.366 375.877 264.103 378.697 266.538L379.664 267.35L377.514 267.184C375.187 267 372.918 267.202 370.453 267.829C369.703 268.014 368.184 268.328 367.099 268.53C366.014 268.714 364.555 269.01 363.844 269.176C363.134 269.341 361.674 269.637 360.59 269.821C359.505 270.024 358.242 270.32 357.769 270.467C357.295 270.633 356.467 270.799 355.895 270.873C355.323 270.947 354.573 271.112 354.198 271.241C353.844 271.39 353.409 271.5 353.251 271.5C352.758 271.5 348.478 273.252 346.486 274.267C344.257 275.41 341.554 277.402 339.601 279.357C337.175 281.774 336.011 284.467 335.538 288.654C335.203 291.752 335.262 292.435 336.011 294.353C337.648 298.54 340.686 302.266 348.3 309.497C348.893 310.05 350.115 311.082 351.023 311.803C351.93 312.503 352.996 313.388 353.39 313.739C355.5 315.658 357 316.598 360.649 318.314C362.207 319.051 363.884 319.918 364.397 320.25C364.91 320.582 365.501 320.933 365.718 321.062C367.81 322.242 368.776 322.814 368.854 322.925C368.993 323.127 367.928 326.853 367.237 328.587C366.27 331.004 366.034 331.464 365.047 332.922C364.515 333.678 363.844 334.711 363.549 335.227C362.878 336.334 358.953 340.023 357.729 340.724C356.94 341.148 355.677 341.738 353.686 342.606C352.798 342.992 350.135 343.805 348.261 344.265C347.334 344.506 345.934 344.874 345.125 345.076C343.231 345.593 339.562 346.202 338.28 346.202C337.728 346.202 336.8 346.276 336.209 346.369C335.617 346.461 334.651 346.59 334.058 346.645C333.467 346.7 332.718 346.792 332.382 346.829C332.066 346.884 331.514 346.958 331.179 347.014C330.824 347.051 328.22 346.884 325.36 346.645C321.099 346.276 319.678 346.073 317.588 345.575C316.187 345.225 314.491 344.892 313.84 344.819C312.637 344.708 311.453 344.45 307.035 343.417C305.674 343.103 304.115 342.771 303.543 342.698C300.979 342.328 294.943 340.336 290.663 338.455C284.192 335.615 281.825 334.176 276.164 329.675C274.763 328.569 272.85 327.074 271.923 326.373C270.996 325.673 270.207 325.064 270.148 325.009C270.089 324.935 269.477 324.437 268.768 323.883C268.057 323.331 267.446 322.814 267.386 322.759C267.051 322.39 262.87 319.531 261.626 318.83C260.818 318.369 258.47 317.317 256.419 316.487C254.367 315.658 251.488 314.459 250.028 313.831C245.314 311.766 243.795 311.36 239.277 310.935C234.918 310.53 234.286 310.567 231.486 311.47C228.112 312.559 226.121 313.942 225.588 315.565C225.174 316.875 224.739 321.818 224.859 323.883C225.036 326.982 225.903 328.827 228.468 331.446C230.717 333.752 232.729 336.094 235.233 339.285C236.476 340.853 238.173 342.753 240.283 344.892C241.645 346.294 242.709 347.881 244.13 350.629C244.801 351.901 245.531 353.303 245.767 353.764C246.457 355.037 248.035 357.435 248.923 358.541C250.107 359.981 250.678 360.884 251.507 362.637C251.922 363.485 252.494 364.518 252.77 364.923C253.046 365.329 253.48 366.067 253.736 366.584C253.992 367.082 254.407 367.764 254.663 368.077C254.939 368.41 255.808 370.144 256.616 371.951C258.491 376.194 259.28 377.669 260.62 379.385C261.212 380.159 262.474 381.912 263.442 383.276C265.059 385.582 266.913 387.851 270.168 391.503C271.962 393.477 276.026 397.018 277.88 398.18C280.859 400.061 284.587 401.979 289.499 404.193C293.188 405.853 294.016 406.093 297.034 406.351L299.756 406.572L300.17 407.329C300.9 408.657 302.498 410.76 303.681 411.922C304.313 412.549 304.786 413.139 304.727 413.231C304.569 413.471 301.63 413.176 300.466 412.807C299.894 412.623 298.77 412.18 297.961 411.83C297.152 411.479 295.91 410.999 295.199 410.778C293.661 410.261 288.63 408.417 287.803 408.067C287.487 407.938 286.698 407.642 286.046 407.44C284.646 406.997 281.352 405.355 279.676 404.267C275.138 401.334 273.6 400.302 272.141 399.195C271.232 398.512 270.069 397.626 269.557 397.258C269.043 396.889 266.775 394.878 264.507 392.776C262.238 390.673 259.792 388.515 259.082 387.98C258.371 387.427 257.346 386.541 256.814 385.988C256.281 385.434 254.92 384.236 253.776 383.332C251.724 381.672 250.442 380.418 248.982 378.592C248.568 378.075 247.543 376.95 246.694 376.083C245.866 375.216 244.564 373.759 243.814 372.855C243.084 371.932 241.131 369.683 239.494 367.82C237.857 365.975 236.022 363.707 235.431 362.802C234.208 360.958 231.584 357.398 230.164 355.646C229.021 354.226 225.371 350.721 224.286 349.983C223.852 349.689 223.083 349.117 222.59 348.692C222.096 348.286 221.09 347.475 220.322 346.903C218.506 345.501 213.576 340.816 209.63 336.721C208.052 335.08 205.132 335.154 203.515 336.869C202.765 337.681 202.213 339.303 202.371 340.3C202.607 341.923 202.687 342.015 209.965 349.025C211.682 350.684 214.186 352.824 216.633 354.724C219.927 357.306 221.229 358.412 222.254 359.519C223.438 360.774 226.791 365.237 228.508 367.801C229.099 368.686 230.677 370.623 232.018 372.136C233.36 373.648 234.978 375.493 235.589 376.249C237.877 379.052 238.33 379.587 240.363 381.764C241.506 382.982 243.144 384.789 244.012 385.767C244.879 386.762 246.122 387.98 246.773 388.478C247.424 388.994 249.022 390.378 250.324 391.558C251.625 392.739 253.046 393.956 253.48 394.251C253.894 394.565 255.63 396.096 257.327 397.663C263.066 403.031 265.907 405.318 270.049 407.919C270.819 408.398 271.962 409.173 272.614 409.634C274.132 410.741 275.514 411.571 277.841 412.825C280.247 414.098 281.45 414.633 284.844 415.869C286.362 416.422 288.177 417.086 288.887 417.344C290.387 417.898 292.359 418.58 293.621 419.005C294.114 419.152 294.943 419.484 295.475 419.742C296.679 420.314 298.967 421.015 300.131 421.181C301.295 421.347 308.633 421.532 311.867 421.476L314.432 421.421L316.523 423.524C320.191 427.176 320.764 427.784 322.421 429.74C323.743 431.307 324.019 431.713 323.84 431.953C323.722 432.119 323.427 432.617 323.171 433.06C322.539 434.184 321.612 434.83 319.56 435.568C316.385 436.711 314.688 436.952 308.218 437.228C305.24 437.357 303.307 437.708 302.242 438.298C301.551 438.685 299.441 440.345 296.797 442.559C296.087 443.148 294.785 444.145 293.917 444.754C293.049 445.362 291.906 446.247 291.353 446.727C290.13 447.816 285.514 450.656 284.449 450.97C284.015 451.099 282.95 451.228 282.082 451.228C279.577 451.265 278.511 450.656 274.862 447.262C273.6 446.082 272.061 444.754 271.411 444.311C270.779 443.869 269.97 443.297 269.616 443.02C268.392 442.061 265.789 441.507 261.271 441.267C259.339 441.175 258.904 441.212 254.861 441.987L250.521 442.817L247.661 442.559L244.801 442.3L242.532 441.009C239.889 439.516 236.575 437.007 235.727 435.826C235.411 435.383 234.622 434.425 233.971 433.724C232.946 432.58 232.413 431.695 231.19 429.113C230.993 428.707 230.46 427.379 229.987 426.124C228.843 423.081 228.133 421.697 226.811 419.816C225.549 417.99 222.669 415.279 221.406 414.688C219.69 413.895 217.915 413.176 216.475 412.733C214.798 412.198 212.411 411.258 209.946 410.169C208.092 409.34 208.19 409.413 205.251 405.871C202.174 402.145 200.812 399.674 197.637 391.946C197.144 390.784 196.65 389.677 196.492 389.456C196.355 389.252 196 388.551 195.724 387.888C195.23 386.744 194.638 385.453 193.159 382.262C190.851 377.264 189.392 375.824 186.118 375.364C183.079 374.939 181.56 374.939 179.509 375.345C178.425 375.566 176.965 375.973 176.255 376.267C175.544 376.545 174.736 376.821 174.44 376.894C173.966 377.005 173.888 376.95 173.888 376.6C173.888 376.359 173.985 375.881 174.084 375.53C174.203 375.179 174.519 374.128 174.775 373.205C175.051 372.265 175.525 370.937 175.84 370.236C176.531 368.723 176.826 366.676 176.748 363.909C176.689 361.327 176.175 359.907 173.591 355.092C172.487 352.99 171.462 350.943 171.323 350.537C171.185 350.131 170.869 349.374 170.633 348.876C169.311 346.202 167.91 343.527 167.516 342.919C167.003 342.163 165.78 339.23 164.518 335.689C164.044 334.416 163.137 332.424 162.466 331.262C159.468 326.005 158.028 322.592 157.219 318.849C157.18 318.663 157.042 317.889 156.924 317.114C156.825 316.358 156.686 315.676 156.648 315.602C156.588 315.528 156.509 314.975 156.43 314.385C156.371 313.776 156.233 312.909 156.114 312.448C155.918 311.562 155.543 306.011 155.641 305.365C155.68 305.143 155.76 304.295 155.838 303.447C155.897 302.598 156.095 301.639 156.233 301.325C156.371 300.994 156.549 300.219 156.627 299.629C156.785 298.208 157.89 295.239 159.034 293.155C159.527 292.25 160.395 290.628 160.967 289.558C162.801 286.127 166.904 280.187 168.72 278.324C171.264 275.705 174.953 270.688 175.445 269.176C175.544 268.881 175.978 267.885 176.412 266.981C176.846 266.058 177.24 265.063 177.32 264.749C177.438 264.288 177.596 264.14 178.029 264.048C178.345 263.993 179.094 263.513 179.726 262.941C180.594 262.167 181.146 261.835 182.251 261.484C184.796 260.673 188.228 259.99 192.528 259.437C193.83 259.271 195.703 259.012 196.67 258.865C197.657 258.718 200.004 258.459 201.898 258.312C203.791 258.146 205.527 257.998 205.763 257.943C205.98 257.906 206.651 257.813 207.243 257.758C212.569 257.205 217.086 255.6 219.848 253.258C221.643 251.745 222.944 249.643 223.596 247.19L223.813 246.415H228.329C230.854 246.415 233.064 246.341 233.36 246.23C233.794 246.083 233.991 246.119 234.504 246.489C235.569 247.226 236.871 247.576 238.133 247.484C239.12 247.411 239.574 247.226 241.388 246.175C242.572 245.511 244.031 244.626 244.643 244.201C245.274 243.778 246.655 242.91 247.72 242.264L249.634 241.102L249.752 241.6C250.383 244.367 252.474 247.024 255.413 248.757C258.274 250.473 259.457 250.824 262.356 250.842C264.269 250.842 267.939 249.588 269.3 248.462C269.734 248.111 270.247 247.909 270.917 247.817C273.659 247.484 276.677 246.526 280.169 244.92C283.049 243.574 283.462 243.261 284.251 241.803C284.686 241.01 284.745 238.889 284.37 237.874C283.857 236.473 280.11 232.507 277.644 230.736C277.151 230.386 276.046 229.556 275.178 228.873C272.791 227.029 269.97 225.756 268.235 225.756C267.84 225.756 267.051 225.535 266.499 225.277C264.486 224.354 260.286 224.133 257.563 224.816C256.656 225.037 254.565 225.831 252.927 226.568C251.271 227.324 249.732 227.988 249.495 228.044C248.943 228.209 244.662 230.865 242.276 232.544C241.25 233.282 240.342 233.872 240.264 233.872C240.146 233.872 239.12 234.499 236.18 236.399C234.957 237.174 234.168 237.561 233.379 237.709C232.768 237.838 231.782 238.023 231.19 238.152C230.598 238.262 230.046 238.317 229.987 238.244C229.928 238.188 230.421 237.819 231.092 237.432C231.762 237.045 232.63 236.546 233.005 236.307C233.379 236.086 234.82 235.347 236.18 234.683C241.743 231.991 243.124 230.995 245.314 228.062C246.398 226.642 246.892 225.793 249.199 221.698C250.442 219.467 251.389 217.051 251.547 215.704C251.606 215.206 251.803 214.284 252.001 213.675C252.197 213.067 252.414 211.904 252.473 211.093C252.553 210.281 252.77 208.953 252.967 208.141C253.184 207.33 253.5 206.039 253.697 205.283C253.874 204.526 254.072 203.843 254.112 203.77C254.15 203.696 254.781 203.936 255.511 204.305C256.241 204.674 257.149 205.135 257.544 205.32C258.293 205.67 260.778 206.021 262.691 206.021C263.915 206.021 266.144 205.357 267.485 204.581C268.589 203.936 270.858 201.759 272.2 200.062C273.915 197.868 274.645 196.742 276.164 194.049C276.914 192.685 277.703 191.486 277.88 191.375C278.374 191.098 281.234 192.407 282.477 193.478C283.029 193.957 283.897 194.658 284.43 195.064C284.962 195.451 285.791 196.355 286.303 197.075C286.797 197.776 288.118 199.196 289.223 200.21C291.018 201.87 291.353 202.258 292.339 204.084C294.41 207.884 295.574 210.871 296.502 214.837C296.659 215.482 297.014 216.552 297.291 217.198C298.021 218.895 299.263 222.233 299.953 224.373C300.289 225.369 300.762 226.624 301.018 227.14C301.275 227.637 302.084 229.261 302.794 230.736C303.524 232.212 304.49 234.056 304.984 234.832C306.72 237.653 308.357 240.826 309.086 242.726C310.329 245.972 310.467 246.267 311.631 247.909C313.386 250.399 315.103 251.948 317.094 252.834C319.699 253.995 323.013 254.346 324.69 253.627C326.544 252.852 327.431 251.672 327.747 249.606C328.082 247.374 327.983 246.323 327.234 243.962C326.405 241.343 326.386 241.287 324.275 237.34C322.618 234.241 321.572 232.138 320.31 229.261C319.935 228.394 319.541 227.601 319.461 227.508C319.383 227.398 318.89 226.365 318.377 225.203C317.47 223.137 316.404 221.145 315.28 219.485C314.57 218.434 313.623 216.128 313.248 214.542C312.282 210.503 311.789 207.865 311.591 205.743C311.217 201.907 311.177 201.667 310.487 198.642C310.329 197.978 310.152 196.945 310.072 196.337C310.013 195.728 309.796 194.566 309.599 193.755C309.402 192.943 309.184 191.984 309.106 191.633C309.027 191.283 308.81 190.452 308.613 189.788C308.416 189.124 308.179 188.129 308.119 187.575C308.041 187.022 307.903 186.432 307.824 186.284C307.705 186.063 307.054 183.739 306.739 182.411C306.482 181.304 306.344 180.861 306.029 180.05C305.556 178.851 305.556 178.666 306.009 179.294C306.187 179.57 306.68 180.142 307.094 180.585ZM377.416 228.08C378.303 231.363 378.54 235.938 378.047 240.734C377.83 242.744 377.573 244.534 377.475 244.718C377.376 244.884 377.237 245.437 377.159 245.954C377.06 246.452 376.883 247.19 376.745 247.558C376.607 247.946 376.389 248.942 376.271 249.772C376.054 251.488 375.699 252.834 375.482 252.963C375.324 253.055 374.24 252.391 371.991 250.842C371.32 250.381 370.078 249.569 369.23 249.016C364.811 246.138 362.444 244.367 360.609 242.523C359.505 241.435 358.124 239.682 358.124 239.369C358.124 239.277 358.44 239.221 358.814 239.221C360.609 239.221 363.469 237.856 364.416 236.565C365.462 235.145 365.699 234.223 365.718 231.345C365.718 229.907 365.777 228.689 365.817 228.652C365.876 228.597 366.547 228.708 367.296 228.892C369.584 229.427 371.34 229.519 372.642 229.169C373.904 228.836 375.758 227.951 376.37 227.398C376.922 226.9 377.119 227.029 377.416 228.08ZM380.335 275.65C382.189 275.797 384.141 276.056 384.675 276.203C385.207 276.351 386.529 276.573 387.613 276.683C390.572 276.959 394.064 278.066 396.312 279.431C397.358 280.077 397.694 280.428 398.62 281.903C399.212 282.843 399.804 283.987 399.942 284.43C400.06 284.873 400.297 285.647 400.436 286.164C401.303 289.023 401.619 292.379 401.126 293.542C400.987 293.837 400.771 294.556 400.613 295.147C400.474 295.719 400.159 296.512 399.922 296.898C399.685 297.286 399.054 298.393 398.502 299.352C397.634 300.902 396.747 302.23 396.392 302.487C396.312 302.543 395.977 302.986 395.603 303.502C394.261 305.384 390.316 308.648 386.134 311.304C383.451 313.001 382.308 313.758 382.189 313.905C382.13 313.96 381.597 314.385 381.006 314.845C380.414 315.307 379.507 316.063 378.973 316.543C378.441 317.041 377.908 317.428 377.81 317.428C376.804 317.428 372.425 315.417 369.605 313.666C368.539 313.02 366.27 311.821 364.515 310.99C362.01 309.811 361.083 309.276 360.077 308.39C359.387 307.762 358.419 306.97 357.927 306.601C357.434 306.232 356.586 305.549 356.033 305.088C355.5 304.627 354.869 304.111 354.652 303.944C353.922 303.372 347.492 296.677 346.486 295.423C345.934 294.741 345.164 293.578 344.79 292.841C344.119 291.568 344.099 291.458 344.217 290.037C344.276 289.225 344.552 287.879 344.829 287.049C345.282 285.684 345.46 285.407 346.545 284.375C348.32 282.714 349.8 281.774 352.601 280.575C355.5 279.321 356.407 279.081 364.338 277.458C365.106 277.292 366.29 277.033 367 276.849C367.711 276.665 368.736 276.461 369.269 276.406C369.821 276.332 371.143 276.074 372.227 275.835C374.457 275.337 375.285 275.226 376.271 275.318C376.646 275.355 378.481 275.502 380.335 275.65ZM401.52 314.477C401.52 314.735 401.737 315.676 401.993 316.598C402.644 318.922 402.743 319.863 402.507 321.873C402.368 323.127 402.132 324.05 401.599 325.267C401.204 326.171 400.554 327.794 400.139 328.864C399.133 331.464 397.2 335.19 396.135 336.555C395.386 337.478 395.011 337.773 393.749 338.326C392.92 338.714 392.21 339.009 392.15 339.009C392.111 339.009 391.144 339.415 390.039 339.912C386.509 341.462 380.808 342.457 378.619 341.886C378.027 341.738 376.982 341.554 376.271 341.499C374.871 341.351 373.037 340.632 371.951 339.783L371.301 339.266L371.734 338.437C371.991 337.994 372.524 337.146 372.957 336.555C373.372 335.983 374.24 334.269 374.871 332.774C375.916 330.34 376.291 329.215 377.06 326.466L377.277 325.636L378.323 325.691C379.526 325.765 381.262 325.267 382.445 324.492C382.879 324.197 383.866 323.423 384.655 322.74C386.41 321.19 389.309 319.033 390.474 318.387C391.381 317.889 393.808 316.229 396.293 314.403C397.063 313.85 398.285 312.816 399.054 312.116L400.415 310.843L400.968 312.43C401.263 313.296 401.52 314.218 401.52 314.477ZM277.545 341C278.63 341.701 280.247 342.661 281.155 343.159C283.462 344.394 291.254 347.807 293.03 348.342C297.211 349.633 300.841 350.629 301.255 350.629C301.531 350.629 302.34 350.776 303.05 350.98C305.062 351.495 306.226 351.754 307.725 352.012C309.935 352.4 310.033 352.455 311.256 354.373C311.867 355.332 312.361 356.181 312.361 356.273C312.361 356.347 312.834 357.14 313.406 358.007C313.998 358.874 315.063 360.645 315.793 361.973C316.957 364.057 317.864 365.422 318.278 365.754C318.495 365.938 321.376 369.554 322.874 371.564C325.143 374.589 325.932 375.787 327.154 378.02C327.766 379.127 329.443 382.077 330.883 384.568C332.343 387.058 333.94 389.824 334.433 390.747C334.927 391.65 335.518 392.684 335.755 393.015C336.011 393.348 336.564 394.306 336.978 395.137C338.399 397.867 339.858 398.974 342.067 398.974C344.335 398.974 346.13 397.221 346.111 395.007C346.111 393.846 345.677 392.48 345.065 391.706C344.809 391.374 344.474 390.858 344.316 390.562C344.158 390.249 343.645 389.401 343.192 388.662C342.719 387.906 342.343 387.26 342.343 387.187C342.343 387.131 341.87 386.283 341.278 385.324C340.706 384.347 339.681 382.594 339.03 381.432C336.939 377.651 336.406 376.766 335.992 376.212C335.755 375.917 335.302 375.068 334.966 374.349C334.256 372.855 332.737 370.494 330.962 368.189C330.291 367.303 329.463 366.159 329.147 365.644C328.831 365.127 328.122 364.204 327.609 363.614C325.32 361.013 323.703 358.726 322.796 356.808C322.559 356.292 322.144 355.572 321.888 355.185C321.513 354.631 321.494 354.502 321.73 354.502C321.908 354.502 323.96 354.668 326.327 354.89C330.666 355.277 330.784 355.277 334.946 354.779C335.38 354.724 336.663 354.594 337.806 354.484C338.951 354.373 340.647 354.189 341.574 354.06L343.271 353.838L343.527 355.425C343.666 356.292 343.882 357.362 344.04 357.822C344.178 358.283 344.454 359.225 344.612 359.944C344.79 360.645 345.4 362.637 345.973 364.371C347.531 369.037 347.827 369.977 348.064 371.195C348.163 371.804 348.399 372.708 348.577 373.224C348.971 374.367 350.194 376.766 350.45 376.913C350.549 376.987 350.865 377.43 351.121 377.928C352.522 380.51 353.844 382.096 357.217 385.213C360.215 387.998 363.923 392.02 367.494 396.372C368.539 397.645 370.078 399.84 371.123 401.538C371.459 402.09 372.109 403.031 372.583 403.603C374.891 406.498 375.364 407.162 375.916 408.214C376.252 408.86 376.725 410.04 377.001 410.852C377.258 411.663 377.79 413.323 378.184 414.541C378.994 417.05 379.368 418.506 379.546 419.982C379.605 420.535 379.703 421.052 379.743 421.107C379.783 421.181 379.684 422.417 379.526 423.874C379.309 426.032 379.112 426.936 378.481 428.651C377.178 432.229 376.903 432.617 372.583 436.915C369.999 439.479 368.658 440.345 365.62 441.342C362.779 442.282 362.819 442.264 358.716 442.872C353.213 443.684 351.772 443.555 344.71 441.636C342.856 441.138 341.416 440.29 340.075 438.944C339.384 438.243 338.595 437.32 338.339 436.896C338.063 436.472 336.939 434.923 335.853 433.447C334.749 431.971 333.132 429.777 332.244 428.559C331.376 427.342 330.193 425.81 329.62 425.146C329.069 424.482 328.259 423.524 327.865 423.025C326.938 421.863 322.48 417.455 320.152 415.389C319.186 414.523 317.824 413.305 317.174 412.696C316.503 412.088 315.004 410.796 313.84 409.837C310.546 407.107 308.514 404.857 307.271 402.515C307.074 402.127 306.344 400.78 305.674 399.508C305.003 398.235 304.372 397.055 304.254 396.87C304.135 396.686 303.859 396.188 303.622 395.764C303.405 395.34 302.833 394.454 302.379 393.79C301.512 392.536 296.777 383.904 296.777 383.59C296.777 383.203 295.101 379.846 293.049 376.175C292.754 375.659 292.201 374.589 291.787 373.777C291.393 372.966 290.485 371.38 289.775 370.273C289.084 369.148 288.138 367.543 287.683 366.676C287.23 365.809 286.402 364.315 285.829 363.356C285.238 362.397 284.607 361.235 284.43 360.774C284.015 359.796 281.726 355.959 281.095 355.148C280.563 354.484 279.222 351.865 278.65 350.371C278.413 349.781 277.999 348.932 277.742 348.508C277.467 348.083 277.071 347.254 276.855 346.663C276.638 346.073 276.243 345.243 275.987 344.837C275.731 344.413 275.415 343.749 275.276 343.343C275.138 342.937 274.784 342.107 274.487 341.499C273.501 339.544 272.712 337.865 272.712 337.773C272.712 337.736 273.363 338.16 274.152 338.714C274.921 339.285 276.461 340.318 277.545 341ZM176.668 417.621C177.043 417.842 177.457 418.156 177.615 418.285C177.773 418.433 178.523 418.913 179.292 419.391C180.062 419.853 181.146 420.554 181.678 420.941C182.231 421.328 182.764 421.716 182.863 421.79C183.257 422.048 184.835 423.265 185.427 423.745C185.762 424.022 186.65 424.574 187.399 424.999C188.169 425.423 189.096 425.977 189.47 426.253C189.845 426.53 190.792 427.176 191.561 427.655C192.33 428.153 193.613 429.094 194.402 429.758C195.171 430.422 196.868 431.824 198.13 432.893C199.392 433.963 200.872 435.125 201.405 435.475C201.937 435.826 202.765 436.398 203.259 436.73C203.752 437.081 204.915 437.818 205.843 438.39C206.769 438.962 207.716 439.589 207.953 439.773C208.9 440.548 212.53 442.54 214.62 443.426C218.586 445.123 221.978 446.174 226.653 447.189C228.645 447.631 230.362 448.018 231.387 448.295C231.94 448.443 232.729 448.59 233.162 448.664C233.991 448.774 235.687 449.162 237.266 449.604C237.779 449.752 238.804 449.955 239.534 450.047C240.264 450.139 241.329 450.343 241.92 450.509C242.848 450.748 245.314 450.988 251.014 451.43C251.724 451.486 252.533 451.579 252.829 451.616C253.105 451.652 254.88 451.56 256.774 451.412C258.648 451.246 261.035 451.099 262.06 451.08C263.086 451.044 264.427 450.97 265.019 450.877L266.104 450.748L268.471 452.98C270.681 455.064 272.85 456.706 274.487 457.573C274.882 457.757 275.987 458.219 276.953 458.588C278.433 459.14 279.083 459.27 280.8 459.362C284.034 459.565 287.368 458.956 289.558 457.794C291.609 456.706 296.285 453.7 297.389 452.74C298.099 452.113 299.381 451.099 300.249 450.49C301.097 449.863 302.36 448.903 303.01 448.369C306.699 445.362 306.423 445.528 307.725 445.491C308.771 445.455 310.23 445.381 313.939 445.16C318.949 444.883 325.498 442.578 328.437 440.051L329.482 439.165L329.955 439.773C330.212 440.087 330.864 440.991 331.396 441.747C331.928 442.503 332.658 443.481 333.033 443.924C333.408 444.348 333.684 444.735 333.644 444.772C333.132 445.197 327.628 448.48 325.576 449.586C316.839 454.29 306.147 458.274 297.369 460.1C297.211 460.137 296.639 460.266 296.087 460.376C287.151 462.331 276.499 463.217 267.228 462.793C264.664 462.682 262.297 462.553 261.962 462.498C261.646 462.461 260.877 462.387 260.286 462.331C258.371 462.166 257.05 462.018 255.945 461.853C255.354 461.759 254.466 461.631 253.973 461.575C252.77 461.428 248.923 460.782 247.957 460.561C241.211 459.048 237.423 458.053 233.261 456.706C218.822 452.002 204.955 444.533 193.218 435.144C186.787 429.979 180.1 423.468 175.13 417.51L173.434 415.5L174.736 416.33C175.445 416.809 176.314 417.381 176.668 417.621ZM344.552 450.711C344.79 451.191 344.908 451.91 344.908 452.907C344.908 453.718 345.046 454.751 345.204 455.212C345.362 455.673 345.618 456.78 345.776 457.702C345.953 458.606 346.21 459.823 346.387 460.376C346.703 461.428 347.018 463.808 347.374 467.939C347.788 472.827 347.866 474.542 347.965 479.191C348.005 482.086 348.083 485.443 348.123 486.66C348.163 487.878 348.083 489.999 347.946 491.364C347.729 493.762 347.847 498.06 348.163 499.038C348.241 499.259 348.202 499.609 348.083 499.794C347.984 499.996 347.788 500.66 347.689 501.251C347.196 503.851 346.9 504.995 346.446 506.213C345.558 508.518 345.303 509.532 345.085 511.561C344.967 512.65 344.75 513.886 344.592 514.291C344.434 514.697 344.001 518.072 343.626 521.78C343.251 525.487 342.816 528.936 342.659 529.435C342.501 529.951 342.225 531.814 342.048 533.584C341.673 537.587 340.943 540.409 340.095 541.239C339.878 541.461 339.03 541.848 338.241 542.07C336.465 542.585 334.966 543.379 333.053 544.854C332.263 545.463 331.159 546.109 330.607 546.311C330.074 546.497 328.772 546.957 327.747 547.326C326.721 547.695 325.557 548.193 325.182 548.433C323.781 549.318 320.902 550.609 319.56 550.942C318.811 551.126 317.154 551.384 315.911 551.494C314.668 551.624 313.584 551.753 313.525 551.772C313.466 551.808 312.538 551.937 311.453 552.029C310.388 552.14 309.283 552.27 309.007 552.307C307.725 552.509 304.963 552.638 300.624 552.693C295.85 552.767 294.549 552.841 290.959 553.173C289.873 553.265 284.508 553.376 279.024 553.413C273.541 553.449 268.038 553.524 266.794 553.579C264.191 553.671 252.592 552.785 250.916 552.343C249.476 551.956 248.845 551.882 242.532 551.384C240.599 551.218 238.962 550.942 235.332 550.111C234.681 549.964 233.715 549.798 233.162 549.743C232.63 549.669 231.506 549.466 230.658 549.263C229.829 549.079 228.863 548.912 228.527 548.912C228.192 548.912 227.225 548.746 226.397 548.562C225.055 548.23 221.741 547.861 217.284 547.529C216.475 547.474 215.489 547.382 215.094 547.326L214.364 547.234L214.246 545.814C214.167 545.039 214.167 544.062 214.226 543.655C214.305 543.25 214.207 542.291 214.049 541.535C213.891 540.779 213.694 539.653 213.635 539.044C213.555 538.436 213.456 537.68 213.397 537.384C213.358 537.071 213.279 536.166 213.24 535.355C213.102 532.902 212.983 531.704 212.787 530.836C212.667 530.375 212.53 529.6 212.451 529.102C212.313 528.107 211.287 525.469 210.577 524.288C208.959 521.596 206.769 519.253 203.396 516.615C203.081 516.376 202.331 515.767 201.72 515.287C201.109 514.789 200.004 514.015 199.255 513.572C197.874 512.723 190.753 509.256 190.417 509.256C190.318 509.256 189.51 508.961 188.622 508.591C187.734 508.223 186.433 507.725 185.723 507.504C180.279 505.733 180.199 505.696 178.661 503.833C177.162 502.025 175.643 499.406 174.854 497.23C174.4 495.92 174.38 495.533 174.814 495.126C175.11 494.869 175.426 494.832 177.24 494.942C178.385 495.016 179.628 495.108 180.003 495.146C180.377 495.183 181.087 495.256 181.581 495.312C182.074 495.367 182.902 495.533 183.435 495.698C183.967 495.847 184.618 495.975 184.874 495.975C185.131 495.975 186.019 496.141 186.867 496.362C187.696 496.566 188.918 496.879 189.569 497.026C191.048 497.377 194.382 498.521 196.473 499.369C197.341 499.738 198.19 500.033 198.347 500.033C198.525 500.033 199.491 500.292 200.517 500.605C201.542 500.919 202.569 501.214 202.805 501.251C203.456 501.361 206.079 502.413 206.415 502.689C207.066 503.224 211.878 505.604 217.717 508.297C221.051 509.846 223.832 511.1 223.891 511.1C223.95 511.1 224.956 511.432 226.121 511.82C231.012 513.516 233.379 514.254 234.031 514.346C238.449 514.881 241.822 514.826 246.28 514.144C248.943 513.719 249.83 513.516 251.172 512.926C252.612 512.299 255.472 510.713 255.749 510.381C255.808 510.307 256.774 509.551 257.918 508.684C262.396 505.234 263.895 503.169 265.492 498.17C265.946 496.732 266.321 494.113 266.262 492.748C266.203 491.106 265.729 488.118 265.315 486.66C264.783 484.779 263.066 480.721 262.396 479.743C262.159 479.393 261.824 478.895 261.666 478.637C260.187 476.147 259.101 474.874 256.084 472.033L253.677 469.765L254.663 469.894C255.216 469.949 255.827 470.041 256.044 470.078C256.419 470.153 260.759 470.54 263.737 470.798C264.507 470.854 267.347 470.927 270.049 470.964C276.953 471.056 282.023 470.78 288.197 469.949C292.241 469.414 292.083 469.433 295.298 468.824C311.276 465.836 326.582 459.583 339.779 450.656L341.653 449.383L342.936 449.697C344.099 449.973 344.237 450.066 344.552 450.711Z" fill="#593D31"/>
</g>
<defs>
<clipPath id="clip0_326_34">
<rect width="512" height="512" fill="white"/>
</clipPath>
</defs>
</svg>
