<svg width="512" height="340" viewBox="0 0 512 340" fill="none" xmlns="http://www.w3.org/2000/svg">
<g clip-path="url(#clip0_330_75)">
<rect x="215" y="60" width="80" height="280" rx="15" fill="#F6F1E8"/>
<rect x="305" y="60" width="80" height="280" rx="15" fill="#F6F1E8"/>
<rect x="395" y="60" width="80" height="280" rx="15" fill="#F6F1E8"/>
<rect x="215" width="80" height="40" rx="15" fill="#553E33"/>
<rect x="306" y="1" width="78" height="38" rx="14" stroke="#553E33" stroke-width="2"/>
<rect x="396" y="1" width="78" height="38" rx="14" stroke="#553E33" stroke-width="2"/>
<rect x="35" y="60" width="80" height="280" rx="15" fill="#F6F1E8"/>
<rect x="125" y="60" width="80" height="280" rx="15" fill="#F6F1E8"/>
<rect x="36" y="1" width="78" height="38" rx="14" stroke="#553E33" stroke-width="2"/>
<rect x="126" y="1" width="78" height="38" rx="14" stroke="#553E33" stroke-width="2"/>
<path d="M433.222 12V29H430V12H433.222ZM440.098 19.3441V21.8777H432.378V19.3441H440.098ZM441 12V14.5337H432.378V12H441Z" fill="#553E33"/>
<path d="M339 12H345.157C346.445 12 347.55 12.1946 348.474 12.5838C349.397 12.973 350.107 13.549 350.603 14.3118C351.1 15.0746 351.348 16.0126 351.348 17.1257C351.348 18.0053 351.193 18.7681 350.883 19.4141C350.572 20.0602 350.134 20.6012 349.568 21.0371C349.009 21.473 348.349 21.8155 347.589 22.0646L346.588 22.5783H341.153L341.13 20.0446H345.192C345.851 20.0446 346.398 19.9279 346.833 19.6944C347.267 19.4609 347.593 19.1378 347.81 18.7253C348.035 18.3127 348.148 17.8418 348.148 17.3125C348.148 16.7443 348.039 16.2539 347.822 15.8413C347.605 15.421 347.275 15.098 346.833 14.8723C346.39 14.6465 345.832 14.5337 345.157 14.5337H342.201V29H339V12ZM348.567 29L344.645 21.3874L348.031 21.3757L352 28.8365V29H348.567Z" fill="#553E33"/>
<path d="M250.296 25.7424L253.664 12H255.488L255.604 14.8956L252.003 29H250.075L250.296 25.7424ZM248.171 12L250.935 25.6957V29H248.833L245 12H248.171ZM259.1 25.6374L261.818 12H265L261.167 29H259.065L259.1 25.6374ZM256.359 12L259.727 25.7891L259.925 29H257.997L254.408 14.8839L254.547 12H256.359Z" fill="#FFFBF5"/>
<path d="M166.605 12V29H163.335V12H166.605ZM172 12V14.5337H158V12H172Z" fill="#553E33"/>
<path d="M67.4286 12H70.2619L75 24.7967L79.7262 12H82.5714L76.131 29H73.8571L67.4286 12ZM66 12H68.7738L69.2738 23.7576V29H66V12ZM81.2143 12H84V29H80.7262V23.7576L81.2143 12Z" fill="#553E33"/>
<rect x="486" y="1" width="78" height="38" rx="14" stroke="#553E33" stroke-width="2"/>
<rect x="485" y="60" width="80" height="280" rx="15" fill="#F6F1E8"/>
<rect x="-53" y="1" width="78" height="38" rx="14" stroke="#553E33" stroke-width="2"/>
<rect x="-54" y="60" width="80" height="280" rx="15" fill="#F6F1E8"/>
<rect x="225" y="110" width="60" height="30" rx="10" fill="#F38997"/>
<rect x="225" y="70" width="60" height="30" rx="10" fill="#F5C744"/>
<rect x="225" y="190" width="60" height="30" rx="10" fill="#E7E0D6"/>
<rect x="225" y="150" width="60" height="30" rx="10" fill="#70C4F7"/>
<rect opacity="0.15" x="135" y="70" width="60" height="30" rx="10" fill="#F38997"/>
<rect opacity="0.15" x="135" y="150" width="60" height="30" rx="10" fill="#E7E0D6"/>
<rect opacity="0.15" x="135" y="110" width="60" height="30" rx="10" fill="#70C4F7"/>
<rect opacity="0.15" x="45" y="110" width="60" height="30" rx="10" fill="#E7E0D6"/>
<rect opacity="0.15" x="45" y="70" width="60" height="30" rx="10" fill="#70C4F7"/>
<rect x="495" y="70" width="60" height="30" rx="10" fill="#E7E0D6"/>
<rect x="405" y="110" width="60" height="30" rx="10" fill="#E7E0D6"/>
<rect x="405" y="70" width="60" height="30" rx="10" fill="#70C4F7"/>
<rect x="315" y="70" width="60" height="30" rx="10" fill="#F38997"/>
<rect x="315" y="150" width="60" height="30" rx="10" fill="#E7E0D6"/>
<rect x="315" y="110" width="60" height="30" rx="10" fill="#70C4F7"/>
<rect opacity="0.15" x="-44" y="70" width="60" height="30" rx="10" fill="#E7E0D6"/>
</g>
<defs>
<clipPath id="clip0_330_75">
<rect width="512" height="340" fill="white"/>
</clipPath>
</defs>
</svg>
