<svg width="512" height="340" viewBox="0 0 512 340" fill="none" xmlns="http://www.w3.org/2000/svg">
<rect x="215" y="60" width="80" height="280" rx="15" fill="#252932"/>
<rect x="310" y="60" width="80" height="280" rx="15" fill="#252932"/>
<rect x="405" y="60" width="80" height="280" rx="10" fill="#252932"/>
<rect x="215" width="80" height="40" rx="15" fill="#B7CBD5"/>
<rect x="310" width="80" height="40" rx="15" fill="#21252D"/>
<rect x="405" width="80" height="40" rx="15" fill="#21252D"/>
<rect x="25" y="60" width="80" height="280" rx="10" fill="#252932"/>
<rect x="120" y="60" width="80" height="280" rx="15" fill="#252932"/>
<rect x="120" width="80" height="40" rx="15" fill="#21252D"/>
<rect x="25" width="80" height="40" rx="15" fill="#21252D"/>
<path d="M443.222 12V29H440V12H443.222ZM450.098 19.3441V21.8777H442.378V19.3441H450.098ZM451 12V14.5337H442.378V12H451Z" fill="#B7CBD5"/>
<path d="M344 12H350.157C351.445 12 352.55 12.1946 353.474 12.5838C354.397 12.973 355.107 13.549 355.603 14.3118C356.1 15.0746 356.348 16.0126 356.348 17.1257C356.348 18.0053 356.193 18.7681 355.883 19.4141C355.572 20.0602 355.134 20.6012 354.568 21.0371C354.009 21.473 353.349 21.8155 352.589 22.0646L351.588 22.5783H346.153L346.13 20.0446H350.192C350.851 20.0446 351.398 19.9279 351.833 19.6944C352.267 19.4609 352.593 19.1378 352.81 18.7253C353.035 18.3127 353.148 17.8418 353.148 17.3125C353.148 16.7443 353.039 16.2539 352.822 15.8413C352.605 15.421 352.275 15.098 351.833 14.8723C351.39 14.6465 350.832 14.5337 350.157 14.5337H347.201V29H344V12ZM353.567 29L349.645 21.3874L353.031 21.3757L357 28.8365V29H353.567Z" fill="#B7CBD5"/>
<path d="M250.296 25.7424L253.664 12H255.488L255.604 14.8956L252.003 29H250.075L250.296 25.7424ZM248.171 12L250.935 25.6957V29H248.833L245 12H248.171ZM259.1 25.6374L261.818 12H265L261.167 29H259.065L259.1 25.6374ZM256.359 12L259.727 25.7891L259.925 29H257.997L254.408 14.8839L254.547 12H256.359Z" fill="#2B303B"/>
<path d="M161.605 12V29H158.335V12H161.605ZM167 12V14.5337H153V12H167Z" fill="#B7CBD5"/>
<path d="M57.4286 12H60.2619L65 24.7967L69.7262 12H72.5714L66.131 29H63.8571L57.4286 12ZM56 12H58.7738L59.2738 23.7576V29H56V12ZM71.2143 12H74V29H70.7262V23.7576L71.2143 12Z" fill="#B7CBD5"/>
<rect x="225" y="110" width="60" height="30" rx="10" fill="#F3B29F"/>
<rect x="225" y="70" width="60" height="30" rx="10" fill="#EAD16B"/>
<rect opacity="0.25" x="225" y="190" width="60" height="30" rx="10" fill="#B7CBD5"/>
<rect x="225" y="150" width="60" height="30" rx="10" fill="#71E8FC"/>
<rect opacity="0.15" x="130" y="70" width="60" height="30" rx="10" fill="#F3B29F"/>
<rect opacity="0.05" x="130" y="150" width="60" height="30" rx="10" fill="#B7CBD5"/>
<rect opacity="0.15" x="130" y="110" width="60" height="30" rx="10" fill="#71E8FC"/>
<rect opacity="0.05" x="35" y="110" width="60" height="30" rx="10" fill="#B7CBD5"/>
<rect opacity="0.15" x="35" y="70" width="60" height="30" rx="10" fill="#71E8FC"/>
<path opacity="0.25" d="M415 120C415 114.477 419.477 110 425 110H465C470.523 110 475 114.477 475 120V130C475 135.523 470.523 140 465 140H425C419.477 140 415 135.523 415 130V120Z" fill="#B7CBD5"/>
<path d="M415 80C415 74.4772 419.477 70 425 70H465C470.523 70 475 74.4772 475 80V90C475 95.5228 470.523 100 465 100H425C419.477 100 415 95.5228 415 90V80Z" fill="#71E8FC"/>
<rect x="320" y="70" width="60" height="30" rx="10" fill="#F3B29F"/>
<rect opacity="0.25" x="320" y="150" width="60" height="30" rx="10" fill="#B7CBD5"/>
<rect x="320" y="110" width="60" height="30" rx="10" fill="#71E8FC"/>
</svg>
